{"glyphs":{"0":{"ha":883,"x_min":75,"x_max":808,"o":"m 442 -14 q 170 106 265 -14 q 75 458 75 225 q 170 811 75 692 q 442 931 265 931 q 713 811 618 931 q 808 458 808 692 q 713 106 808 225 q 442 -14 618 -14 m 442 140 q 540 174 501 140 q 597 278 578 208 q 617 458 617 349 q 597 638 617 568 q 540 742 578 708 q 442 776 501 776 q 343 742 382 776 q 285 638 304 708 q 267 458 267 568 q 285 278 267 349 q 343 174 304 208 q 442 140 382 140 z "},"1":{"ha":578,"x_min":26,"x_max":461,"o":"m 274 0 l 274 581 q 274 647 274 613 q 276 717 275 681 q 171 642 229 674 q 51 597 113 610 l 26 758 q 98 777 58 761 q 178 816 138 793 q 253 865 219 839 q 306 917 288 890 l 461 917 l 461 0 l 274 0 z "},"2":{"ha":821,"x_min":61,"x_max":751,"o":"m 90 0 l 90 131 q 302 283 215 214 q 442 410 389 351 q 520 522 496 469 q 544 628 544 575 q 506 733 544 692 q 396 774 467 774 q 274 721 318 774 q 226 571 231 668 l 61 633 q 112 794 68 728 q 231 895 156 860 q 407 931 307 931 q 552 907 490 931 q 656 842 614 883 q 717 749 697 801 q 738 639 738 696 q 694 471 738 550 q 560 314 650 392 q 331 150 469 236 l 331 149 q 381 151 351 150 q 443 153 411 153 q 499 154 475 154 l 751 154 l 751 0 l 90 0 z "},"3":{"ha":818,"x_min":46,"x_max":747,"o":"m 413 -14 q 178 44 275 -14 q 46 210 82 101 l 226 289 q 258 206 236 239 q 319 157 281 174 q 410 140 357 140 q 490 158 457 140 q 540 205 522 175 q 558 275 558 235 q 542 342 558 315 q 494 380 525 368 q 414 392 463 392 q 380 391 396 392 q 344 388 364 390 l 344 528 q 367 526 356 526 q 392 525 379 525 q 503 556 469 525 q 538 657 538 588 q 503 745 538 714 q 407 776 469 776 q 301 744 340 776 q 247 644 263 711 l 76 708 q 141 828 93 778 q 260 905 189 878 q 417 932 331 932 q 588 900 519 932 q 692 813 657 868 q 728 685 728 757 q 710 588 728 628 q 666 522 693 549 q 610 481 639 494 q 556 464 581 467 l 556 460 q 621 447 588 458 q 683 411 654 435 q 729 351 711 388 q 747 264 747 314 q 703 117 747 181 q 585 20 660 54 q 413 -14 510 -14 z "},"4":{"ha":879,"x_min":61,"x_max":831,"o":"m 508 0 l 508 215 l 61 215 l 61 340 q 81 374 68 354 q 111 421 94 394 l 453 917 l 682 917 l 682 354 l 831 354 l 831 215 l 682 215 l 682 0 l 508 0 m 225 354 l 510 354 l 510 657 q 511 719 510 686 q 514 785 513 753 l 511 785 q 474 719 496 754 q 435 656 453 683 l 243 381 q 234 367 239 374 q 225 354 229 361 z "},"5":{"ha":808,"x_min":58,"x_max":743,"o":"m 397 -14 q 194 36 276 -14 q 58 189 111 86 l 231 275 q 288 176 249 214 q 401 139 326 139 q 489 157 453 139 q 545 210 525 175 q 565 294 565 244 q 547 378 565 344 q 493 430 528 413 q 406 447 458 447 q 338 440 369 447 q 282 419 307 433 q 238 381 257 404 l 88 408 l 144 917 l 699 917 l 699 763 l 289 763 l 261 539 l 257 521 l 260 521 q 340 572 289 554 q 456 590 390 590 q 610 554 546 590 q 708 453 674 518 q 743 306 743 389 q 717 166 743 226 q 642 66 690 106 q 532 6 594 26 q 397 -14 469 -14 z "},"6":{"ha":851,"x_min":75,"x_max":789,"o":"m 465 931 q 599 910 539 931 q 703 847 658 890 q 774 731 749 803 l 613 656 q 558 741 596 710 q 453 772 519 772 q 369 749 406 772 q 306 685 332 726 q 265 587 279 644 q 251 460 251 529 q 251 451 251 456 q 251 436 251 446 l 256 431 q 309 511 271 479 q 395 558 347 543 q 490 574 443 574 q 645 540 578 574 q 751 442 713 506 q 789 289 789 378 q 748 128 789 197 q 633 23 707 60 q 456 -14 558 -14 q 253 42 339 -14 q 122 201 168 97 q 75 453 75 306 q 126 719 75 613 q 267 878 178 825 q 465 931 356 931 m 453 433 q 372 415 407 433 q 317 363 338 396 q 296 288 296 331 q 317 211 296 244 q 374 158 339 178 q 453 139 410 139 q 567 178 526 139 q 608 288 608 217 q 590 365 608 332 q 538 416 572 399 q 453 433 503 433 z "},"7":{"ha":821,"x_min":49,"x_max":775,"o":"m 49 917 l 775 917 l 775 771 q 592 533 660 656 q 494 279 524 411 q 464 0 464 147 l 274 0 q 312 294 274 153 q 430 563 350 435 q 633 810 510 692 l 672 760 l 49 760 l 49 917 z "},"8":{"ha":865,"x_min":75,"x_max":790,"o":"m 432 928 q 603 898 531 928 q 716 813 676 868 q 756 681 756 758 q 720 556 756 608 q 618 475 685 503 l 618 474 q 744 389 699 444 q 790 249 790 333 q 747 110 790 168 q 623 19 703 51 q 432 -14 543 -14 q 242 19 322 -14 q 119 110 163 51 q 75 249 75 168 q 121 388 75 332 q 249 474 167 444 l 249 475 q 146 555 182 501 q 110 681 110 608 q 149 813 110 758 q 263 898 189 868 q 432 928 336 928 m 433 781 q 330 749 368 781 q 292 660 292 717 q 330 571 292 603 q 433 539 368 539 q 535 571 497 539 q 574 660 574 603 q 536 749 574 717 q 433 781 499 781 m 433 135 q 524 150 486 135 q 581 196 561 165 q 601 268 601 226 q 581 340 601 310 q 523 387 561 371 q 433 403 485 403 q 343 387 382 403 q 283 340 304 371 q 263 268 263 310 q 283 196 263 226 q 342 150 304 165 q 433 135 381 135 z "},"9":{"ha":857,"x_min":71,"x_max":782,"o":"m 408 931 q 614 874 531 931 q 740 713 697 818 q 782 461 782 608 q 736 194 782 299 q 606 38 690 89 q 410 -14 522 -14 q 206 36 292 -14 q 78 189 121 86 l 254 264 q 308 173 269 207 q 414 139 346 139 q 506 160 468 139 q 566 222 543 182 q 599 321 589 263 q 610 451 610 379 q 610 461 610 457 q 610 471 610 465 l 604 471 q 552 391 589 422 q 468 345 515 360 q 371 331 421 331 q 216 366 283 331 q 110 466 149 401 q 71 617 71 531 q 113 784 71 714 q 230 892 154 854 q 408 931 306 931 m 410 775 q 295 734 336 775 q 254 619 254 693 q 297 517 254 554 q 410 481 339 481 q 491 499 456 481 q 546 550 526 517 q 565 626 565 583 q 546 706 565 672 q 491 757 526 739 q 410 775 456 775 z "},"A":{"ha":932,"x_min":17,"x_max":915,"o":"m 915 0 l 717 0 l 640 224 l 289 224 l 213 0 l 17 0 l 351 917 l 581 917 l 915 0 m 332 365 l 597 365 l 464 765 l 332 365 z "},"Á":{"ha":932,"x_min":17,"x_max":915,"o":"m 915 0 l 717 0 l 640 224 l 289 224 l 213 0 l 17 0 l 351 917 l 581 917 l 915 0 m 332 365 l 597 365 l 464 765 l 332 365 m 468 1239 l 643 1239 l 521 1014 l 381 1014 l 468 1239 z "},"Ă":{"ha":932,"x_min":17,"x_max":915,"o":"m 915 0 l 717 0 l 640 224 l 289 224 l 213 0 l 17 0 l 351 917 l 581 917 l 915 0 m 332 365 l 597 365 l 464 765 l 332 365 m 689 1222 q 628 1063 689 1122 q 465 1004 568 1004 q 303 1063 364 1004 q 242 1222 242 1122 l 371 1222 q 395 1148 371 1178 q 465 1118 419 1118 q 536 1148 513 1118 q 560 1222 560 1178 l 689 1222 z "},"Ắ":{"ha":932,"x_min":17,"x_max":915,"o":"m 681 1214 q 622 1061 681 1118 q 465 1004 564 1004 q 310 1061 368 1004 q 251 1214 251 1118 l 374 1214 q 397 1141 374 1171 q 465 1111 421 1111 q 534 1141 511 1111 q 558 1214 557 1171 l 681 1214 m 379 1242 l 451 1433 l 615 1433 l 510 1242 l 379 1242 m 915 0 l 717 0 l 640 224 l 289 224 l 213 0 l 17 0 l 351 917 l 581 917 l 915 0 m 332 365 l 597 365 l 464 765 l 332 365 z "},"Ặ":{"ha":932,"x_min":17,"x_max":915,"o":"m 915 0 l 717 0 l 640 224 l 289 224 l 213 0 l 17 0 l 351 917 l 581 917 l 915 0 m 332 365 l 597 365 l 464 765 l 332 365 m 465 -306 q 383 -278 413 -306 q 354 -204 354 -251 q 383 -129 354 -156 q 465 -103 413 -103 q 549 -129 519 -103 q 578 -204 578 -156 q 549 -278 578 -251 q 465 -306 519 -306 m 689 1222 q 628 1063 689 1122 q 465 1004 568 1004 q 303 1063 364 1004 q 242 1222 242 1122 l 371 1222 q 395 1148 371 1178 q 465 1118 419 1118 q 536 1148 513 1118 q 560 1222 560 1178 l 689 1222 z "},"Ằ":{"ha":932,"x_min":17,"x_max":915,"o":"m 681 1214 q 622 1061 681 1118 q 465 1004 564 1004 q 310 1061 368 1004 q 251 1214 251 1118 l 374 1214 q 397 1141 374 1171 q 465 1111 421 1111 q 534 1141 511 1111 q 558 1214 557 1171 l 681 1214 m 553 1242 l 422 1242 l 317 1433 l 481 1433 l 553 1242 m 915 0 l 717 0 l 640 224 l 289 224 l 213 0 l 17 0 l 351 917 l 581 917 l 915 0 m 332 365 l 597 365 l 464 765 l 332 365 z "},"Ẳ":{"ha":932,"x_min":17,"x_max":915,"o":"m 681 1214 q 622 1061 681 1118 q 465 1004 564 1004 q 310 1061 368 1004 q 251 1214 251 1118 l 374 1214 q 397 1141 374 1171 q 465 1111 421 1111 q 534 1141 511 1111 q 558 1214 557 1171 l 681 1214 m 467 1219 l 422 1278 q 475 1312 458 1294 q 492 1354 492 1329 q 480 1385 492 1372 q 443 1399 468 1399 q 410 1390 424 1399 q 388 1360 397 1381 l 300 1408 q 360 1480 318 1454 q 460 1506 401 1506 q 534 1490 501 1506 q 586 1445 567 1474 q 606 1376 606 1417 q 586 1305 606 1336 q 535 1253 567 1274 q 467 1219 504 1232 m 915 0 l 717 0 l 640 224 l 289 224 l 213 0 l 17 0 l 351 917 l 581 917 l 915 0 m 332 365 l 597 365 l 464 765 l 332 365 z "},"Ẵ":{"ha":932,"x_min":17,"x_max":915,"o":"m 681 1214 q 622 1061 681 1118 q 467 1004 564 1004 q 310 1061 369 1004 q 251 1214 251 1118 l 374 1214 q 399 1141 375 1171 q 467 1111 422 1111 q 535 1141 513 1111 q 560 1214 558 1171 l 681 1214 m 717 1447 q 668 1302 711 1349 q 561 1256 625 1256 q 498 1267 524 1256 q 453 1294 472 1279 q 417 1322 435 1310 q 381 1333 400 1333 q 344 1315 357 1333 q 326 1258 332 1296 l 215 1258 q 265 1403 221 1357 q 378 1450 308 1450 q 439 1438 414 1450 q 482 1411 464 1426 q 516 1384 500 1396 q 551 1372 532 1372 q 588 1390 575 1372 q 607 1447 601 1408 l 717 1447 m 915 0 l 717 0 l 640 224 l 289 224 l 213 0 l 17 0 l 351 917 l 581 917 l 915 0 m 332 365 l 597 365 l 464 765 l 332 365 z "},"Â":{"ha":932,"x_min":17,"x_max":915,"o":"m 915 0 l 717 0 l 640 224 l 289 224 l 213 0 l 17 0 l 351 917 l 581 917 l 915 0 m 332 365 l 597 365 l 464 765 l 332 365 m 706 1014 l 563 1014 l 465 1150 l 368 1014 l 225 1014 l 369 1239 l 561 1239 l 706 1014 z "},"Ấ":{"ha":932,"x_min":17,"x_max":915,"o":"m 704 1007 l 567 1007 l 465 1140 l 365 1007 l 228 1007 l 376 1235 l 556 1235 l 704 1007 m 738 1360 l 894 1360 l 785 1158 l 658 1158 l 738 1360 m 915 0 l 717 0 l 640 224 l 289 224 l 213 0 l 17 0 l 351 917 l 581 917 l 915 0 m 332 365 l 597 365 l 464 765 l 332 365 z "},"Ậ":{"ha":932,"x_min":17,"x_max":915,"o":"m 915 0 l 717 0 l 640 224 l 289 224 l 213 0 l 17 0 l 351 917 l 581 917 l 915 0 m 332 365 l 597 365 l 464 765 l 332 365 m 465 -306 q 383 -278 413 -306 q 354 -204 354 -251 q 383 -129 354 -156 q 465 -103 413 -103 q 549 -129 519 -103 q 578 -204 578 -156 q 549 -278 578 -251 q 465 -306 519 -306 m 706 1014 l 563 1014 l 465 1150 l 368 1014 l 225 1014 l 369 1239 l 561 1239 l 706 1014 z "},"Ầ":{"ha":932,"x_min":17,"x_max":915,"o":"m 704 1007 l 567 1007 l 465 1140 l 365 1007 l 228 1007 l 376 1235 l 556 1235 l 704 1007 m 732 1360 l 811 1158 l 685 1158 l 575 1360 l 732 1360 m 915 0 l 717 0 l 640 224 l 289 224 l 213 0 l 17 0 l 351 917 l 581 917 l 915 0 m 332 365 l 597 365 l 464 765 l 332 365 z "},"Ẩ":{"ha":932,"x_min":17,"x_max":915,"o":"m 704 1007 l 567 1007 l 465 1140 l 365 1007 l 228 1007 l 376 1235 l 556 1235 l 704 1007 m 704 1133 l 657 1193 q 712 1229 694 1211 q 729 1272 729 1247 q 717 1305 729 1292 q 679 1318 704 1318 q 646 1308 660 1318 q 622 1279 632 1299 l 529 1328 q 592 1403 549 1376 q 697 1431 635 1431 q 773 1414 739 1431 q 828 1367 807 1397 q 849 1296 849 1338 q 828 1222 849 1254 q 775 1167 808 1189 q 704 1133 742 1146 m 915 0 l 717 0 l 640 224 l 289 224 l 213 0 l 17 0 l 351 917 l 581 917 l 915 0 m 332 365 l 597 365 l 464 765 l 332 365 z "},"Ẫ":{"ha":932,"x_min":17,"x_max":915,"o":"m 704 1007 l 567 1007 l 465 1140 l 365 1007 l 228 1007 l 376 1235 l 556 1235 l 704 1007 m 715 1461 q 667 1316 711 1363 q 560 1269 624 1269 q 497 1281 522 1269 q 452 1308 471 1293 q 417 1335 433 1324 q 379 1347 400 1347 q 343 1328 356 1347 q 325 1272 331 1310 l 215 1272 q 264 1417 221 1371 q 378 1464 307 1464 q 438 1452 413 1464 q 481 1425 463 1440 q 515 1398 500 1410 q 551 1386 531 1386 q 588 1405 575 1386 q 606 1461 600 1424 l 715 1461 m 915 0 l 717 0 l 640 224 l 289 224 l 213 0 l 17 0 l 351 917 l 581 917 l 915 0 m 332 365 l 597 365 l 464 765 l 332 365 z "},"Ȁ":{"ha":932,"x_min":17,"x_max":915,"o":"m 915 0 l 717 0 l 640 224 l 289 224 l 213 0 l 17 0 l 351 917 l 581 917 l 915 0 m 332 365 l 597 365 l 464 765 l 332 365 m 310 1239 l 397 1014 l 256 1014 l 133 1239 l 310 1239 m 596 1239 l 683 1014 l 543 1014 l 421 1239 l 596 1239 z "},"Ä":{"ha":932,"x_min":17,"x_max":915,"o":"m 915 0 l 717 0 l 640 224 l 289 224 l 213 0 l 17 0 l 351 917 l 581 917 l 915 0 m 332 365 l 597 365 l 464 765 l 332 365 m 318 1201 q 395 1176 367 1201 q 424 1104 424 1150 q 395 1033 424 1060 q 318 1007 367 1007 q 243 1033 271 1007 q 215 1104 215 1060 q 243 1176 215 1150 q 318 1201 271 1201 m 610 1201 q 688 1176 660 1201 q 715 1104 715 1150 q 688 1033 715 1060 q 610 1007 660 1007 q 535 1033 563 1007 q 507 1104 507 1060 q 535 1176 507 1150 q 610 1201 563 1201 z "},"Ạ":{"ha":932,"x_min":17,"x_max":915,"o":"m 915 0 l 717 0 l 640 224 l 289 224 l 213 0 l 17 0 l 351 917 l 581 917 l 915 0 m 332 365 l 597 365 l 464 765 l 332 365 m 465 -306 q 383 -278 413 -306 q 354 -204 354 -251 q 383 -129 354 -156 q 465 -103 413 -103 q 549 -129 519 -103 q 578 -204 578 -156 q 549 -278 578 -251 q 465 -306 519 -306 z "},"À":{"ha":932,"x_min":17,"x_max":915,"o":"m 915 0 l 717 0 l 640 224 l 289 224 l 213 0 l 17 0 l 351 917 l 581 917 l 915 0 m 332 365 l 597 365 l 464 765 l 332 365 m 458 1239 l 546 1014 l 406 1014 l 283 1239 l 458 1239 z "},"Ả":{"ha":932,"x_min":17,"x_max":915,"o":"m 915 0 l 717 0 l 640 224 l 289 224 l 213 0 l 17 0 l 351 917 l 581 917 l 915 0 m 332 365 l 597 365 l 464 765 l 332 365 m 467 979 l 421 1040 q 475 1076 458 1058 q 492 1118 492 1094 q 479 1152 492 1139 q 443 1165 467 1165 q 409 1156 422 1165 q 385 1125 396 1146 l 293 1175 q 355 1250 311 1224 q 460 1276 399 1276 q 536 1260 501 1276 q 591 1215 571 1244 q 611 1143 611 1185 q 591 1067 611 1100 q 538 1013 571 1035 q 467 979 506 992 z "},"Ȃ":{"ha":932,"x_min":17,"x_max":915,"o":"m 915 0 l 717 0 l 640 224 l 289 224 l 213 0 l 17 0 l 351 917 l 581 917 l 915 0 m 332 365 l 597 365 l 464 765 l 332 365 m 689 1004 l 560 1004 q 536 1078 560 1049 q 465 1108 513 1108 q 395 1078 419 1108 q 371 1004 371 1049 l 242 1004 q 303 1163 242 1104 q 465 1222 364 1222 q 628 1163 568 1222 q 689 1004 689 1104 z "},"Ā":{"ha":932,"x_min":17,"x_max":915,"o":"m 915 0 l 717 0 l 640 224 l 289 224 l 213 0 l 17 0 l 351 917 l 581 917 l 915 0 m 332 365 l 597 365 l 464 765 l 332 365 m 708 1153 l 708 1026 l 222 1026 l 222 1153 l 708 1153 z "},"Ą":{"ha":932,"x_min":17,"x_max":926,"o":"m 794 -299 q 700 -281 742 -299 q 635 -231 658 -264 q 611 -146 611 -197 q 667 -25 611 -72 q 826 43 722 22 l 915 0 q 813 -34 850 -15 q 763 -74 776 -53 q 749 -121 749 -96 q 770 -169 749 -151 q 829 -186 792 -186 q 865 -183 846 -186 q 897 -171 883 -181 l 926 -269 q 867 -292 901 -286 q 794 -299 833 -299 m 915 0 l 717 0 l 640 224 l 289 224 l 213 0 l 17 0 l 351 917 l 581 917 l 915 0 m 332 365 l 597 365 l 464 765 l 332 365 z "},"Å":{"ha":932,"x_min":17,"x_max":915,"o":"m 915 0 l 717 0 l 640 224 l 289 224 l 213 0 l 17 0 l 351 917 l 581 917 l 915 0 m 332 365 l 597 365 l 464 765 l 332 365 m 464 1172 q 599 1126 549 1172 q 650 1001 650 1079 q 599 877 650 924 q 464 831 549 831 q 328 877 381 831 q 276 1001 276 924 q 328 1126 276 1079 q 464 1172 381 1172 m 464 1083 q 404 1060 428 1083 q 381 1001 381 1038 q 404 943 381 965 q 464 921 428 921 q 524 943 501 921 q 547 1001 547 965 q 524 1060 547 1038 q 464 1083 501 1083 z "},"Ǻ":{"ha":932,"x_min":17,"x_max":915,"o":"m 915 0 l 717 0 l 640 224 l 289 224 l 213 0 l 17 0 l 351 917 l 581 917 l 915 0 m 332 365 l 597 365 l 464 765 l 332 365 m 464 1172 q 599 1126 549 1172 q 650 1001 650 1079 q 599 877 650 924 q 464 831 549 831 q 328 877 381 831 q 276 1001 276 924 q 328 1126 276 1079 q 464 1172 381 1172 m 464 1083 q 404 1060 428 1083 q 381 1001 381 1038 q 404 943 381 965 q 464 921 428 921 q 524 943 501 921 q 547 1001 547 965 q 524 1060 547 1038 q 464 1083 501 1083 m 478 1458 l 653 1458 l 531 1233 l 390 1233 l 478 1458 z "},"Ã":{"ha":932,"x_min":17,"x_max":915,"o":"m 915 0 l 717 0 l 640 224 l 289 224 l 213 0 l 17 0 l 351 917 l 581 917 l 915 0 m 332 365 l 597 365 l 464 765 l 332 365 m 731 1219 q 706 1103 728 1150 q 649 1034 685 1057 q 565 1011 613 1011 q 499 1024 526 1011 q 451 1053 471 1038 q 412 1083 431 1069 q 372 1096 393 1096 q 333 1074 346 1096 q 314 1011 319 1053 l 197 1011 q 248 1167 203 1115 q 369 1219 293 1219 q 434 1206 407 1219 q 481 1176 461 1193 q 517 1147 500 1160 q 556 1135 535 1135 q 597 1156 583 1135 q 614 1219 610 1178 l 731 1219 z "},"Æ":{"ha":1299,"x_min":0,"x_max":1246,"o":"m 782 150 l 1246 150 l 1246 0 l 600 0 l 600 281 l 325 281 l 196 0 l 0 0 l 446 917 l 1226 917 l 1226 767 l 782 767 l 782 533 l 1121 533 l 1121 390 l 782 390 l 782 150 m 381 418 l 600 418 l 600 771 l 553 771 l 381 418 z "},"Ǽ":{"ha":1299,"x_min":0,"x_max":1246,"o":"m 782 150 l 1246 150 l 1246 0 l 600 0 l 600 281 l 325 281 l 196 0 l 0 0 l 446 917 l 1226 917 l 1226 767 l 782 767 l 782 533 l 1121 533 l 1121 390 l 782 390 l 782 150 m 381 418 l 600 418 l 600 771 l 553 771 l 381 418 m 693 1239 l 868 1239 l 746 1014 l 606 1014 l 693 1239 z "},"B":{"ha":933,"x_min":119,"x_max":869,"o":"m 119 0 l 119 917 l 521 917 q 767 851 688 917 q 846 667 846 786 q 801 536 846 593 q 671 464 757 479 l 671 463 q 818 390 767 449 q 869 251 869 332 q 784 67 869 133 q 535 0 699 0 l 119 0 m 306 144 l 518 144 q 633 176 596 144 q 671 265 671 208 q 633 354 671 324 q 518 385 596 385 l 306 385 l 306 144 m 306 532 l 496 532 q 647 650 647 532 q 496 768 647 768 l 306 768 l 306 532 z "},"C":{"ha":949,"x_min":74,"x_max":904,"o":"m 904 253 q 821 104 878 164 q 686 15 764 44 q 515 -14 608 -14 q 280 43 379 -14 q 127 206 181 100 q 74 458 74 311 q 127 711 74 606 q 280 874 181 817 q 513 931 379 931 q 683 905 607 931 q 813 826 760 879 q 892 693 867 772 l 718 619 q 646 738 694 703 q 521 774 597 774 q 390 738 446 774 q 303 631 333 701 q 272 458 272 561 q 301 286 272 357 q 385 179 329 215 q 521 143 440 143 q 651 183 596 143 q 728 306 706 224 l 904 253 z "},"Ć":{"ha":949,"x_min":74,"x_max":904,"o":"m 904 253 q 821 104 878 164 q 686 15 764 44 q 515 -14 608 -14 q 280 43 379 -14 q 127 206 181 100 q 74 458 74 311 q 127 711 74 606 q 280 874 181 817 q 513 931 379 931 q 683 905 607 931 q 813 826 760 879 q 892 693 867 772 l 718 619 q 646 738 694 703 q 521 774 597 774 q 390 738 446 774 q 303 631 333 701 q 272 458 272 561 q 301 286 272 357 q 385 179 329 215 q 521 143 440 143 q 651 183 596 143 q 728 306 706 224 l 904 253 m 511 1239 l 686 1239 l 564 1014 l 424 1014 l 511 1239 z "},"Č":{"ha":949,"x_min":74,"x_max":904,"o":"m 904 253 q 821 104 878 164 q 686 15 764 44 q 515 -14 608 -14 q 280 43 379 -14 q 127 206 181 100 q 74 458 74 311 q 127 711 74 606 q 280 874 181 817 q 513 931 379 931 q 683 905 607 931 q 813 826 760 879 q 892 693 867 772 l 718 619 q 646 738 694 703 q 521 774 597 774 q 390 738 446 774 q 303 631 333 701 q 272 458 272 561 q 301 286 272 357 q 385 179 329 215 q 521 143 440 143 q 651 183 596 143 q 728 306 706 224 l 904 253 m 749 1239 l 604 1014 l 413 1014 l 268 1239 l 411 1239 l 508 1104 l 606 1239 l 749 1239 z "},"Ç":{"ha":949,"x_min":74,"x_max":904,"o":"m 904 253 q 821 104 878 164 q 686 15 764 44 q 515 -14 608 -14 q 280 43 379 -14 q 127 206 181 100 q 74 458 74 311 q 127 711 74 606 q 280 874 181 817 q 513 931 379 931 q 683 905 607 931 q 813 826 760 879 q 892 693 867 772 l 718 619 q 646 738 694 703 q 521 774 597 774 q 390 738 446 774 q 303 631 333 701 q 272 458 272 561 q 301 286 272 357 q 385 179 329 215 q 521 143 440 143 q 651 183 596 143 q 728 306 706 224 l 904 253 m 410 11 l 467 47 q 612 -17 567 28 q 657 -129 657 -61 q 606 -251 657 -204 q 471 -299 556 -299 q 390 -287 422 -299 q 333 -258 357 -275 l 367 -157 q 405 -176 385 -168 q 454 -185 425 -185 q 514 -162 490 -185 q 538 -99 538 -140 q 509 -40 538 -65 q 410 11 481 -15 z "},"Ḉ":{"ha":949,"x_min":74,"x_max":904,"o":"m 904 253 q 821 104 878 164 q 686 15 764 44 q 515 -14 608 -14 q 280 43 379 -14 q 127 206 181 100 q 74 458 74 311 q 127 711 74 606 q 280 874 181 817 q 513 931 379 931 q 683 905 607 931 q 813 826 760 879 q 892 693 867 772 l 718 619 q 646 738 694 703 q 521 774 597 774 q 390 738 446 774 q 303 631 333 701 q 272 458 272 561 q 301 286 272 357 q 385 179 329 215 q 521 143 440 143 q 651 183 596 143 q 728 306 706 224 l 904 253 m 410 11 l 467 47 q 612 -17 567 28 q 657 -129 657 -61 q 606 -251 657 -204 q 471 -299 556 -299 q 390 -287 422 -299 q 333 -258 357 -275 l 367 -157 q 405 -176 385 -168 q 454 -185 425 -185 q 514 -162 490 -185 q 538 -99 538 -140 q 509 -40 538 -65 q 410 11 481 -15 m 511 1239 l 686 1239 l 564 1014 l 424 1014 l 511 1239 z "},"Ĉ":{"ha":949,"x_min":74,"x_max":904,"o":"m 904 253 q 821 104 878 164 q 686 15 764 44 q 515 -14 608 -14 q 280 43 379 -14 q 127 206 181 100 q 74 458 74 311 q 127 711 74 606 q 280 874 181 817 q 513 931 379 931 q 683 905 607 931 q 813 826 760 879 q 892 693 867 772 l 718 619 q 646 738 694 703 q 521 774 597 774 q 390 738 446 774 q 303 631 333 701 q 272 458 272 561 q 301 286 272 357 q 385 179 329 215 q 521 143 440 143 q 651 183 596 143 q 728 306 706 224 l 904 253 m 749 1014 l 606 1014 l 508 1150 l 411 1014 l 268 1014 l 413 1239 l 604 1239 l 749 1014 z "},"Ċ":{"ha":949,"x_min":74,"x_max":904,"o":"m 904 253 q 821 104 878 164 q 686 15 764 44 q 515 -14 608 -14 q 280 43 379 -14 q 127 206 181 100 q 74 458 74 311 q 127 711 74 606 q 280 874 181 817 q 513 931 379 931 q 683 905 607 931 q 813 826 760 879 q 892 693 867 772 l 718 619 q 646 738 694 703 q 521 774 597 774 q 390 738 446 774 q 303 631 333 701 q 272 458 272 561 q 301 286 272 357 q 385 179 329 215 q 521 143 440 143 q 651 183 596 143 q 728 306 706 224 l 904 253 m 508 1222 q 592 1195 563 1222 q 621 1121 621 1168 q 592 1046 621 1072 q 508 1019 563 1019 q 426 1046 456 1019 q 397 1121 397 1072 q 426 1195 397 1168 q 508 1222 456 1222 z "},"D":{"ha":999,"x_min":119,"x_max":925,"o":"m 474 917 q 807 798 689 917 q 925 458 925 679 q 807 119 925 239 q 474 0 689 0 l 119 0 l 119 917 l 474 917 m 464 153 q 660 231 594 153 q 726 458 726 310 q 660 685 726 607 q 464 764 594 764 l 311 764 l 311 153 l 464 153 z "},"Ǳ":{"ha":1867,"x_min":119,"x_max":1811,"o":"m 474 917 q 807 798 689 917 q 925 458 925 679 q 807 119 925 239 q 474 0 689 0 l 119 0 l 119 917 l 474 917 m 464 153 q 660 231 594 153 q 726 458 726 310 q 660 685 726 607 q 464 764 594 764 l 311 764 l 311 153 l 464 153 m 1204 86 l 1169 153 l 1811 153 l 1811 0 l 1049 0 l 1049 144 l 1640 831 l 1674 764 l 1060 764 l 1060 917 l 1794 917 l 1794 772 l 1204 86 z "},"Ǆ":{"ha":1867,"x_min":119,"x_max":1811,"o":"m 474 917 q 807 798 689 917 q 925 458 925 679 q 807 119 925 239 q 474 0 689 0 l 119 0 l 119 917 l 474 917 m 464 153 q 660 231 594 153 q 726 458 726 310 q 660 685 726 607 q 464 764 594 764 l 311 764 l 311 153 l 464 153 m 1204 86 l 1169 153 l 1811 153 l 1811 0 l 1049 0 l 1049 144 l 1640 831 l 1674 764 l 1060 764 l 1060 917 l 1794 917 l 1794 772 l 1204 86 m 1665 1239 l 1521 1014 l 1329 1014 l 1185 1239 l 1328 1239 l 1425 1104 l 1522 1239 l 1665 1239 z "},"Ð":{"ha":1028,"x_min":25,"x_max":953,"o":"m 25 389 l 25 532 l 554 532 l 554 389 l 25 389 m 503 917 q 835 798 718 917 q 953 458 953 679 q 835 119 953 239 q 503 0 718 0 l 149 0 l 149 917 l 503 917 m 492 153 q 690 231 624 153 q 756 458 756 310 q 690 685 756 607 q 492 764 624 764 l 340 764 l 340 153 l 492 153 z "},"Ď":{"ha":999,"x_min":119,"x_max":925,"o":"m 474 917 q 807 798 689 917 q 925 458 925 679 q 807 119 925 239 q 474 0 689 0 l 119 0 l 119 917 l 474 917 m 464 153 q 660 231 594 153 q 726 458 726 310 q 660 685 726 607 q 464 764 594 764 l 311 764 l 311 153 l 464 153 m 729 1239 l 585 1014 l 393 1014 l 249 1239 l 392 1239 l 489 1104 l 586 1239 l 729 1239 z "},"Đ":{"ha":1028,"x_min":25,"x_max":953,"o":"m 25 389 l 25 532 l 554 532 l 554 389 l 25 389 m 503 917 q 835 798 718 917 q 953 458 953 679 q 835 119 953 239 q 503 0 718 0 l 149 0 l 149 917 l 503 917 m 492 153 q 690 231 624 153 q 756 458 756 310 q 690 685 756 607 q 492 764 624 764 l 340 764 l 340 153 l 492 153 z "},"Ḍ":{"ha":999,"x_min":119,"x_max":925,"o":"m 474 917 q 807 798 689 917 q 925 458 925 679 q 807 119 925 239 q 474 0 689 0 l 119 0 l 119 917 l 474 917 m 464 153 q 660 231 594 153 q 726 458 726 310 q 660 685 726 607 q 464 764 594 764 l 311 764 l 311 153 l 464 153 m 472 -306 q 390 -278 419 -306 q 361 -204 361 -251 q 390 -129 361 -156 q 472 -103 419 -103 q 556 -129 526 -103 q 585 -204 585 -156 q 556 -278 585 -251 q 472 -306 526 -306 z "},"Ḏ":{"ha":999,"x_min":119,"x_max":925,"o":"m 474 917 q 807 798 689 917 q 925 458 925 679 q 807 119 925 239 q 474 0 689 0 l 119 0 l 119 917 l 474 917 m 464 153 q 660 231 594 153 q 726 458 726 310 q 660 685 726 607 q 464 764 594 764 l 311 764 l 311 153 l 464 153 m 715 -110 l 715 -236 l 229 -236 l 229 -110 l 715 -110 z "},"ǲ":{"ha":1719,"x_min":119,"x_max":1664,"o":"m 474 917 q 807 798 689 917 q 925 458 925 679 q 807 119 925 239 q 474 0 689 0 l 119 0 l 119 917 l 474 917 m 464 153 q 660 231 594 153 q 726 458 726 310 q 660 685 726 607 q 464 764 594 764 l 311 764 l 311 153 l 464 153 m 1053 0 l 1053 122 l 1361 478 l 1440 557 l 1325 554 l 1056 554 l 1056 694 l 1651 694 l 1651 572 l 1344 218 l 1265 138 l 1392 140 l 1663 140 l 1663 0 l 1053 0 z "},"ǅ":{"ha":1719,"x_min":119,"x_max":1664,"o":"m 474 917 q 807 798 689 917 q 925 458 925 679 q 807 119 925 239 q 474 0 689 0 l 119 0 l 119 917 l 474 917 m 464 153 q 660 231 594 153 q 726 458 726 310 q 660 685 726 607 q 464 764 594 764 l 311 764 l 311 153 l 464 153 m 1053 0 l 1053 122 l 1361 478 l 1440 557 l 1325 554 l 1056 554 l 1056 694 l 1651 694 l 1651 572 l 1344 218 l 1265 138 l 1392 140 l 1663 140 l 1663 0 l 1053 0 m 1589 1031 l 1435 794 l 1244 794 l 1090 1031 l 1236 1031 l 1340 894 l 1444 1031 l 1589 1031 z "},"E":{"ha":879,"x_min":119,"x_max":826,"o":"m 119 0 l 119 917 l 807 917 l 807 763 l 311 763 l 311 535 l 701 535 l 701 388 l 311 388 l 311 154 l 826 154 l 826 0 l 119 0 z "},"É":{"ha":879,"x_min":119,"x_max":826,"o":"m 119 0 l 119 917 l 807 917 l 807 763 l 311 763 l 311 535 l 701 535 l 701 388 l 311 388 l 311 154 l 826 154 l 826 0 l 119 0 m 461 1239 l 636 1239 l 514 1014 l 374 1014 l 461 1239 z "},"Ĕ":{"ha":879,"x_min":119,"x_max":826,"o":"m 119 0 l 119 917 l 807 917 l 807 763 l 311 763 l 311 535 l 701 535 l 701 388 l 311 388 l 311 154 l 826 154 l 826 0 l 119 0 m 688 1222 q 627 1063 688 1122 q 464 1004 567 1004 q 301 1063 363 1004 q 240 1222 240 1122 l 369 1222 q 394 1148 369 1178 q 464 1118 418 1118 q 535 1148 511 1118 q 558 1222 558 1178 l 688 1222 z "},"Ě":{"ha":879,"x_min":119,"x_max":826,"o":"m 119 0 l 119 917 l 807 917 l 807 763 l 311 763 l 311 535 l 701 535 l 701 388 l 311 388 l 311 154 l 826 154 l 826 0 l 119 0 m 704 1239 l 560 1014 l 368 1014 l 224 1239 l 367 1239 l 464 1104 l 561 1239 l 704 1239 z "},"Ḝ":{"ha":879,"x_min":119,"x_max":826,"o":"m 119 0 l 119 917 l 807 917 l 807 763 l 311 763 l 311 535 l 701 535 l 701 388 l 311 388 l 311 154 l 826 154 l 826 0 l 119 0 m 386 11 l 443 47 q 588 -17 543 28 q 633 -129 633 -61 q 583 -251 633 -204 q 447 -299 532 -299 q 366 -287 399 -299 q 310 -258 333 -275 l 343 -157 q 381 -176 361 -168 q 431 -185 401 -185 q 490 -162 467 -185 q 514 -99 514 -140 q 485 -40 514 -65 q 386 11 457 -15 m 688 1222 q 627 1063 688 1122 q 464 1004 567 1004 q 301 1063 363 1004 q 240 1222 240 1122 l 369 1222 q 394 1148 369 1178 q 464 1118 418 1118 q 535 1148 511 1118 q 558 1222 558 1178 l 688 1222 z "},"Ê":{"ha":879,"x_min":119,"x_max":826,"o":"m 119 0 l 119 917 l 807 917 l 807 763 l 311 763 l 311 535 l 701 535 l 701 388 l 311 388 l 311 154 l 826 154 l 826 0 l 119 0 m 704 1014 l 561 1014 l 464 1150 l 367 1014 l 224 1014 l 368 1239 l 560 1239 l 704 1014 z "},"Ế":{"ha":879,"x_min":119,"x_max":893,"o":"m 701 1007 l 565 1007 l 464 1140 l 363 1007 l 225 1007 l 375 1235 l 553 1235 l 701 1007 m 735 1360 l 893 1360 l 783 1158 l 656 1158 l 735 1360 m 119 0 l 119 917 l 807 917 l 807 763 l 311 763 l 311 535 l 701 535 l 701 388 l 311 388 l 311 154 l 826 154 l 826 0 l 119 0 z "},"Ệ":{"ha":879,"x_min":119,"x_max":826,"o":"m 119 0 l 119 917 l 807 917 l 807 763 l 311 763 l 311 535 l 701 535 l 701 388 l 311 388 l 311 154 l 826 154 l 826 0 l 119 0 m 479 -306 q 397 -278 426 -306 q 368 -204 368 -251 q 397 -129 368 -156 q 479 -103 426 -103 q 563 -129 533 -103 q 592 -204 592 -156 q 563 -278 592 -251 q 479 -306 533 -306 m 704 1014 l 561 1014 l 464 1150 l 367 1014 l 224 1014 l 368 1239 l 560 1239 l 704 1014 z "},"Ề":{"ha":879,"x_min":119,"x_max":826,"o":"m 701 1007 l 565 1007 l 464 1140 l 363 1007 l 225 1007 l 375 1235 l 553 1235 l 701 1007 m 731 1360 l 810 1158 l 682 1158 l 572 1360 l 731 1360 m 119 0 l 119 917 l 807 917 l 807 763 l 311 763 l 311 535 l 701 535 l 701 388 l 311 388 l 311 154 l 826 154 l 826 0 l 119 0 z "},"Ể":{"ha":879,"x_min":119,"x_max":846,"o":"m 701 1007 l 565 1007 l 464 1140 l 363 1007 l 225 1007 l 375 1235 l 553 1235 l 701 1007 m 701 1133 l 656 1193 q 710 1229 693 1211 q 726 1272 726 1247 q 714 1305 726 1292 q 678 1318 701 1318 q 644 1308 657 1318 q 619 1279 631 1299 l 528 1328 q 590 1403 546 1376 q 694 1431 633 1431 q 771 1414 736 1431 q 826 1367 806 1397 q 846 1296 846 1338 q 826 1222 846 1254 q 774 1167 807 1189 q 701 1133 740 1146 m 119 0 l 119 917 l 807 917 l 807 763 l 311 763 l 311 535 l 701 535 l 701 388 l 311 388 l 311 154 l 826 154 l 826 0 l 119 0 z "},"Ễ":{"ha":879,"x_min":119,"x_max":826,"o":"m 701 1007 l 565 1007 l 464 1140 l 363 1007 l 225 1007 l 375 1235 l 553 1235 l 701 1007 m 714 1461 q 665 1316 708 1363 q 558 1269 622 1269 q 495 1281 521 1269 q 451 1308 469 1293 q 415 1335 432 1324 q 378 1347 397 1347 q 342 1328 354 1347 q 324 1272 329 1310 l 213 1272 q 262 1417 218 1371 q 375 1464 306 1464 q 436 1452 411 1464 q 479 1425 461 1440 q 513 1398 497 1410 q 549 1386 529 1386 q 585 1405 572 1386 q 604 1461 599 1424 l 714 1461 m 119 0 l 119 917 l 807 917 l 807 763 l 311 763 l 311 535 l 701 535 l 701 388 l 311 388 l 311 154 l 826 154 l 826 0 l 119 0 z "},"Ȅ":{"ha":879,"x_min":119,"x_max":826,"o":"m 119 0 l 119 917 l 807 917 l 807 763 l 311 763 l 311 535 l 701 535 l 701 388 l 311 388 l 311 154 l 826 154 l 826 0 l 119 0 m 308 1239 l 396 1014 l 254 1014 l 132 1239 l 308 1239 m 594 1239 l 682 1014 l 542 1014 l 419 1239 l 594 1239 z "},"Ë":{"ha":879,"x_min":119,"x_max":826,"o":"m 119 0 l 119 917 l 807 917 l 807 763 l 311 763 l 311 535 l 701 535 l 701 388 l 311 388 l 311 154 l 826 154 l 826 0 l 119 0 m 317 1201 q 394 1176 365 1201 q 422 1104 422 1150 q 394 1033 422 1060 q 317 1007 365 1007 q 242 1033 269 1007 q 214 1104 214 1060 q 242 1176 214 1150 q 317 1201 269 1201 m 608 1201 q 686 1176 658 1201 q 714 1104 714 1150 q 686 1033 714 1060 q 608 1007 658 1007 q 533 1033 561 1007 q 506 1104 506 1060 q 533 1176 506 1150 q 608 1201 561 1201 z "},"Ė":{"ha":879,"x_min":119,"x_max":826,"o":"m 119 0 l 119 917 l 807 917 l 807 763 l 311 763 l 311 535 l 701 535 l 701 388 l 311 388 l 311 154 l 826 154 l 826 0 l 119 0 m 464 1222 q 547 1195 518 1222 q 576 1121 576 1168 q 547 1046 576 1072 q 464 1019 518 1019 q 382 1046 411 1019 q 353 1121 353 1072 q 382 1195 353 1168 q 464 1222 411 1222 z "},"Ẹ":{"ha":879,"x_min":119,"x_max":826,"o":"m 119 0 l 119 917 l 807 917 l 807 763 l 311 763 l 311 535 l 701 535 l 701 388 l 311 388 l 311 154 l 826 154 l 826 0 l 119 0 m 479 -306 q 397 -278 426 -306 q 368 -204 368 -251 q 397 -129 368 -156 q 479 -103 426 -103 q 563 -129 533 -103 q 592 -204 592 -156 q 563 -278 592 -251 q 479 -306 533 -306 z "},"È":{"ha":879,"x_min":119,"x_max":826,"o":"m 119 0 l 119 917 l 807 917 l 807 763 l 311 763 l 311 535 l 701 535 l 701 388 l 311 388 l 311 154 l 826 154 l 826 0 l 119 0 m 461 1239 l 549 1014 l 408 1014 l 286 1239 l 461 1239 z "},"Ẻ":{"ha":879,"x_min":119,"x_max":826,"o":"m 119 0 l 119 917 l 807 917 l 807 763 l 311 763 l 311 535 l 701 535 l 701 388 l 311 388 l 311 154 l 826 154 l 826 0 l 119 0 m 465 979 l 419 1040 q 474 1076 457 1058 q 490 1118 490 1094 q 478 1152 490 1139 q 442 1165 465 1165 q 408 1156 421 1165 q 383 1125 394 1146 l 292 1175 q 353 1250 310 1224 q 458 1276 397 1276 q 535 1260 500 1276 q 590 1215 569 1244 q 610 1143 610 1185 q 590 1067 610 1100 q 537 1013 569 1035 q 465 979 504 992 z "},"Ȇ":{"ha":879,"x_min":119,"x_max":826,"o":"m 119 0 l 119 917 l 807 917 l 807 763 l 311 763 l 311 535 l 701 535 l 701 388 l 311 388 l 311 154 l 826 154 l 826 0 l 119 0 m 688 1004 l 558 1004 q 535 1078 558 1049 q 464 1108 511 1108 q 394 1078 418 1108 q 369 1004 369 1049 l 240 1004 q 301 1163 240 1104 q 464 1222 363 1222 q 627 1163 567 1222 q 688 1004 688 1104 z "},"Ē":{"ha":879,"x_min":119,"x_max":826,"o":"m 119 0 l 119 917 l 807 917 l 807 763 l 311 763 l 311 535 l 701 535 l 701 388 l 311 388 l 311 154 l 826 154 l 826 0 l 119 0 m 707 1153 l 707 1026 l 221 1026 l 221 1153 l 707 1153 z "},"Ḗ":{"ha":879,"x_min":119,"x_max":826,"o":"m 119 0 l 119 917 l 807 917 l 807 763 l 311 763 l 311 535 l 701 535 l 701 388 l 311 388 l 311 154 l 826 154 l 826 0 l 119 0 m 707 1153 l 707 1026 l 221 1026 l 221 1153 l 707 1153 m 467 1472 l 642 1472 l 519 1247 l 379 1247 l 467 1472 z "},"Ḕ":{"ha":879,"x_min":119,"x_max":826,"o":"m 119 0 l 119 917 l 807 917 l 807 763 l 311 763 l 311 535 l 701 535 l 701 388 l 311 388 l 311 154 l 826 154 l 826 0 l 119 0 m 707 1153 l 707 1026 l 221 1026 l 221 1153 l 707 1153 m 461 1472 l 549 1247 l 408 1247 l 286 1472 l 461 1472 z "},"Ę":{"ha":879,"x_min":119,"x_max":829,"o":"m 697 -312 q 603 -295 644 -312 q 539 -244 563 -278 q 515 -164 515 -211 q 581 -37 515 -85 q 760 39 647 10 l 828 0 q 690 -64 729 -31 q 651 -133 651 -97 q 674 -183 651 -165 q 733 -200 697 -200 q 769 -197 750 -200 q 801 -185 788 -193 l 829 -283 q 770 -306 804 -299 q 697 -312 736 -312 m 119 0 l 119 917 l 807 917 l 807 763 l 311 763 l 311 535 l 701 535 l 701 388 l 311 388 l 311 154 l 826 154 l 826 0 l 119 0 z "},"Ǝ":{"ha":879,"x_min":53,"x_max":760,"o":"m 760 0 l 53 0 l 53 154 l 568 154 l 568 388 l 178 388 l 178 535 l 568 535 l 568 763 l 72 763 l 72 917 l 760 917 l 760 0 z "},"Ẽ":{"ha":879,"x_min":119,"x_max":826,"o":"m 119 0 l 119 917 l 807 917 l 807 763 l 311 763 l 311 535 l 701 535 l 701 388 l 311 388 l 311 154 l 826 154 l 826 0 l 119 0 m 729 1219 q 705 1103 726 1150 q 647 1034 683 1057 q 564 1011 611 1011 q 497 1024 525 1011 q 449 1053 469 1038 q 410 1083 429 1069 q 371 1096 392 1096 q 331 1074 344 1096 q 313 1011 318 1053 l 196 1011 q 247 1167 201 1115 q 368 1219 292 1219 q 433 1206 406 1219 q 479 1176 460 1193 q 516 1147 499 1160 q 554 1135 533 1135 q 595 1156 582 1135 q 613 1219 608 1178 l 729 1219 z "},"F":{"ha":850,"x_min":119,"x_max":806,"o":"m 806 763 l 311 763 l 311 531 l 701 531 l 701 375 l 311 375 l 311 0 l 119 0 l 119 917 l 806 917 l 806 763 z "},"G":{"ha":1004,"x_min":74,"x_max":913,"o":"m 496 -14 q 274 42 369 -14 q 126 203 179 97 q 74 457 74 308 q 129 710 74 604 q 286 874 185 817 q 524 931 388 931 q 764 876 672 931 q 910 706 856 821 l 732 629 q 656 738 710 703 q 525 774 603 774 q 390 737 447 774 q 303 630 333 700 q 272 458 272 560 q 301 283 272 354 q 388 176 331 211 q 531 140 446 140 q 616 151 576 140 q 685 185 656 163 q 731 242 714 207 q 747 322 747 276 l 747 343 l 507 343 l 507 483 l 913 483 l 913 0 l 778 0 l 764 200 l 797 176 q 690 35 767 85 q 496 -14 613 -14 z "},"Ğ":{"ha":1004,"x_min":74,"x_max":913,"o":"m 496 -14 q 274 42 369 -14 q 126 203 179 97 q 74 457 74 308 q 129 710 74 604 q 286 874 185 817 q 524 931 388 931 q 764 876 672 931 q 910 706 856 821 l 732 629 q 656 738 710 703 q 525 774 603 774 q 390 737 447 774 q 303 630 333 700 q 272 458 272 560 q 301 283 272 354 q 388 176 331 211 q 531 140 446 140 q 616 151 576 140 q 685 185 656 163 q 731 242 714 207 q 747 322 747 276 l 747 343 l 507 343 l 507 483 l 913 483 l 913 0 l 778 0 l 764 200 l 797 176 q 690 35 767 85 q 496 -14 613 -14 m 738 1222 q 677 1063 738 1122 q 514 1004 617 1004 q 351 1063 413 1004 q 290 1222 290 1122 l 419 1222 q 444 1148 419 1178 q 514 1118 468 1118 q 585 1148 561 1118 q 608 1222 608 1178 l 738 1222 z "},"Ǧ":{"ha":1004,"x_min":74,"x_max":913,"o":"m 496 -14 q 274 42 369 -14 q 126 203 179 97 q 74 457 74 308 q 129 710 74 604 q 286 874 185 817 q 524 931 388 931 q 764 876 672 931 q 910 706 856 821 l 732 629 q 656 738 710 703 q 525 774 603 774 q 390 737 447 774 q 303 630 333 700 q 272 458 272 560 q 301 283 272 354 q 388 176 331 211 q 531 140 446 140 q 616 151 576 140 q 685 185 656 163 q 731 242 714 207 q 747 322 747 276 l 747 343 l 507 343 l 507 483 l 913 483 l 913 0 l 778 0 l 764 200 l 797 176 q 690 35 767 85 q 496 -14 613 -14 m 754 1239 l 610 1014 l 418 1014 l 274 1239 l 417 1239 l 514 1104 l 611 1239 l 754 1239 z "},"Ĝ":{"ha":1004,"x_min":74,"x_max":913,"o":"m 496 -14 q 274 42 369 -14 q 126 203 179 97 q 74 457 74 308 q 129 710 74 604 q 286 874 185 817 q 524 931 388 931 q 764 876 672 931 q 910 706 856 821 l 732 629 q 656 738 710 703 q 525 774 603 774 q 390 737 447 774 q 303 630 333 700 q 272 458 272 560 q 301 283 272 354 q 388 176 331 211 q 531 140 446 140 q 616 151 576 140 q 685 185 656 163 q 731 242 714 207 q 747 322 747 276 l 747 343 l 507 343 l 507 483 l 913 483 l 913 0 l 778 0 l 764 200 l 797 176 q 690 35 767 85 q 496 -14 613 -14 m 754 1014 l 611 1014 l 514 1150 l 417 1014 l 274 1014 l 418 1239 l 610 1239 l 754 1014 z "},"Ģ":{"ha":1004,"x_min":74,"x_max":913,"o":"m 496 -14 q 274 42 369 -14 q 126 203 179 97 q 74 457 74 308 q 129 710 74 604 q 286 874 185 817 q 524 931 388 931 q 764 876 672 931 q 910 706 856 821 l 732 629 q 656 738 710 703 q 525 774 603 774 q 390 737 447 774 q 303 630 333 700 q 272 458 272 560 q 301 283 272 354 q 388 176 331 211 q 531 140 446 140 q 616 151 576 140 q 685 185 656 163 q 731 242 714 207 q 747 322 747 276 l 747 343 l 507 343 l 507 483 l 913 483 l 913 0 l 778 0 l 764 200 l 797 176 q 690 35 767 85 q 496 -14 613 -14 m 643 -92 l 547 -332 l 418 -332 l 469 -92 l 643 -92 z "},"Ġ":{"ha":1004,"x_min":74,"x_max":913,"o":"m 496 -14 q 274 42 369 -14 q 126 203 179 97 q 74 457 74 308 q 129 710 74 604 q 286 874 185 817 q 524 931 388 931 q 764 876 672 931 q 910 706 856 821 l 732 629 q 656 738 710 703 q 525 774 603 774 q 390 737 447 774 q 303 630 333 700 q 272 458 272 560 q 301 283 272 354 q 388 176 331 211 q 531 140 446 140 q 616 151 576 140 q 685 185 656 163 q 731 242 714 207 q 747 322 747 276 l 747 343 l 507 343 l 507 483 l 913 483 l 913 0 l 778 0 l 764 200 l 797 176 q 690 35 767 85 q 496 -14 613 -14 m 514 1222 q 597 1195 568 1222 q 626 1121 626 1168 q 597 1046 626 1072 q 514 1019 568 1019 q 432 1046 461 1019 q 403 1121 403 1072 q 432 1195 403 1168 q 514 1222 461 1222 z "},"Ɂ":{"ha":815,"x_min":33,"x_max":779,"o":"m 425 931 q 609 893 529 931 q 734 788 689 856 q 779 631 779 721 q 741 457 779 524 q 640 353 703 390 q 499 300 576 317 l 499 0 l 313 0 l 313 408 q 468 447 411 419 q 549 520 525 475 q 572 628 572 565 q 551 703 572 671 q 494 753 531 735 q 411 771 458 771 q 276 724 328 771 q 214 589 225 676 l 33 658 q 99 799 51 738 q 228 896 147 861 q 425 931 308 931 z "},"Ḡ":{"ha":1004,"x_min":74,"x_max":913,"o":"m 496 -14 q 274 42 369 -14 q 126 203 179 97 q 74 457 74 308 q 129 710 74 604 q 286 874 185 817 q 524 931 388 931 q 764 876 672 931 q 910 706 856 821 l 732 629 q 656 738 710 703 q 525 774 603 774 q 390 737 447 774 q 303 630 333 700 q 272 458 272 560 q 301 283 272 354 q 388 176 331 211 q 531 140 446 140 q 616 151 576 140 q 685 185 656 163 q 731 242 714 207 q 747 322 747 276 l 747 343 l 507 343 l 507 483 l 913 483 l 913 0 l 778 0 l 764 200 l 797 176 q 690 35 767 85 q 496 -14 613 -14 m 757 1153 l 757 1026 l 271 1026 l 271 1153 l 757 1153 z "},"H":{"ha":1026,"x_min":119,"x_max":907,"o":"m 907 917 l 907 0 l 715 0 l 715 917 l 907 917 m 311 917 l 311 0 l 119 0 l 119 917 l 311 917 m 815 540 l 815 386 l 215 386 l 215 540 l 815 540 z "},"Ħ":{"ha":1026,"x_min":17,"x_max":1010,"o":"m 907 917 l 907 0 l 715 0 l 715 917 l 907 917 m 311 917 l 311 0 l 119 0 l 119 917 l 311 917 m 815 540 l 815 386 l 215 386 l 215 540 l 815 540 m 1010 785 l 1010 665 l 17 665 l 17 785 l 1010 785 z "},"Ḫ":{"ha":1026,"x_min":119,"x_max":907,"o":"m 907 917 l 907 0 l 715 0 l 715 917 l 907 917 m 311 917 l 311 0 l 119 0 l 119 917 l 311 917 m 815 540 l 815 386 l 215 386 l 215 540 l 815 540 m 738 -87 q 677 -247 738 -187 q 514 -306 617 -306 q 351 -247 413 -306 q 290 -87 290 -187 l 419 -87 q 444 -162 419 -132 q 514 -192 468 -192 q 585 -162 561 -192 q 608 -87 608 -132 l 738 -87 z "},"Ĥ":{"ha":1026,"x_min":119,"x_max":907,"o":"m 907 917 l 907 0 l 715 0 l 715 917 l 907 917 m 311 917 l 311 0 l 119 0 l 119 917 l 311 917 m 815 540 l 815 386 l 215 386 l 215 540 l 815 540 m 754 1014 l 611 1014 l 514 1150 l 417 1014 l 274 1014 l 418 1239 l 610 1239 l 754 1014 z "},"Ḥ":{"ha":1026,"x_min":119,"x_max":907,"o":"m 907 917 l 907 0 l 715 0 l 715 917 l 907 917 m 311 917 l 311 0 l 119 0 l 119 917 l 311 917 m 815 540 l 815 386 l 215 386 l 215 540 l 815 540 m 514 -306 q 432 -278 461 -306 q 403 -204 403 -251 q 432 -129 403 -156 q 514 -103 461 -103 q 597 -129 568 -103 q 626 -204 626 -156 q 597 -278 626 -251 q 514 -306 568 -306 z "},"I":{"ha":431,"x_min":119,"x_max":311,"o":"m 311 917 l 311 0 l 119 0 l 119 917 l 311 917 z "},"Ĳ":{"ha":1263,"x_min":119,"x_max":1157,"o":"m 311 917 l 311 0 l 119 0 l 119 917 l 311 917 m 1157 917 l 1157 338 q 1064 79 1157 172 q 800 -14 971 -14 q 601 31 678 -14 q 496 156 525 75 q 485 340 467 236 l 671 374 q 686 197 654 251 q 804 143 718 143 q 930 199 894 143 q 965 364 965 254 l 965 917 l 1157 917 z "},"Í":{"ha":431,"x_min":119,"x_max":401,"o":"m 311 917 l 311 0 l 119 0 l 119 917 l 311 917 m 226 1239 l 401 1239 l 279 1014 l 139 1014 l 226 1239 z "},"Ĭ":{"ha":431,"x_min":-8,"x_max":439,"o":"m 311 917 l 311 0 l 119 0 l 119 917 l 311 917 m 439 1222 q 378 1063 439 1122 q 215 1004 318 1004 q 53 1063 114 1004 q -8 1222 -8 1122 l 121 1222 q 145 1148 121 1178 q 215 1118 169 1118 q 286 1148 263 1118 q 310 1222 310 1178 l 439 1222 z "},"Î":{"ha":431,"x_min":-25,"x_max":454,"o":"m 311 917 l 311 0 l 119 0 l 119 917 l 311 917 m 456 1014 l 313 1014 l 215 1150 l 118 1014 l -25 1014 l 119 1239 l 311 1239 l 456 1014 z "},"Ȉ":{"ha":431,"x_min":-117,"x_max":433,"o":"m 311 917 l 311 0 l 119 0 l 119 917 l 311 917 m 60 1239 l 147 1014 l 6 1014 l -117 1239 l 60 1239 m 346 1239 l 433 1014 l 293 1014 l 171 1239 l 346 1239 z "},"Ï":{"ha":431,"x_min":-19,"x_max":450,"o":"m 81 1201 q 156 1176 129 1201 q 183 1104 183 1150 q 156 1033 183 1060 q 81 1007 129 1007 q 8 1033 35 1007 q -19 1104 -19 1060 q 8 1176 -19 1150 q 81 1201 35 1201 m 347 1201 q 423 1176 396 1201 q 450 1104 450 1150 q 423 1033 450 1060 q 347 1007 396 1007 q 274 1033 301 1007 q 247 1104 247 1060 q 274 1176 247 1150 q 347 1201 301 1201 m 311 917 l 311 0 l 119 0 l 119 917 l 311 917 z "},"Ḯ":{"ha":431,"x_min":-35,"x_max":465,"o":"m 311 917 l 311 0 l 119 0 l 119 917 l 311 917 m 68 1201 q 145 1176 117 1201 q 174 1104 174 1150 q 145 1033 174 1060 q 68 1007 117 1007 q -7 1033 21 1007 q -35 1104 -35 1060 q -7 1176 -35 1150 q 68 1201 21 1201 m 360 1201 q 438 1176 410 1201 q 465 1104 465 1150 q 438 1033 465 1060 q 360 1007 410 1007 q 285 1033 313 1007 q 257 1104 257 1060 q 285 1176 257 1150 q 360 1201 313 1201 m 218 1492 l 393 1492 l 271 1267 l 131 1267 l 218 1492 z "},"İ":{"ha":431,"x_min":104,"x_max":328,"o":"m 311 917 l 311 0 l 119 0 l 119 917 l 311 917 m 215 1222 q 299 1195 269 1222 q 328 1121 328 1168 q 299 1046 328 1072 q 215 1019 269 1019 q 133 1046 163 1019 q 104 1121 104 1072 q 133 1195 104 1168 q 215 1222 163 1222 z "},"Ị":{"ha":431,"x_min":104,"x_max":328,"o":"m 311 917 l 311 0 l 119 0 l 119 917 l 311 917 m 215 -306 q 133 -278 163 -306 q 104 -204 104 -251 q 133 -129 104 -156 q 215 -103 163 -103 q 299 -129 269 -103 q 328 -204 328 -156 q 299 -278 328 -251 q 215 -306 269 -306 z "},"Ì":{"ha":431,"x_min":28,"x_max":311,"o":"m 311 917 l 311 0 l 119 0 l 119 917 l 311 917 m 204 1239 l 292 1014 l 151 1014 l 29 1239 l 204 1239 z "},"Ỉ":{"ha":431,"x_min":42,"x_max":361,"o":"m 311 917 l 311 0 l 119 0 l 119 917 l 311 917 m 217 979 l 171 1040 q 225 1076 208 1058 q 242 1118 242 1094 q 229 1152 242 1139 q 193 1165 217 1165 q 159 1156 172 1165 q 135 1125 146 1146 l 43 1175 q 105 1250 61 1224 q 210 1276 149 1276 q 286 1260 251 1276 q 341 1215 321 1244 q 361 1143 361 1185 q 341 1067 361 1100 q 288 1013 321 1035 q 217 979 256 992 z "},"Ȋ":{"ha":431,"x_min":-8,"x_max":439,"o":"m 311 917 l 311 0 l 119 0 l 119 917 l 311 917 m 439 1004 l 310 1004 q 286 1078 310 1049 q 215 1108 263 1108 q 145 1078 169 1108 q 121 1004 121 1049 l -8 1004 q 53 1163 -8 1104 q 215 1222 114 1222 q 378 1163 318 1222 q 439 1004 439 1104 z "},"Ī":{"ha":431,"x_min":35,"x_max":394,"o":"m 394 1153 l 394 1026 l 35 1026 l 35 1153 l 394 1153 m 311 917 l 311 0 l 119 0 l 119 917 l 311 917 z "},"Į":{"ha":431,"x_min":21,"x_max":331,"o":"m 204 -318 q 114 -301 156 -318 q 47 -251 72 -285 q 21 -164 21 -217 q 48 -65 21 -104 q 123 1 75 -26 q 231 47 171 28 l 311 0 q 200 -69 235 -36 q 165 -139 165 -101 q 184 -187 165 -169 q 240 -204 203 -204 q 274 -201 256 -204 q 303 -192 292 -197 l 331 -289 q 276 -310 307 -303 q 204 -318 244 -318 m 311 917 l 311 0 l 119 0 l 119 917 l 311 917 z "},"Ĩ":{"ha":431,"x_min":-53,"x_max":481,"o":"m 311 917 l 311 0 l 119 0 l 119 917 l 311 917 m 481 1219 q 456 1103 478 1150 q 399 1034 435 1057 q 315 1011 363 1011 q 249 1024 276 1011 q 201 1053 221 1038 q 162 1083 181 1069 q 122 1096 143 1096 q 83 1074 96 1096 q 64 1011 69 1053 l -53 1011 q -2 1167 -47 1115 q 119 1219 43 1219 q 184 1206 157 1219 q 231 1176 211 1193 q 267 1147 250 1160 q 306 1135 285 1135 q 347 1156 333 1135 q 364 1219 360 1178 l 481 1219 z "},"J":{"ha":832,"x_min":36,"x_max":726,"o":"m 726 917 l 726 338 q 633 79 726 172 q 369 -14 540 -14 q 171 31 247 -14 q 65 156 94 75 q 54 340 36 236 l 240 374 q 256 197 224 251 q 374 143 288 143 q 499 199 464 143 q 535 364 535 254 l 535 917 l 726 917 z "},"Ĵ":{"ha":832,"x_min":36,"x_max":871,"o":"m 726 917 l 726 338 q 633 79 726 172 q 369 -14 540 -14 q 171 31 247 -14 q 65 156 94 75 q 54 340 36 236 l 240 374 q 256 197 224 251 q 374 143 288 143 q 499 199 464 143 q 535 364 535 254 l 535 917 l 726 917 m 871 1014 l 728 1014 l 631 1150 l 533 1014 l 390 1014 l 535 1239 l 726 1239 l 871 1014 z "},"K":{"ha":943,"x_min":119,"x_max":921,"o":"m 910 917 l 490 440 l 475 456 l 246 196 l 217 374 l 688 917 l 910 917 m 311 917 l 311 0 l 119 0 l 119 917 l 311 917 m 543 600 l 921 0 l 701 0 l 396 493 l 543 600 z "},"Ķ":{"ha":943,"x_min":119,"x_max":921,"o":"m 910 917 l 490 440 l 475 456 l 246 196 l 217 374 l 688 917 l 910 917 m 311 917 l 311 0 l 119 0 l 119 917 l 311 917 m 543 600 l 921 0 l 701 0 l 396 493 l 543 600 m 604 -92 l 508 -332 l 379 -332 l 431 -92 l 604 -92 z "},"L":{"ha":835,"x_min":119,"x_max":794,"o":"m 311 154 l 794 154 l 794 0 l 119 0 l 119 917 l 311 917 l 311 154 z "},"Ǉ":{"ha":1667,"x_min":119,"x_max":1561,"o":"m 311 154 l 794 154 l 794 0 l 119 0 l 119 917 l 311 917 l 311 154 m 1561 917 l 1561 338 q 1468 79 1561 172 q 1204 -14 1375 -14 q 1006 31 1082 -14 q 900 156 929 75 q 889 340 871 236 l 1075 374 q 1090 197 1058 251 q 1208 143 1122 143 q 1334 199 1299 143 q 1369 364 1369 254 l 1369 917 l 1561 917 z "},"Ĺ":{"ha":835,"x_min":119,"x_max":794,"o":"m 311 154 l 794 154 l 794 0 l 119 0 l 119 917 l 311 917 l 311 154 m 218 1239 l 393 1239 l 271 1014 l 131 1014 l 218 1239 z "},"Ľ":{"ha":835,"x_min":119,"x_max":794,"o":"m 676 917 l 603 606 l 475 606 l 507 917 l 676 917 m 311 154 l 794 154 l 794 0 l 119 0 l 119 917 l 311 917 l 311 154 z "},"Ļ":{"ha":835,"x_min":119,"x_max":794,"o":"m 311 154 l 794 154 l 794 0 l 119 0 l 119 917 l 311 917 l 311 154 m 574 -92 l 478 -332 l 349 -332 l 400 -92 l 574 -92 z "},"Ŀ":{"ha":881,"x_min":119,"x_max":794,"o":"m 311 154 l 794 154 l 794 0 l 119 0 l 119 917 l 311 917 l 311 154 m 664 624 q 752 593 719 624 q 785 511 785 563 q 752 428 785 458 q 664 399 719 399 q 576 428 608 399 q 543 511 543 458 q 576 593 543 563 q 664 624 608 624 z "},"Ḷ":{"ha":835,"x_min":119,"x_max":794,"o":"m 311 154 l 794 154 l 794 0 l 119 0 l 119 917 l 311 917 l 311 154 m 479 -306 q 397 -278 426 -306 q 368 -204 368 -251 q 397 -129 368 -156 q 479 -103 426 -103 q 563 -129 533 -103 q 592 -204 592 -156 q 563 -278 592 -251 q 479 -306 533 -306 z "},"ǈ":{"ha":1226,"x_min":119,"x_max":1147,"o":"m 311 154 l 794 154 l 794 0 l 119 0 l 119 917 l 311 917 l 311 154 m 1031 794 q 942 820 971 794 q 913 896 913 846 q 942 973 913 947 q 1031 999 971 999 q 1119 973 1090 999 q 1149 896 1149 947 q 1119 820 1149 846 q 1031 794 1090 794 m 1125 694 l 1125 -51 q 1092 -196 1125 -142 q 1004 -274 1060 -250 q 878 -299 949 -299 q 785 -287 826 -299 q 711 -254 743 -275 l 742 -118 q 783 -141 758 -132 q 839 -150 808 -150 q 908 -124 882 -150 q 935 -33 935 -99 l 935 694 l 1125 694 z "},"Ḻ":{"ha":835,"x_min":119,"x_max":794,"o":"m 311 154 l 794 154 l 794 0 l 119 0 l 119 917 l 311 917 l 311 154 m 722 -110 l 722 -236 l 236 -236 l 236 -110 l 722 -110 z "},"Ł":{"ha":907,"x_min":42,"x_max":868,"o":"m 625 692 l 625 539 l 42 246 l 42 399 l 625 692 m 385 154 l 868 154 l 868 0 l 193 0 l 193 917 l 385 917 l 385 154 z "},"M":{"ha":1236,"x_min":119,"x_max":1117,"o":"m 1117 917 l 1117 0 l 944 0 l 944 478 l 953 746 l 950 746 l 696 0 l 539 0 l 286 746 l 283 746 l 293 478 l 293 0 l 119 0 l 119 917 l 397 917 l 563 417 l 621 210 l 624 210 l 683 415 l 847 917 l 1117 917 z "},"Ṃ":{"ha":1236,"x_min":119,"x_max":1117,"o":"m 1117 917 l 1117 0 l 944 0 l 944 478 l 953 746 l 950 746 l 696 0 l 539 0 l 286 746 l 283 746 l 293 478 l 293 0 l 119 0 l 119 917 l 397 917 l 563 417 l 621 210 l 624 210 l 683 415 l 847 917 l 1117 917 m 618 -306 q 536 -278 565 -306 q 507 -204 507 -251 q 536 -129 507 -156 q 618 -103 565 -103 q 701 -129 672 -103 q 731 -204 731 -156 q 701 -278 731 -251 q 618 -306 672 -306 z "},"N":{"ha":1026,"x_min":119,"x_max":907,"o":"m 907 917 l 907 0 l 688 0 l 367 539 l 288 689 l 286 689 l 292 531 l 292 0 l 119 0 l 119 917 l 338 917 l 658 379 l 738 228 l 740 228 l 735 386 l 735 917 l 907 917 z "},"Ǌ":{"ha":1858,"x_min":119,"x_max":1753,"o":"m 907 917 l 907 0 l 688 0 l 367 539 l 288 689 l 286 689 l 292 531 l 292 0 l 119 0 l 119 917 l 338 917 l 658 379 l 738 228 l 740 228 l 735 386 l 735 917 l 907 917 m 1753 917 l 1753 338 q 1660 79 1753 172 q 1396 -14 1567 -14 q 1197 31 1274 -14 q 1092 156 1121 75 q 1081 340 1063 236 l 1267 374 q 1282 197 1250 251 q 1400 143 1314 143 q 1526 199 1490 143 q 1561 364 1561 254 l 1561 917 l 1753 917 z "},"Ń":{"ha":1026,"x_min":119,"x_max":907,"o":"m 907 917 l 907 0 l 688 0 l 367 539 l 288 689 l 286 689 l 292 531 l 292 0 l 119 0 l 119 917 l 338 917 l 658 379 l 738 228 l 740 228 l 735 386 l 735 917 l 907 917 m 519 1239 l 694 1239 l 572 1014 l 432 1014 l 519 1239 z "},"Ň":{"ha":1026,"x_min":119,"x_max":907,"o":"m 907 917 l 907 0 l 688 0 l 367 539 l 288 689 l 286 689 l 292 531 l 292 0 l 119 0 l 119 917 l 338 917 l 658 379 l 738 228 l 740 228 l 735 386 l 735 917 l 907 917 m 757 1239 l 613 1014 l 421 1014 l 276 1239 l 419 1239 l 517 1104 l 614 1239 l 757 1239 z "},"Ņ":{"ha":1026,"x_min":119,"x_max":907,"o":"m 907 917 l 907 0 l 688 0 l 367 539 l 288 689 l 286 689 l 292 531 l 292 0 l 119 0 l 119 917 l 338 917 l 658 379 l 738 228 l 740 228 l 735 386 l 735 917 l 907 917 m 633 -92 l 538 -332 l 408 -332 l 460 -92 l 633 -92 z "},"Ṅ":{"ha":1026,"x_min":119,"x_max":907,"o":"m 907 917 l 907 0 l 688 0 l 367 539 l 288 689 l 286 689 l 292 531 l 292 0 l 119 0 l 119 917 l 338 917 l 658 379 l 738 228 l 740 228 l 735 386 l 735 917 l 907 917 m 517 1222 q 600 1195 571 1222 q 629 1121 629 1168 q 600 1046 629 1072 q 517 1019 571 1019 q 435 1046 464 1019 q 406 1121 406 1072 q 435 1195 406 1168 q 517 1222 464 1222 z "},"Ṇ":{"ha":1026,"x_min":119,"x_max":907,"o":"m 907 917 l 907 0 l 688 0 l 367 539 l 288 689 l 286 689 l 292 531 l 292 0 l 119 0 l 119 917 l 338 917 l 658 379 l 738 228 l 740 228 l 735 386 l 735 917 l 907 917 m 539 -306 q 457 -278 486 -306 q 428 -204 428 -251 q 457 -129 428 -156 q 539 -103 486 -103 q 622 -129 593 -103 q 651 -204 651 -156 q 622 -278 651 -251 q 539 -306 593 -306 z "},"Ŋ":{"ha":1026,"x_min":119,"x_max":907,"o":"m 671 -299 q 581 -287 621 -299 q 511 -258 542 -276 l 539 -115 q 583 -139 557 -129 q 642 -149 608 -149 q 708 -123 682 -149 q 735 -33 735 -97 l 735 7 l 369 546 l 288 693 l 286 693 l 292 531 l 292 0 l 119 0 l 119 917 l 338 917 l 671 415 l 733 299 l 735 299 l 735 917 l 907 917 l 907 -51 q 875 -196 907 -142 q 790 -274 843 -250 q 671 -299 736 -299 z "},"ǋ":{"ha":1418,"x_min":119,"x_max":1339,"o":"m 907 917 l 907 0 l 688 0 l 367 539 l 288 689 l 286 689 l 292 531 l 292 0 l 119 0 l 119 917 l 338 917 l 658 379 l 738 228 l 740 228 l 735 386 l 735 917 l 907 917 m 1222 794 q 1133 820 1163 794 q 1104 896 1104 846 q 1133 973 1104 947 q 1222 999 1163 999 q 1311 973 1282 999 q 1340 896 1340 947 q 1311 820 1340 846 q 1222 794 1282 794 m 1317 694 l 1317 -51 q 1284 -196 1317 -142 q 1196 -274 1251 -250 q 1069 -299 1140 -299 q 976 -287 1018 -299 q 903 -254 935 -275 l 933 -118 q 975 -141 950 -132 q 1031 -150 1000 -150 q 1100 -124 1074 -150 q 1126 -33 1126 -99 l 1126 694 l 1317 694 z "},"Ṉ":{"ha":1026,"x_min":119,"x_max":907,"o":"m 907 917 l 907 0 l 688 0 l 367 539 l 288 689 l 286 689 l 292 531 l 292 0 l 119 0 l 119 917 l 338 917 l 658 379 l 738 228 l 740 228 l 735 386 l 735 917 l 907 917 m 782 -110 l 782 -236 l 296 -236 l 296 -110 l 782 -110 z "},"Ñ":{"ha":1026,"x_min":119,"x_max":907,"o":"m 907 917 l 907 0 l 688 0 l 367 539 l 288 689 l 286 689 l 292 531 l 292 0 l 119 0 l 119 917 l 338 917 l 658 379 l 738 228 l 740 228 l 735 386 l 735 917 l 907 917 m 782 1219 q 758 1103 779 1150 q 700 1034 736 1057 q 617 1011 664 1011 q 550 1024 578 1011 q 502 1053 522 1038 q 463 1083 482 1069 q 424 1096 444 1096 q 384 1074 397 1096 q 365 1011 371 1053 l 249 1011 q 299 1167 254 1115 q 421 1219 344 1219 q 485 1206 458 1219 q 532 1176 513 1193 q 569 1147 551 1160 q 607 1135 586 1135 q 648 1156 635 1135 q 665 1219 661 1178 l 782 1219 z "},"O":{"ha":1029,"x_min":74,"x_max":956,"o":"m 515 931 q 750 874 651 931 q 902 711 849 817 q 956 458 956 606 q 902 206 956 311 q 750 43 849 100 q 515 -14 651 -14 q 280 43 379 -14 q 127 206 181 100 q 74 458 74 311 q 127 711 74 606 q 280 874 181 817 q 515 931 379 931 m 515 774 q 384 738 439 774 q 301 631 329 701 q 272 458 272 560 q 301 286 272 357 q 384 179 329 215 q 515 143 439 143 q 646 179 592 143 q 728 286 700 215 q 757 458 757 357 q 728 631 757 560 q 646 738 700 701 q 515 774 592 774 z "},"Ó":{"ha":1029,"x_min":74,"x_max":956,"o":"m 515 931 q 750 874 651 931 q 902 711 849 817 q 956 458 956 606 q 902 206 956 311 q 750 43 849 100 q 515 -14 651 -14 q 280 43 379 -14 q 127 206 181 100 q 74 458 74 311 q 127 711 74 606 q 280 874 181 817 q 515 931 379 931 m 515 774 q 384 738 439 774 q 301 631 329 701 q 272 458 272 560 q 301 286 272 357 q 384 179 329 215 q 515 143 439 143 q 646 179 592 143 q 728 286 700 215 q 757 458 757 357 q 728 631 757 560 q 646 738 700 701 q 515 774 592 774 m 518 1239 l 693 1239 l 571 1014 l 431 1014 l 518 1239 z "},"Ŏ":{"ha":1029,"x_min":74,"x_max":956,"o":"m 515 931 q 750 874 651 931 q 902 711 849 817 q 956 458 956 606 q 902 206 956 311 q 750 43 849 100 q 515 -14 651 -14 q 280 43 379 -14 q 127 206 181 100 q 74 458 74 311 q 127 711 74 606 q 280 874 181 817 q 515 931 379 931 m 515 774 q 384 738 439 774 q 301 631 329 701 q 272 458 272 560 q 301 286 272 357 q 384 179 329 215 q 515 143 439 143 q 646 179 592 143 q 728 286 700 215 q 757 458 757 357 q 728 631 757 560 q 646 738 700 701 q 515 774 592 774 m 739 1222 q 678 1063 739 1122 q 515 1004 618 1004 q 353 1063 414 1004 q 292 1222 292 1122 l 421 1222 q 445 1148 421 1178 q 515 1118 469 1118 q 586 1148 563 1118 q 610 1222 610 1178 l 739 1222 z "},"Ô":{"ha":1029,"x_min":74,"x_max":956,"o":"m 515 931 q 750 874 651 931 q 902 711 849 817 q 956 458 956 606 q 902 206 956 311 q 750 43 849 100 q 515 -14 651 -14 q 280 43 379 -14 q 127 206 181 100 q 74 458 74 311 q 127 711 74 606 q 280 874 181 817 q 515 931 379 931 m 515 774 q 384 738 439 774 q 301 631 329 701 q 272 458 272 560 q 301 286 272 357 q 384 179 329 215 q 515 143 439 143 q 646 179 592 143 q 728 286 700 215 q 757 458 757 357 q 728 631 757 560 q 646 738 700 701 q 515 774 592 774 m 756 1014 l 613 1014 l 515 1150 l 418 1014 l 275 1014 l 419 1239 l 611 1239 l 756 1014 z "},"Ố":{"ha":1029,"x_min":74,"x_max":956,"o":"m 753 1007 l 615 1007 l 515 1140 l 414 1007 l 276 1007 l 425 1235 l 604 1235 l 753 1007 m 786 1360 l 944 1360 l 835 1158 l 707 1158 l 786 1360 m 515 931 q 750 874 651 931 q 902 711 849 817 q 956 458 956 606 q 902 206 956 311 q 750 43 849 100 q 515 -14 651 -14 q 280 43 379 -14 q 127 206 181 100 q 74 458 74 311 q 127 711 74 606 q 280 874 181 817 q 515 931 379 931 m 515 774 q 384 738 439 774 q 301 631 329 701 q 272 458 272 560 q 301 286 272 357 q 384 179 329 215 q 515 143 439 143 q 646 179 592 143 q 728 286 700 215 q 757 458 757 357 q 728 631 757 560 q 646 738 700 701 q 515 774 592 774 z "},"Ộ":{"ha":1029,"x_min":74,"x_max":956,"o":"m 515 931 q 750 874 651 931 q 902 711 849 817 q 956 458 956 606 q 902 206 956 311 q 750 43 849 100 q 515 -14 651 -14 q 280 43 379 -14 q 127 206 181 100 q 74 458 74 311 q 127 711 74 606 q 280 874 181 817 q 515 931 379 931 m 515 774 q 384 738 439 774 q 301 631 329 701 q 272 458 272 560 q 301 286 272 357 q 384 179 329 215 q 515 143 439 143 q 646 179 592 143 q 728 286 700 215 q 757 458 757 357 q 728 631 757 560 q 646 738 700 701 q 515 774 592 774 m 515 -306 q 433 -278 463 -306 q 404 -204 404 -251 q 433 -129 404 -156 q 515 -103 463 -103 q 599 -129 569 -103 q 628 -204 628 -156 q 599 -278 628 -251 q 515 -306 569 -306 m 756 1014 l 613 1014 l 515 1150 l 418 1014 l 275 1014 l 419 1239 l 611 1239 l 756 1014 z "},"Ồ":{"ha":1029,"x_min":74,"x_max":956,"o":"m 753 1007 l 615 1007 l 515 1140 l 414 1007 l 276 1007 l 425 1235 l 604 1235 l 753 1007 m 782 1360 l 861 1158 l 733 1158 l 624 1360 l 782 1360 m 515 931 q 750 874 651 931 q 902 711 849 817 q 956 458 956 606 q 902 206 956 311 q 750 43 849 100 q 515 -14 651 -14 q 280 43 379 -14 q 127 206 181 100 q 74 458 74 311 q 127 711 74 606 q 280 874 181 817 q 515 931 379 931 m 515 774 q 384 738 439 774 q 301 631 329 701 q 272 458 272 560 q 301 286 272 357 q 384 179 329 215 q 515 143 439 143 q 646 179 592 143 q 728 286 700 215 q 757 458 757 357 q 728 631 757 560 q 646 738 700 701 q 515 774 592 774 z "},"Ổ":{"ha":1029,"x_min":74,"x_max":956,"o":"m 753 1007 l 615 1007 l 515 1140 l 414 1007 l 276 1007 l 425 1235 l 604 1235 l 753 1007 m 753 1133 l 706 1193 q 761 1229 744 1211 q 778 1272 778 1247 q 765 1305 778 1292 q 728 1318 753 1318 q 694 1308 708 1318 q 671 1279 681 1299 l 579 1328 q 641 1403 597 1376 q 746 1431 685 1431 q 822 1414 788 1431 q 876 1367 856 1397 q 897 1296 897 1338 q 877 1222 897 1254 q 824 1167 857 1189 q 753 1133 792 1146 m 515 931 q 750 874 651 931 q 902 711 849 817 q 956 458 956 606 q 902 206 956 311 q 750 43 849 100 q 515 -14 651 -14 q 280 43 379 -14 q 127 206 181 100 q 74 458 74 311 q 127 711 74 606 q 280 874 181 817 q 515 931 379 931 m 515 774 q 384 738 439 774 q 301 631 329 701 q 272 458 272 560 q 301 286 272 357 q 384 179 329 215 q 515 143 439 143 q 646 179 592 143 q 728 286 700 215 q 757 458 757 357 q 728 631 757 560 q 646 738 700 701 q 515 774 592 774 z "},"Ỗ":{"ha":1029,"x_min":74,"x_max":956,"o":"m 753 1007 l 615 1007 l 515 1140 l 414 1007 l 276 1007 l 425 1235 l 604 1235 l 753 1007 m 765 1461 q 716 1316 760 1363 q 608 1269 672 1269 q 545 1281 571 1269 q 501 1308 519 1293 q 465 1335 482 1324 q 429 1347 449 1347 q 392 1328 404 1347 q 374 1272 379 1310 l 264 1272 q 313 1417 269 1371 q 426 1464 357 1464 q 488 1452 463 1464 q 531 1425 513 1440 q 565 1398 549 1410 q 600 1386 581 1386 q 636 1405 624 1386 q 654 1461 649 1424 l 765 1461 m 515 931 q 750 874 651 931 q 902 711 849 817 q 956 458 956 606 q 902 206 956 311 q 750 43 849 100 q 515 -14 651 -14 q 280 43 379 -14 q 127 206 181 100 q 74 458 74 311 q 127 711 74 606 q 280 874 181 817 q 515 931 379 931 m 515 774 q 384 738 439 774 q 301 631 329 701 q 272 458 272 560 q 301 286 272 357 q 384 179 329 215 q 515 143 439 143 q 646 179 592 143 q 728 286 700 215 q 757 458 757 357 q 728 631 757 560 q 646 738 700 701 q 515 774 592 774 z "},"Ȍ":{"ha":1029,"x_min":74,"x_max":956,"o":"m 515 931 q 750 874 651 931 q 902 711 849 817 q 956 458 956 606 q 902 206 956 311 q 750 43 849 100 q 515 -14 651 -14 q 280 43 379 -14 q 127 206 181 100 q 74 458 74 311 q 127 711 74 606 q 280 874 181 817 q 515 931 379 931 m 515 774 q 384 738 439 774 q 301 631 329 701 q 272 458 272 560 q 301 286 272 357 q 384 179 329 215 q 515 143 439 143 q 646 179 592 143 q 728 286 700 215 q 757 458 757 357 q 728 631 757 560 q 646 738 700 701 q 515 774 592 774 m 360 1239 l 447 1014 l 306 1014 l 183 1239 l 360 1239 m 646 1239 l 733 1014 l 593 1014 l 471 1239 l 646 1239 z "},"Ö":{"ha":1029,"x_min":74,"x_max":956,"o":"m 515 931 q 750 874 651 931 q 902 711 849 817 q 956 458 956 606 q 902 206 956 311 q 750 43 849 100 q 515 -14 651 -14 q 280 43 379 -14 q 127 206 181 100 q 74 458 74 311 q 127 711 74 606 q 280 874 181 817 q 515 931 379 931 m 515 774 q 384 738 439 774 q 301 631 329 701 q 272 458 272 560 q 301 286 272 357 q 384 179 329 215 q 515 143 439 143 q 646 179 592 143 q 728 286 700 215 q 757 458 757 357 q 728 631 757 560 q 646 738 700 701 q 515 774 592 774 m 368 1201 q 445 1176 417 1201 q 474 1104 474 1150 q 445 1033 474 1060 q 368 1007 417 1007 q 293 1033 321 1007 q 265 1104 265 1060 q 293 1176 265 1150 q 368 1201 321 1201 m 660 1201 q 738 1176 710 1201 q 765 1104 765 1150 q 738 1033 765 1060 q 660 1007 710 1007 q 585 1033 613 1007 q 557 1104 557 1060 q 585 1176 557 1150 q 660 1201 613 1201 z "},"Ȫ":{"ha":1029,"x_min":74,"x_max":956,"o":"m 515 931 q 750 874 651 931 q 902 711 849 817 q 956 458 956 606 q 902 206 956 311 q 750 43 849 100 q 515 -14 651 -14 q 280 43 379 -14 q 127 206 181 100 q 74 458 74 311 q 127 711 74 606 q 280 874 181 817 q 515 931 379 931 m 515 774 q 384 738 439 774 q 301 631 329 701 q 272 458 272 560 q 301 286 272 357 q 384 179 329 215 q 515 143 439 143 q 646 179 592 143 q 728 286 700 215 q 757 458 757 357 q 728 631 757 560 q 646 738 700 701 q 515 774 592 774 m 368 1201 q 445 1176 417 1201 q 474 1104 474 1150 q 445 1033 474 1060 q 368 1007 417 1007 q 293 1033 321 1007 q 265 1104 265 1060 q 293 1176 265 1150 q 368 1201 321 1201 m 660 1201 q 738 1176 710 1201 q 765 1104 765 1150 q 738 1033 765 1060 q 660 1007 710 1007 q 585 1033 613 1007 q 557 1104 557 1060 q 585 1176 557 1150 q 660 1201 613 1201 m 758 1406 l 758 1279 l 272 1279 l 272 1406 l 758 1406 z "},"Ȱ":{"ha":1029,"x_min":74,"x_max":956,"o":"m 515 931 q 750 874 651 931 q 902 711 849 817 q 956 458 956 606 q 902 206 956 311 q 750 43 849 100 q 515 -14 651 -14 q 280 43 379 -14 q 127 206 181 100 q 74 458 74 311 q 127 711 74 606 q 280 874 181 817 q 515 931 379 931 m 515 774 q 384 738 439 774 q 301 631 329 701 q 272 458 272 560 q 301 286 272 357 q 384 179 329 215 q 515 143 439 143 q 646 179 592 143 q 728 286 700 215 q 757 458 757 357 q 728 631 757 560 q 646 738 700 701 q 515 774 592 774 m 515 1222 q 599 1195 569 1222 q 628 1121 628 1168 q 599 1046 628 1072 q 515 1019 569 1019 q 433 1046 463 1019 q 404 1121 404 1072 q 433 1195 404 1168 q 515 1222 463 1222 m 758 1424 l 758 1297 l 272 1297 l 272 1424 l 758 1424 z "},"Ọ":{"ha":1029,"x_min":74,"x_max":956,"o":"m 515 931 q 750 874 651 931 q 902 711 849 817 q 956 458 956 606 q 902 206 956 311 q 750 43 849 100 q 515 -14 651 -14 q 280 43 379 -14 q 127 206 181 100 q 74 458 74 311 q 127 711 74 606 q 280 874 181 817 q 515 931 379 931 m 515 774 q 384 738 439 774 q 301 631 329 701 q 272 458 272 560 q 301 286 272 357 q 384 179 329 215 q 515 143 439 143 q 646 179 592 143 q 728 286 700 215 q 757 458 757 357 q 728 631 757 560 q 646 738 700 701 q 515 774 592 774 m 515 -306 q 433 -278 463 -306 q 404 -204 404 -251 q 433 -129 404 -156 q 515 -103 463 -103 q 599 -129 569 -103 q 628 -204 628 -156 q 599 -278 628 -251 q 515 -306 569 -306 z "},"Ò":{"ha":1029,"x_min":74,"x_max":956,"o":"m 515 931 q 750 874 651 931 q 902 711 849 817 q 956 458 956 606 q 902 206 956 311 q 750 43 849 100 q 515 -14 651 -14 q 280 43 379 -14 q 127 206 181 100 q 74 458 74 311 q 127 711 74 606 q 280 874 181 817 q 515 931 379 931 m 515 774 q 384 738 439 774 q 301 631 329 701 q 272 458 272 560 q 301 286 272 357 q 384 179 329 215 q 515 143 439 143 q 646 179 592 143 q 728 286 700 215 q 757 458 757 357 q 728 631 757 560 q 646 738 700 701 q 515 774 592 774 m 503 1239 l 590 1014 l 450 1014 l 328 1239 l 503 1239 z "},"Ỏ":{"ha":1029,"x_min":74,"x_max":956,"o":"m 515 931 q 750 874 651 931 q 902 711 849 817 q 956 458 956 606 q 902 206 956 311 q 750 43 849 100 q 515 -14 651 -14 q 280 43 379 -14 q 127 206 181 100 q 74 458 74 311 q 127 711 74 606 q 280 874 181 817 q 515 931 379 931 m 515 774 q 384 738 439 774 q 301 631 329 701 q 272 458 272 560 q 301 286 272 357 q 384 179 329 215 q 515 143 439 143 q 646 179 592 143 q 728 286 700 215 q 757 458 757 357 q 728 631 757 560 q 646 738 700 701 q 515 774 592 774 m 515 979 l 469 1040 q 524 1076 507 1058 q 540 1118 540 1094 q 528 1152 540 1139 q 492 1165 515 1165 q 458 1156 471 1165 q 433 1125 444 1146 l 342 1175 q 403 1250 360 1224 q 508 1276 447 1276 q 585 1260 550 1276 q 640 1215 619 1244 q 660 1143 660 1185 q 640 1067 660 1100 q 587 1013 619 1035 q 515 979 554 992 z "},"Ơ":{"ha":1029,"x_min":74,"x_max":956,"o":"m 925 1064 q 856 869 925 939 q 650 800 786 800 l 632 917 q 749 953 717 917 q 782 1064 782 990 l 925 1064 m 515 931 q 750 874 651 931 q 902 711 849 817 q 956 458 956 606 q 902 206 956 311 q 750 43 849 100 q 515 -14 651 -14 q 280 43 379 -14 q 127 206 181 100 q 74 458 74 311 q 127 711 74 606 q 280 874 181 817 q 515 931 379 931 m 515 774 q 384 738 439 774 q 301 631 329 701 q 272 458 272 560 q 301 286 272 357 q 384 179 329 215 q 515 143 439 143 q 646 179 592 143 q 728 286 700 215 q 757 458 757 357 q 728 631 757 560 q 646 738 700 701 q 515 774 592 774 z "},"Ớ":{"ha":1029,"x_min":74,"x_max":956,"o":"m 925 1064 q 856 869 925 939 q 650 800 786 800 l 632 917 q 749 953 717 917 q 782 1064 782 990 l 925 1064 m 515 931 q 750 874 651 931 q 902 711 849 817 q 956 458 956 606 q 902 206 956 311 q 750 43 849 100 q 515 -14 651 -14 q 280 43 379 -14 q 127 206 181 100 q 74 458 74 311 q 127 711 74 606 q 280 874 181 817 q 515 931 379 931 m 515 774 q 384 738 439 774 q 301 631 329 701 q 272 458 272 560 q 301 286 272 357 q 384 179 329 215 q 515 143 439 143 q 646 179 592 143 q 728 286 700 215 q 757 458 757 357 q 728 631 757 560 q 646 738 700 701 q 515 774 592 774 m 518 1239 l 693 1239 l 571 1014 l 431 1014 l 518 1239 z "},"Ợ":{"ha":1029,"x_min":74,"x_max":956,"o":"m 925 1064 q 856 869 925 939 q 650 800 786 800 l 632 917 q 749 953 717 917 q 782 1064 782 990 l 925 1064 m 515 931 q 750 874 651 931 q 902 711 849 817 q 956 458 956 606 q 902 206 956 311 q 750 43 849 100 q 515 -14 651 -14 q 280 43 379 -14 q 127 206 181 100 q 74 458 74 311 q 127 711 74 606 q 280 874 181 817 q 515 931 379 931 m 515 774 q 384 738 439 774 q 301 631 329 701 q 272 458 272 560 q 301 286 272 357 q 384 179 329 215 q 515 143 439 143 q 646 179 592 143 q 728 286 700 215 q 757 458 757 357 q 728 631 757 560 q 646 738 700 701 q 515 774 592 774 m 515 -306 q 433 -278 463 -306 q 404 -204 404 -251 q 433 -129 404 -156 q 515 -103 463 -103 q 599 -129 569 -103 q 628 -204 628 -156 q 599 -278 628 -251 q 515 -306 569 -306 z "},"Ờ":{"ha":1029,"x_min":74,"x_max":956,"o":"m 925 1064 q 856 869 925 939 q 650 800 786 800 l 632 917 q 749 953 717 917 q 782 1064 782 990 l 925 1064 m 515 931 q 750 874 651 931 q 902 711 849 817 q 956 458 956 606 q 902 206 956 311 q 750 43 849 100 q 515 -14 651 -14 q 280 43 379 -14 q 127 206 181 100 q 74 458 74 311 q 127 711 74 606 q 280 874 181 817 q 515 931 379 931 m 515 774 q 384 738 439 774 q 301 631 329 701 q 272 458 272 560 q 301 286 272 357 q 384 179 329 215 q 515 143 439 143 q 646 179 592 143 q 728 286 700 215 q 757 458 757 357 q 728 631 757 560 q 646 738 700 701 q 515 774 592 774 m 513 1239 l 600 1014 l 460 1014 l 338 1239 l 513 1239 z "},"Ở":{"ha":1029,"x_min":74,"x_max":956,"o":"m 925 1064 q 856 869 925 939 q 650 800 786 800 l 632 917 q 749 953 717 917 q 782 1064 782 990 l 925 1064 m 515 931 q 750 874 651 931 q 902 711 849 817 q 956 458 956 606 q 902 206 956 311 q 750 43 849 100 q 515 -14 651 -14 q 280 43 379 -14 q 127 206 181 100 q 74 458 74 311 q 127 711 74 606 q 280 874 181 817 q 515 931 379 931 m 515 774 q 384 738 439 774 q 301 631 329 701 q 272 458 272 560 q 301 286 272 357 q 384 179 329 215 q 515 143 439 143 q 646 179 592 143 q 728 286 700 215 q 757 458 757 357 q 728 631 757 560 q 646 738 700 701 q 515 774 592 774 m 515 979 l 469 1040 q 524 1076 507 1058 q 540 1118 540 1094 q 528 1152 540 1139 q 492 1165 515 1165 q 458 1156 471 1165 q 433 1125 444 1146 l 342 1175 q 403 1250 360 1224 q 508 1276 447 1276 q 585 1260 550 1276 q 640 1215 619 1244 q 660 1143 660 1185 q 640 1067 660 1100 q 587 1013 619 1035 q 515 979 554 992 z "},"Ỡ":{"ha":1029,"x_min":74,"x_max":956,"o":"m 925 1064 q 856 869 925 939 q 650 800 786 800 l 632 917 q 749 953 717 917 q 782 1064 782 990 l 925 1064 m 515 931 q 750 874 651 931 q 902 711 849 817 q 956 458 956 606 q 902 206 956 311 q 750 43 849 100 q 515 -14 651 -14 q 280 43 379 -14 q 127 206 181 100 q 74 458 74 311 q 127 711 74 606 q 280 874 181 817 q 515 931 379 931 m 515 774 q 384 738 439 774 q 301 631 329 701 q 272 458 272 560 q 301 286 272 357 q 384 179 329 215 q 515 143 439 143 q 646 179 592 143 q 728 286 700 215 q 757 458 757 357 q 728 631 757 560 q 646 738 700 701 q 515 774 592 774 m 758 1219 q 734 1103 756 1150 q 676 1034 713 1057 q 593 1011 640 1011 q 526 1024 554 1011 q 478 1053 499 1038 q 440 1083 458 1069 q 400 1096 421 1096 q 360 1074 374 1096 q 342 1011 347 1053 l 225 1011 q 276 1167 231 1115 q 397 1219 321 1219 q 462 1206 435 1219 q 508 1176 489 1193 q 545 1147 528 1160 q 583 1135 563 1135 q 624 1156 611 1135 q 642 1219 638 1178 l 758 1219 z "},"Ő":{"ha":1029,"x_min":74,"x_max":956,"o":"m 515 931 q 750 874 651 931 q 902 711 849 817 q 956 458 956 606 q 902 206 956 311 q 750 43 849 100 q 515 -14 651 -14 q 280 43 379 -14 q 127 206 181 100 q 74 458 74 311 q 127 711 74 606 q 280 874 181 817 q 515 931 379 931 m 515 774 q 384 738 439 774 q 301 631 329 701 q 272 458 272 560 q 301 286 272 357 q 384 179 329 215 q 515 143 439 143 q 646 179 592 143 q 728 286 700 215 q 757 458 757 357 q 728 631 757 560 q 646 738 700 701 q 515 774 592 774 m 671 1239 l 846 1239 l 724 1014 l 583 1014 l 671 1239 m 385 1239 l 560 1239 l 438 1014 l 297 1014 l 385 1239 z "},"Ȏ":{"ha":1029,"x_min":74,"x_max":956,"o":"m 515 931 q 750 874 651 931 q 902 711 849 817 q 956 458 956 606 q 902 206 956 311 q 750 43 849 100 q 515 -14 651 -14 q 280 43 379 -14 q 127 206 181 100 q 74 458 74 311 q 127 711 74 606 q 280 874 181 817 q 515 931 379 931 m 515 774 q 384 738 439 774 q 301 631 329 701 q 272 458 272 560 q 301 286 272 357 q 384 179 329 215 q 515 143 439 143 q 646 179 592 143 q 728 286 700 215 q 757 458 757 357 q 728 631 757 560 q 646 738 700 701 q 515 774 592 774 m 739 1004 l 610 1004 q 586 1078 610 1049 q 515 1108 563 1108 q 445 1078 469 1108 q 421 1004 421 1049 l 292 1004 q 353 1163 292 1104 q 515 1222 414 1222 q 678 1163 618 1222 q 739 1004 739 1104 z "},"Ō":{"ha":1029,"x_min":74,"x_max":956,"o":"m 515 931 q 750 874 651 931 q 902 711 849 817 q 956 458 956 606 q 902 206 956 311 q 750 43 849 100 q 515 -14 651 -14 q 280 43 379 -14 q 127 206 181 100 q 74 458 74 311 q 127 711 74 606 q 280 874 181 817 q 515 931 379 931 m 515 774 q 384 738 439 774 q 301 631 329 701 q 272 458 272 560 q 301 286 272 357 q 384 179 329 215 q 515 143 439 143 q 646 179 592 143 q 728 286 700 215 q 757 458 757 357 q 728 631 757 560 q 646 738 700 701 q 515 774 592 774 m 758 1153 l 758 1026 l 272 1026 l 272 1153 l 758 1153 z "},"Ṓ":{"ha":1029,"x_min":74,"x_max":956,"o":"m 515 931 q 750 874 651 931 q 902 711 849 817 q 956 458 956 606 q 902 206 956 311 q 750 43 849 100 q 515 -14 651 -14 q 280 43 379 -14 q 127 206 181 100 q 74 458 74 311 q 127 711 74 606 q 280 874 181 817 q 515 931 379 931 m 515 774 q 384 738 439 774 q 301 631 329 701 q 272 458 272 560 q 301 286 272 357 q 384 179 329 215 q 515 143 439 143 q 646 179 592 143 q 728 286 700 215 q 757 458 757 357 q 728 631 757 560 q 646 738 700 701 q 515 774 592 774 m 758 1153 l 758 1026 l 272 1026 l 272 1153 l 758 1153 m 518 1472 l 693 1472 l 571 1247 l 431 1247 l 518 1472 z "},"Ṑ":{"ha":1029,"x_min":74,"x_max":956,"o":"m 515 931 q 750 874 651 931 q 902 711 849 817 q 956 458 956 606 q 902 206 956 311 q 750 43 849 100 q 515 -14 651 -14 q 280 43 379 -14 q 127 206 181 100 q 74 458 74 311 q 127 711 74 606 q 280 874 181 817 q 515 931 379 931 m 515 774 q 384 738 439 774 q 301 631 329 701 q 272 458 272 560 q 301 286 272 357 q 384 179 329 215 q 515 143 439 143 q 646 179 592 143 q 728 286 700 215 q 757 458 757 357 q 728 631 757 560 q 646 738 700 701 q 515 774 592 774 m 758 1153 l 758 1026 l 272 1026 l 272 1153 l 758 1153 m 513 1472 l 600 1247 l 460 1247 l 338 1472 l 513 1472 z "},"Ǫ":{"ha":1029,"x_min":74,"x_max":956,"o":"m 515 931 q 750 874 651 931 q 902 711 849 817 q 956 458 956 606 q 902 206 956 311 q 750 43 849 100 q 515 -14 651 -14 q 280 43 379 -14 q 127 206 181 100 q 74 458 74 311 q 127 711 74 606 q 280 874 181 817 q 515 931 379 931 m 515 774 q 384 738 439 774 q 301 631 329 701 q 272 458 272 560 q 301 286 272 357 q 384 179 329 215 q 515 143 439 143 q 646 179 592 143 q 728 286 700 215 q 757 458 757 357 q 728 631 757 560 q 646 738 700 701 q 515 774 592 774 m 560 -308 q 428 -267 475 -308 q 381 -158 381 -226 q 435 -32 381 -78 q 593 39 490 14 l 674 10 q 574 -34 610 -12 q 525 -78 539 -56 q 511 -128 511 -100 q 533 -177 511 -160 q 590 -194 554 -194 q 626 -191 608 -194 q 658 -181 644 -187 l 681 -283 q 626 -302 657 -296 q 560 -308 596 -308 z "},"Ø":{"ha":1029,"x_min":74,"x_max":956,"o":"m 339 132 l 272 186 l 679 756 l 747 704 l 339 132 m 100 -43 l 257 169 l 326 115 l 206 -43 l 100 -43 m 769 729 l 700 783 l 824 947 l 931 947 l 769 729 m 515 931 q 750 874 651 931 q 902 711 849 817 q 956 458 956 606 q 902 206 956 311 q 750 43 849 100 q 515 -14 651 -14 q 280 43 379 -14 q 127 206 181 100 q 74 458 74 311 q 127 711 74 606 q 280 874 181 817 q 515 931 379 931 m 515 774 q 384 738 439 774 q 301 631 329 701 q 272 458 272 560 q 301 286 272 357 q 384 179 329 215 q 515 143 439 143 q 646 179 592 143 q 728 286 700 215 q 757 458 757 357 q 728 631 757 560 q 646 738 700 701 q 515 774 592 774 z "},"Ǿ":{"ha":1029,"x_min":74,"x_max":956,"o":"m 339 132 l 272 186 l 679 756 l 747 704 l 339 132 m 100 -43 l 257 169 l 326 115 l 206 -43 l 100 -43 m 769 729 l 700 783 l 824 947 l 931 947 l 769 729 m 515 931 q 750 874 651 931 q 902 711 849 817 q 956 458 956 606 q 902 206 956 311 q 750 43 849 100 q 515 -14 651 -14 q 280 43 379 -14 q 127 206 181 100 q 74 458 74 311 q 127 711 74 606 q 280 874 181 817 q 515 931 379 931 m 515 774 q 384 738 439 774 q 301 631 329 701 q 272 458 272 560 q 301 286 272 357 q 384 179 329 215 q 515 143 439 143 q 646 179 592 143 q 728 286 700 215 q 757 458 757 357 q 728 631 757 560 q 646 738 700 701 q 515 774 592 774 m 518 1239 l 693 1239 l 571 1014 l 431 1014 l 518 1239 z "},"Õ":{"ha":1029,"x_min":74,"x_max":956,"o":"m 515 931 q 750 874 651 931 q 902 711 849 817 q 956 458 956 606 q 902 206 956 311 q 750 43 849 100 q 515 -14 651 -14 q 280 43 379 -14 q 127 206 181 100 q 74 458 74 311 q 127 711 74 606 q 280 874 181 817 q 515 931 379 931 m 515 774 q 384 738 439 774 q 301 631 329 701 q 272 458 272 560 q 301 286 272 357 q 384 179 329 215 q 515 143 439 143 q 646 179 592 143 q 728 286 700 215 q 757 458 757 357 q 728 631 757 560 q 646 738 700 701 q 515 774 592 774 m 781 1219 q 756 1103 778 1150 q 699 1034 735 1057 q 615 1011 663 1011 q 549 1024 576 1011 q 501 1053 521 1038 q 462 1083 481 1069 q 422 1096 443 1096 q 383 1074 396 1096 q 364 1011 369 1053 l 247 1011 q 298 1167 253 1115 q 419 1219 343 1219 q 484 1206 457 1219 q 531 1176 511 1193 q 567 1147 550 1160 q 606 1135 585 1135 q 647 1156 633 1135 q 664 1219 660 1178 l 781 1219 z "},"Ṍ":{"ha":1029,"x_min":74,"x_max":956,"o":"m 515 931 q 750 874 651 931 q 902 711 849 817 q 956 458 956 606 q 902 206 956 311 q 750 43 849 100 q 515 -14 651 -14 q 280 43 379 -14 q 127 206 181 100 q 74 458 74 311 q 127 711 74 606 q 280 874 181 817 q 515 931 379 931 m 515 774 q 384 738 439 774 q 301 631 329 701 q 272 458 272 560 q 301 286 272 357 q 384 179 329 215 q 515 143 439 143 q 646 179 592 143 q 728 286 700 215 q 757 458 757 357 q 728 631 757 560 q 646 738 700 701 q 515 774 592 774 m 781 1219 q 756 1103 778 1150 q 699 1034 735 1057 q 615 1011 663 1011 q 549 1024 576 1011 q 501 1053 521 1038 q 462 1083 481 1069 q 422 1096 443 1096 q 383 1074 396 1096 q 364 1011 369 1053 l 247 1011 q 298 1167 253 1115 q 419 1219 343 1219 q 484 1206 457 1219 q 531 1176 511 1193 q 567 1147 550 1160 q 606 1135 585 1135 q 647 1156 633 1135 q 664 1219 660 1178 l 781 1219 m 517 1521 l 692 1521 l 569 1296 l 429 1296 l 517 1521 z "},"Ṏ":{"ha":1029,"x_min":74,"x_max":956,"o":"m 515 931 q 750 874 651 931 q 902 711 849 817 q 956 458 956 606 q 902 206 956 311 q 750 43 849 100 q 515 -14 651 -14 q 280 43 379 -14 q 127 206 181 100 q 74 458 74 311 q 127 711 74 606 q 280 874 181 817 q 515 931 379 931 m 515 774 q 384 738 439 774 q 301 631 329 701 q 272 458 272 560 q 301 286 272 357 q 384 179 329 215 q 515 143 439 143 q 646 179 592 143 q 728 286 700 215 q 757 458 757 357 q 728 631 757 560 q 646 738 700 701 q 515 774 592 774 m 781 1219 q 756 1103 778 1150 q 699 1034 735 1057 q 615 1011 663 1011 q 549 1024 576 1011 q 501 1053 521 1038 q 462 1083 481 1069 q 422 1096 443 1096 q 383 1074 396 1096 q 364 1011 369 1053 l 247 1011 q 298 1167 253 1115 q 419 1219 343 1219 q 484 1206 457 1219 q 531 1176 511 1193 q 567 1147 550 1160 q 606 1135 585 1135 q 647 1156 633 1135 q 664 1219 660 1178 l 781 1219 m 367 1483 q 444 1458 415 1483 q 472 1386 472 1432 q 444 1315 472 1342 q 367 1289 415 1289 q 292 1315 319 1289 q 264 1386 264 1342 q 292 1458 264 1432 q 367 1483 319 1483 m 658 1483 q 736 1458 708 1483 q 764 1386 764 1432 q 736 1315 764 1342 q 658 1289 708 1289 q 583 1315 611 1289 q 556 1386 556 1342 q 583 1458 556 1432 q 658 1483 611 1483 z "},"Ȭ":{"ha":1029,"x_min":74,"x_max":956,"o":"m 515 931 q 750 874 651 931 q 902 711 849 817 q 956 458 956 606 q 902 206 956 311 q 750 43 849 100 q 515 -14 651 -14 q 280 43 379 -14 q 127 206 181 100 q 74 458 74 311 q 127 711 74 606 q 280 874 181 817 q 515 931 379 931 m 515 774 q 384 738 439 774 q 301 631 329 701 q 272 458 272 560 q 301 286 272 357 q 384 179 329 215 q 515 143 439 143 q 646 179 592 143 q 728 286 700 215 q 757 458 757 357 q 728 631 757 560 q 646 738 700 701 q 515 774 592 774 m 781 1219 q 756 1103 778 1150 q 699 1034 735 1057 q 615 1011 663 1011 q 549 1024 576 1011 q 501 1053 521 1038 q 462 1083 481 1069 q 422 1096 443 1096 q 383 1074 396 1096 q 364 1011 369 1053 l 247 1011 q 298 1167 253 1115 q 419 1219 343 1219 q 484 1206 457 1219 q 531 1176 511 1193 q 567 1147 550 1160 q 606 1135 585 1135 q 647 1156 633 1135 q 664 1219 660 1178 l 781 1219 m 757 1435 l 757 1308 l 271 1308 l 271 1435 l 757 1435 z "},"Œ":{"ha":1472,"x_min":74,"x_max":1419,"o":"m 929 154 l 1419 154 l 1419 0 l 790 0 l 790 119 q 667 22 740 57 q 501 -14 593 -14 q 274 43 369 -14 q 126 206 178 100 q 74 458 74 311 q 126 711 74 606 q 274 874 178 817 q 504 931 371 931 q 668 896 596 931 q 790 799 740 861 l 790 917 l 1400 917 l 1400 763 l 929 763 l 929 535 l 1294 535 l 1294 388 l 929 388 l 929 154 m 511 143 q 635 179 583 143 q 715 286 688 215 q 743 458 743 357 q 715 631 743 560 q 635 738 688 701 q 511 774 583 774 q 379 738 433 774 q 297 631 325 701 q 269 458 269 560 q 297 286 269 357 q 379 179 325 215 q 511 143 433 143 z "},"P":{"ha":897,"x_min":119,"x_max":842,"o":"m 504 917 q 685 881 610 917 q 801 780 760 846 q 842 621 842 714 q 801 462 842 528 q 685 360 760 396 q 504 325 610 325 l 311 325 l 311 0 l 119 0 l 119 917 l 504 917 m 475 476 q 604 513 561 476 q 647 621 647 550 q 604 729 647 693 q 475 765 561 765 l 311 765 l 311 476 l 475 476 z "},"Þ":{"ha":913,"x_min":119,"x_max":851,"o":"m 496 768 q 760 691 669 768 q 851 468 851 614 q 760 245 851 322 q 496 168 669 168 l 215 168 l 215 319 l 483 319 q 656 469 656 319 q 612 581 656 544 q 483 617 568 617 l 215 617 l 215 768 l 496 768 m 311 917 l 311 0 l 119 0 l 119 917 l 311 917 z "},"Q":{"ha":1029,"x_min":74,"x_max":956,"o":"m 743 -278 q 592 -249 660 -278 q 486 -160 525 -221 q 447 -4 447 -99 q 452 43 447 18 q 468 92 457 68 l 593 111 q 578 66 583 86 q 574 29 574 46 q 597 -68 574 -35 q 660 -114 621 -101 q 746 -126 699 -126 q 844 -113 803 -126 q 913 -76 885 -100 l 947 -219 q 855 -262 913 -247 q 743 -278 797 -278 m 515 931 q 750 874 651 931 q 902 711 849 817 q 956 458 956 606 q 902 206 956 311 q 750 43 849 100 q 515 -14 651 -14 q 280 43 379 -14 q 127 206 181 100 q 74 458 74 311 q 127 711 74 606 q 280 874 181 817 q 515 931 379 931 m 515 774 q 384 738 439 774 q 301 631 329 701 q 272 458 272 560 q 301 286 272 357 q 384 179 329 215 q 515 143 439 143 q 646 179 592 143 q 728 286 700 215 q 757 458 757 357 q 728 631 757 560 q 646 738 700 701 q 515 774 592 774 z "},"R":{"ha":944,"x_min":119,"x_max":911,"o":"m 524 917 q 768 842 679 917 q 857 640 857 767 q 768 434 857 506 q 525 363 679 363 l 506 351 l 308 351 l 308 0 l 119 0 l 119 917 l 524 917 m 501 497 q 622 530 582 497 q 661 631 661 563 q 622 731 661 699 q 501 764 582 764 l 308 764 l 308 497 l 501 497 m 614 457 l 911 0 l 696 0 l 450 401 l 614 457 z "},"Ŕ":{"ha":944,"x_min":119,"x_max":911,"o":"m 524 917 q 768 842 679 917 q 857 640 857 767 q 768 434 857 506 q 525 363 679 363 l 506 351 l 308 351 l 308 0 l 119 0 l 119 917 l 524 917 m 501 497 q 622 530 582 497 q 661 631 661 563 q 622 731 661 699 q 501 764 582 764 l 308 764 l 308 497 l 501 497 m 614 457 l 911 0 l 696 0 l 450 401 l 614 457 m 457 1239 l 632 1239 l 510 1014 l 369 1014 l 457 1239 z "},"Ř":{"ha":944,"x_min":119,"x_max":911,"o":"m 524 917 q 768 842 679 917 q 857 640 857 767 q 768 434 857 506 q 525 363 679 363 l 506 351 l 308 351 l 308 0 l 119 0 l 119 917 l 524 917 m 501 497 q 622 530 582 497 q 661 631 661 563 q 622 731 661 699 q 501 764 582 764 l 308 764 l 308 497 l 501 497 m 614 457 l 911 0 l 696 0 l 450 401 l 614 457 m 694 1239 l 550 1014 l 358 1014 l 214 1239 l 357 1239 l 454 1104 l 551 1239 l 694 1239 z "},"Ŗ":{"ha":944,"x_min":119,"x_max":911,"o":"m 524 917 q 768 842 679 917 q 857 640 857 767 q 768 434 857 506 q 525 363 679 363 l 506 351 l 308 351 l 308 0 l 119 0 l 119 917 l 524 917 m 501 497 q 622 530 582 497 q 661 631 661 563 q 622 731 661 699 q 501 764 582 764 l 308 764 l 308 497 l 501 497 m 614 457 l 911 0 l 696 0 l 450 401 l 614 457 m 600 -92 l 504 -332 l 375 -332 l 426 -92 l 600 -92 z "},"Ȑ":{"ha":944,"x_min":119,"x_max":911,"o":"m 524 917 q 768 842 679 917 q 857 640 857 767 q 768 434 857 506 q 525 363 679 363 l 506 351 l 308 351 l 308 0 l 119 0 l 119 917 l 524 917 m 501 497 q 622 530 582 497 q 661 631 661 563 q 622 731 661 699 q 501 764 582 764 l 308 764 l 308 497 l 501 497 m 614 457 l 911 0 l 696 0 l 450 401 l 614 457 m 299 1239 l 386 1014 l 244 1014 l 122 1239 l 299 1239 m 585 1239 l 672 1014 l 532 1014 l 410 1239 l 585 1239 z "},"Ṛ":{"ha":944,"x_min":119,"x_max":911,"o":"m 524 917 q 768 842 679 917 q 857 640 857 767 q 768 434 857 506 q 525 363 679 363 l 506 351 l 308 351 l 308 0 l 119 0 l 119 917 l 524 917 m 501 497 q 622 530 582 497 q 661 631 661 563 q 622 731 661 699 q 501 764 582 764 l 308 764 l 308 497 l 501 497 m 614 457 l 911 0 l 696 0 l 450 401 l 614 457 m 506 -306 q 424 -278 453 -306 q 394 -204 394 -251 q 424 -129 394 -156 q 506 -103 453 -103 q 589 -129 560 -103 q 618 -204 618 -156 q 589 -278 618 -251 q 506 -306 560 -306 z "},"Ȓ":{"ha":944,"x_min":119,"x_max":911,"o":"m 524 917 q 768 842 679 917 q 857 640 857 767 q 768 434 857 506 q 525 363 679 363 l 506 351 l 308 351 l 308 0 l 119 0 l 119 917 l 524 917 m 501 497 q 622 530 582 497 q 661 631 661 563 q 622 731 661 699 q 501 764 582 764 l 308 764 l 308 497 l 501 497 m 614 457 l 911 0 l 696 0 l 450 401 l 614 457 m 678 1004 l 549 1004 q 525 1078 549 1049 q 454 1108 501 1108 q 384 1078 408 1108 q 360 1004 360 1049 l 231 1004 q 292 1163 231 1104 q 454 1222 353 1222 q 617 1163 557 1222 q 678 1004 678 1104 z "},"Ṟ":{"ha":944,"x_min":119,"x_max":911,"o":"m 524 917 q 768 842 679 917 q 857 640 857 767 q 768 434 857 506 q 525 363 679 363 l 506 351 l 308 351 l 308 0 l 119 0 l 119 917 l 524 917 m 501 497 q 622 530 582 497 q 661 631 661 563 q 622 731 661 699 q 501 764 582 764 l 308 764 l 308 497 l 501 497 m 614 457 l 911 0 l 696 0 l 450 401 l 614 457 m 749 -110 l 749 -236 l 263 -236 l 263 -110 l 749 -110 z "},"S":{"ha":894,"x_min":36,"x_max":835,"o":"m 454 931 q 674 888 579 931 q 835 760 768 844 l 728 636 q 603 742 671 708 q 447 776 536 776 q 351 761 389 776 q 295 721 313 746 q 278 665 278 696 q 307 602 278 628 q 407 560 336 576 l 578 521 q 773 430 714 490 q 832 274 832 369 q 785 119 832 183 q 653 20 738 54 q 458 -14 568 -14 q 283 9 363 -14 q 140 72 203 32 q 36 165 78 113 l 144 294 q 224 215 176 250 q 331 160 271 181 q 458 140 392 140 q 555 153 515 140 q 615 191 594 167 q 635 250 635 215 q 610 312 635 286 q 521 351 586 338 l 335 393 q 197 444 254 413 q 109 524 139 475 q 79 642 79 574 q 124 789 79 724 q 252 892 168 854 q 454 931 336 931 z "},"Ś":{"ha":894,"x_min":36,"x_max":835,"o":"m 454 931 q 674 888 579 931 q 835 760 768 844 l 728 636 q 603 742 671 708 q 447 776 536 776 q 351 761 389 776 q 295 721 313 746 q 278 665 278 696 q 307 602 278 628 q 407 560 336 576 l 578 521 q 773 430 714 490 q 832 274 832 369 q 785 119 832 183 q 653 20 738 54 q 458 -14 568 -14 q 283 9 363 -14 q 140 72 203 32 q 36 165 78 113 l 144 294 q 224 215 176 250 q 331 160 271 181 q 458 140 392 140 q 555 153 515 140 q 615 191 594 167 q 635 250 635 215 q 610 312 635 286 q 521 351 586 338 l 335 393 q 197 444 254 413 q 109 524 139 475 q 79 642 79 574 q 124 789 79 724 q 252 892 168 854 q 454 931 336 931 m 458 1239 l 633 1239 l 511 1014 l 371 1014 l 458 1239 z "},"Ṥ":{"ha":894,"x_min":36,"x_max":835,"o":"m 454 931 q 674 888 579 931 q 835 760 768 844 l 728 636 q 603 742 671 708 q 447 776 536 776 q 351 761 389 776 q 295 721 313 746 q 278 665 278 696 q 307 602 278 628 q 407 560 336 576 l 578 521 q 773 430 714 490 q 832 274 832 369 q 785 119 832 183 q 653 20 738 54 q 458 -14 568 -14 q 283 9 363 -14 q 140 72 203 32 q 36 165 78 113 l 144 294 q 224 215 176 250 q 331 160 271 181 q 458 140 392 140 q 555 153 515 140 q 615 191 594 167 q 635 250 635 215 q 610 312 635 286 q 521 351 586 338 l 335 393 q 197 444 254 413 q 109 524 139 475 q 79 642 79 574 q 124 789 79 724 q 252 892 168 854 q 454 931 336 931 m 458 1239 l 633 1239 l 511 1014 l 371 1014 l 458 1239 m 456 1519 q 539 1492 510 1519 q 568 1418 568 1465 q 539 1343 568 1369 q 456 1317 510 1317 q 374 1343 403 1317 q 344 1418 344 1369 q 374 1492 344 1465 q 456 1519 403 1519 z "},"Š":{"ha":894,"x_min":36,"x_max":835,"o":"m 454 931 q 674 888 579 931 q 835 760 768 844 l 728 636 q 603 742 671 708 q 447 776 536 776 q 351 761 389 776 q 295 721 313 746 q 278 665 278 696 q 307 602 278 628 q 407 560 336 576 l 578 521 q 773 430 714 490 q 832 274 832 369 q 785 119 832 183 q 653 20 738 54 q 458 -14 568 -14 q 283 9 363 -14 q 140 72 203 32 q 36 165 78 113 l 144 294 q 224 215 176 250 q 331 160 271 181 q 458 140 392 140 q 555 153 515 140 q 615 191 594 167 q 635 250 635 215 q 610 312 635 286 q 521 351 586 338 l 335 393 q 197 444 254 413 q 109 524 139 475 q 79 642 79 574 q 124 789 79 724 q 252 892 168 854 q 454 931 336 931 m 696 1239 l 551 1014 l 360 1014 l 215 1239 l 358 1239 l 456 1104 l 553 1239 l 696 1239 z "},"Ṧ":{"ha":894,"x_min":36,"x_max":835,"o":"m 454 931 q 674 888 579 931 q 835 760 768 844 l 728 636 q 603 742 671 708 q 447 776 536 776 q 351 761 389 776 q 295 721 313 746 q 278 665 278 696 q 307 602 278 628 q 407 560 336 576 l 578 521 q 773 430 714 490 q 832 274 832 369 q 785 119 832 183 q 653 20 738 54 q 458 -14 568 -14 q 283 9 363 -14 q 140 72 203 32 q 36 165 78 113 l 144 294 q 224 215 176 250 q 331 160 271 181 q 458 140 392 140 q 555 153 515 140 q 615 191 594 167 q 635 250 635 215 q 610 312 635 286 q 521 351 586 338 l 335 393 q 197 444 254 413 q 109 524 139 475 q 79 642 79 574 q 124 789 79 724 q 252 892 168 854 q 454 931 336 931 m 696 1239 l 551 1014 l 360 1014 l 215 1239 l 358 1239 l 456 1104 l 553 1239 l 696 1239 m 456 1510 q 539 1483 510 1510 q 568 1408 568 1456 q 539 1333 568 1360 q 456 1307 510 1307 q 374 1333 403 1307 q 344 1408 344 1360 q 374 1483 344 1456 q 456 1510 403 1510 z "},"Ş":{"ha":894,"x_min":36,"x_max":835,"o":"m 454 931 q 674 888 579 931 q 835 760 768 844 l 728 636 q 603 742 671 708 q 447 776 536 776 q 351 761 389 776 q 295 721 313 746 q 278 665 278 696 q 307 602 278 628 q 407 560 336 576 l 578 521 q 773 430 714 490 q 832 274 832 369 q 785 119 832 183 q 653 20 738 54 q 458 -14 568 -14 q 283 9 363 -14 q 140 72 203 32 q 36 165 78 113 l 144 294 q 224 215 176 250 q 331 160 271 181 q 458 140 392 140 q 555 153 515 140 q 615 191 594 167 q 635 250 635 215 q 610 312 635 286 q 521 351 586 338 l 335 393 q 197 444 254 413 q 109 524 139 475 q 79 642 79 574 q 124 789 79 724 q 252 892 168 854 q 454 931 336 931 m 354 11 l 411 47 q 556 -17 511 28 q 601 -129 601 -61 q 551 -251 601 -204 q 415 -299 500 -299 q 334 -287 367 -299 q 278 -258 301 -275 l 311 -157 q 349 -176 329 -168 q 399 -185 369 -185 q 458 -162 435 -185 q 482 -99 482 -140 q 453 -40 482 -65 q 354 11 425 -15 z "},"Ŝ":{"ha":894,"x_min":36,"x_max":835,"o":"m 454 931 q 674 888 579 931 q 835 760 768 844 l 728 636 q 603 742 671 708 q 447 776 536 776 q 351 761 389 776 q 295 721 313 746 q 278 665 278 696 q 307 602 278 628 q 407 560 336 576 l 578 521 q 773 430 714 490 q 832 274 832 369 q 785 119 832 183 q 653 20 738 54 q 458 -14 568 -14 q 283 9 363 -14 q 140 72 203 32 q 36 165 78 113 l 144 294 q 224 215 176 250 q 331 160 271 181 q 458 140 392 140 q 555 153 515 140 q 615 191 594 167 q 635 250 635 215 q 610 312 635 286 q 521 351 586 338 l 335 393 q 197 444 254 413 q 109 524 139 475 q 79 642 79 574 q 124 789 79 724 q 252 892 168 854 q 454 931 336 931 m 696 1014 l 553 1014 l 456 1150 l 358 1014 l 215 1014 l 360 1239 l 551 1239 l 696 1014 z "},"Ș":{"ha":894,"x_min":36,"x_max":835,"o":"m 454 931 q 674 888 579 931 q 835 760 768 844 l 728 636 q 603 742 671 708 q 447 776 536 776 q 351 761 389 776 q 295 721 313 746 q 278 665 278 696 q 307 602 278 628 q 407 560 336 576 l 578 521 q 773 430 714 490 q 832 274 832 369 q 785 119 832 183 q 653 20 738 54 q 458 -14 568 -14 q 283 9 363 -14 q 140 72 203 32 q 36 165 78 113 l 144 294 q 224 215 176 250 q 331 160 271 181 q 458 140 392 140 q 555 153 515 140 q 615 191 594 167 q 635 250 635 215 q 610 312 635 286 q 521 351 586 338 l 335 393 q 197 444 254 413 q 109 524 139 475 q 79 642 79 574 q 124 789 79 724 q 252 892 168 854 q 454 931 336 931 m 543 -92 l 447 -332 l 318 -332 l 369 -92 l 543 -92 z "},"Ṡ":{"ha":894,"x_min":36,"x_max":835,"o":"m 454 931 q 674 888 579 931 q 835 760 768 844 l 728 636 q 603 742 671 708 q 447 776 536 776 q 351 761 389 776 q 295 721 313 746 q 278 665 278 696 q 307 602 278 628 q 407 560 336 576 l 578 521 q 773 430 714 490 q 832 274 832 369 q 785 119 832 183 q 653 20 738 54 q 458 -14 568 -14 q 283 9 363 -14 q 140 72 203 32 q 36 165 78 113 l 144 294 q 224 215 176 250 q 331 160 271 181 q 458 140 392 140 q 555 153 515 140 q 615 191 594 167 q 635 250 635 215 q 610 312 635 286 q 521 351 586 338 l 335 393 q 197 444 254 413 q 109 524 139 475 q 79 642 79 574 q 124 789 79 724 q 252 892 168 854 q 454 931 336 931 m 456 1222 q 539 1195 510 1222 q 568 1121 568 1168 q 539 1046 568 1072 q 456 1019 510 1019 q 374 1046 403 1019 q 344 1121 344 1072 q 374 1195 344 1168 q 456 1222 403 1222 z "},"Ṣ":{"ha":894,"x_min":36,"x_max":835,"o":"m 454 931 q 674 888 579 931 q 835 760 768 844 l 728 636 q 603 742 671 708 q 447 776 536 776 q 351 761 389 776 q 295 721 313 746 q 278 665 278 696 q 307 602 278 628 q 407 560 336 576 l 578 521 q 773 430 714 490 q 832 274 832 369 q 785 119 832 183 q 653 20 738 54 q 458 -14 568 -14 q 283 9 363 -14 q 140 72 203 32 q 36 165 78 113 l 144 294 q 224 215 176 250 q 331 160 271 181 q 458 140 392 140 q 555 153 515 140 q 615 191 594 167 q 635 250 635 215 q 610 312 635 286 q 521 351 586 338 l 335 393 q 197 444 254 413 q 109 524 139 475 q 79 642 79 574 q 124 789 79 724 q 252 892 168 854 q 454 931 336 931 m 449 -306 q 367 -278 396 -306 q 338 -204 338 -251 q 367 -129 338 -156 q 449 -103 396 -103 q 532 -129 503 -103 q 561 -204 561 -156 q 532 -278 561 -251 q 449 -306 503 -306 z "},"Ṩ":{"ha":894,"x_min":36,"x_max":835,"o":"m 454 931 q 674 888 579 931 q 835 760 768 844 l 728 636 q 603 742 671 708 q 447 776 536 776 q 351 761 389 776 q 295 721 313 746 q 278 665 278 696 q 307 602 278 628 q 407 560 336 576 l 578 521 q 773 430 714 490 q 832 274 832 369 q 785 119 832 183 q 653 20 738 54 q 458 -14 568 -14 q 283 9 363 -14 q 140 72 203 32 q 36 165 78 113 l 144 294 q 224 215 176 250 q 331 160 271 181 q 458 140 392 140 q 555 153 515 140 q 615 191 594 167 q 635 250 635 215 q 610 312 635 286 q 521 351 586 338 l 335 393 q 197 444 254 413 q 109 524 139 475 q 79 642 79 574 q 124 789 79 724 q 252 892 168 854 q 454 931 336 931 m 456 1222 q 539 1195 510 1222 q 568 1121 568 1168 q 539 1046 568 1072 q 456 1019 510 1019 q 374 1046 403 1019 q 344 1121 344 1072 q 374 1195 344 1168 q 456 1222 403 1222 m 449 -306 q 367 -278 396 -306 q 338 -204 338 -251 q 367 -129 338 -156 q 449 -103 396 -103 q 532 -129 503 -103 q 561 -204 561 -156 q 532 -278 561 -251 q 449 -306 503 -306 z "},"ẞ":{"ha":963,"x_min":103,"x_max":928,"o":"m 635 -7 q 481 15 540 -7 q 389 68 421 36 l 449 194 q 515 153 476 168 q 603 139 553 139 q 681 156 649 139 q 728 202 713 172 q 744 269 744 232 q 705 359 744 329 q 600 389 665 389 l 461 389 l 461 507 l 679 764 l 482 764 q 385 740 428 764 q 319 674 343 717 q 296 572 296 631 l 296 0 l 103 0 l 103 594 q 147 765 103 693 q 271 877 192 838 q 456 917 350 917 l 872 917 l 872 765 l 610 467 l 632 506 l 678 506 q 801 478 744 506 q 893 399 858 451 q 928 265 928 346 q 890 117 928 178 q 785 25 851 57 q 635 -7 719 -7 z "},"Ə":{"ha":986,"x_min":61,"x_max":911,"o":"m 472 -14 q 253 40 346 -14 q 110 191 160 93 q 61 419 61 289 q 63 458 61 439 q 65 499 64 478 l 800 499 l 800 369 l 160 369 l 260 435 q 258 408 258 421 q 257 385 257 396 q 287 252 257 306 q 368 171 317 199 q 482 143 419 143 q 610 178 558 143 q 690 286 663 214 q 717 467 717 358 q 688 634 717 565 q 606 738 660 703 q 474 774 551 774 q 335 732 389 774 q 258 611 282 690 l 74 658 q 161 809 103 749 q 300 900 219 869 q 475 931 381 931 q 709 874 611 931 q 859 711 807 817 q 911 458 911 606 q 858 206 911 311 q 706 43 804 100 q 472 -14 607 -14 z "},"T":{"ha":882,"x_min":38,"x_max":844,"o":"m 844 917 l 844 763 l 538 763 l 538 0 l 346 0 l 346 763 l 38 763 l 38 917 l 844 917 z "},"Ŧ":{"ha":882,"x_min":38,"x_max":844,"o":"m 844 917 l 844 763 l 538 763 l 538 0 l 346 0 l 346 763 l 38 763 l 38 917 l 844 917 m 749 506 l 749 351 l 133 351 l 133 506 l 749 506 z "},"Ť":{"ha":882,"x_min":38,"x_max":844,"o":"m 844 917 l 844 763 l 538 763 l 538 0 l 346 0 l 346 763 l 38 763 l 38 917 l 844 917 m 682 1239 l 538 1014 l 346 1014 l 201 1239 l 344 1239 l 442 1104 l 539 1239 l 682 1239 z "},"Ţ":{"ha":882,"x_min":38,"x_max":844,"o":"m 360 7 l 404 47 q 549 -17 504 28 q 594 -129 594 -61 q 544 -251 594 -204 q 408 -299 493 -299 q 327 -287 360 -299 q 271 -258 294 -275 l 304 -157 q 342 -176 322 -168 q 392 -185 363 -185 q 452 -162 429 -185 q 475 -99 475 -140 q 449 -41 475 -65 q 360 7 422 -17 m 844 917 l 844 763 l 538 763 l 538 0 l 346 0 l 346 763 l 38 763 l 38 917 l 844 917 z "},"Ț":{"ha":882,"x_min":38,"x_max":844,"o":"m 844 917 l 844 763 l 538 763 l 538 0 l 346 0 l 346 763 l 38 763 l 38 917 l 844 917 m 540 -92 l 444 -332 l 315 -332 l 367 -92 l 540 -92 z "},"Ṭ":{"ha":882,"x_min":38,"x_max":844,"o":"m 844 917 l 844 763 l 538 763 l 538 0 l 346 0 l 346 763 l 38 763 l 38 917 l 844 917 m 442 -306 q 360 -278 389 -306 q 331 -204 331 -251 q 360 -129 331 -156 q 442 -103 389 -103 q 525 -129 496 -103 q 554 -204 554 -156 q 525 -278 554 -251 q 442 -306 496 -306 z "},"Ṯ":{"ha":882,"x_min":38,"x_max":844,"o":"m 844 917 l 844 763 l 538 763 l 538 0 l 346 0 l 346 763 l 38 763 l 38 917 l 844 917 m 685 -110 l 685 -236 l 199 -236 l 199 -110 l 685 -110 z "},"U":{"ha":986,"x_min":101,"x_max":885,"o":"m 885 917 l 885 361 q 785 80 885 174 q 493 -14 685 -14 q 201 80 301 -14 q 101 361 101 174 l 101 917 l 293 917 l 293 369 q 342 199 293 254 q 493 143 392 143 q 643 199 594 143 q 692 369 692 254 l 692 917 l 885 917 z "},"Ú":{"ha":986,"x_min":101,"x_max":885,"o":"m 885 917 l 885 361 q 785 80 885 174 q 493 -14 685 -14 q 201 80 301 -14 q 101 361 101 174 l 101 917 l 293 917 l 293 369 q 342 199 293 254 q 493 143 392 143 q 643 199 594 143 q 692 369 692 254 l 692 917 l 885 917 m 496 1218 l 671 1218 l 549 993 l 408 993 l 496 1218 z "},"Ŭ":{"ha":986,"x_min":101,"x_max":885,"o":"m 885 917 l 885 361 q 785 80 885 174 q 493 -14 685 -14 q 201 80 301 -14 q 101 361 101 174 l 101 917 l 293 917 l 293 369 q 342 199 293 254 q 493 143 392 143 q 643 199 594 143 q 692 369 692 254 l 692 917 l 885 917 m 717 1201 q 656 1042 717 1101 q 493 983 596 983 q 331 1042 392 983 q 269 1201 269 1101 l 399 1201 q 423 1127 399 1157 q 493 1097 447 1097 q 564 1127 540 1097 q 588 1201 588 1157 l 717 1201 z "},"Û":{"ha":986,"x_min":101,"x_max":885,"o":"m 885 917 l 885 361 q 785 80 885 174 q 493 -14 685 -14 q 201 80 301 -14 q 101 361 101 174 l 101 917 l 293 917 l 293 369 q 342 199 293 254 q 493 143 392 143 q 643 199 594 143 q 692 369 692 254 l 692 917 l 885 917 m 733 993 l 590 993 l 493 1129 l 396 993 l 253 993 l 397 1218 l 589 1218 l 733 993 z "},"Ȕ":{"ha":986,"x_min":101,"x_max":885,"o":"m 885 917 l 885 361 q 785 80 885 174 q 493 -14 685 -14 q 201 80 301 -14 q 101 361 101 174 l 101 917 l 293 917 l 293 369 q 342 199 293 254 q 493 143 392 143 q 643 199 594 143 q 692 369 692 254 l 692 917 l 885 917 m 338 1218 l 425 993 l 283 993 l 161 1218 l 338 1218 m 624 1218 l 711 993 l 571 993 l 449 1218 l 624 1218 z "},"Ü":{"ha":986,"x_min":101,"x_max":885,"o":"m 885 917 l 885 361 q 785 80 885 174 q 493 -14 685 -14 q 201 80 301 -14 q 101 361 101 174 l 101 917 l 293 917 l 293 369 q 342 199 293 254 q 493 143 392 143 q 643 199 594 143 q 692 369 692 254 l 692 917 l 885 917 m 346 1181 q 423 1155 394 1181 q 451 1083 451 1129 q 423 1013 451 1039 q 346 986 394 986 q 271 1013 299 986 q 243 1083 243 1039 q 271 1155 243 1129 q 346 1181 299 1181 m 638 1181 q 715 1155 688 1181 q 743 1083 743 1129 q 715 1013 743 1039 q 638 986 688 986 q 563 1013 590 986 q 535 1083 535 1039 q 563 1155 535 1129 q 638 1181 590 1181 z "},"Ụ":{"ha":986,"x_min":101,"x_max":885,"o":"m 885 917 l 885 361 q 785 80 885 174 q 493 -14 685 -14 q 201 80 301 -14 q 101 361 101 174 l 101 917 l 293 917 l 293 369 q 342 199 293 254 q 493 143 392 143 q 643 199 594 143 q 692 369 692 254 l 692 917 l 885 917 m 493 -306 q 411 -278 440 -306 q 382 -204 382 -251 q 411 -129 382 -156 q 493 -103 440 -103 q 576 -129 547 -103 q 606 -204 606 -156 q 576 -278 606 -251 q 493 -306 547 -306 z "},"Ù":{"ha":986,"x_min":101,"x_max":885,"o":"m 885 917 l 885 361 q 785 80 885 174 q 493 -14 685 -14 q 201 80 301 -14 q 101 361 101 174 l 101 917 l 293 917 l 293 369 q 342 199 293 254 q 493 143 392 143 q 643 199 594 143 q 692 369 692 254 l 692 917 l 885 917 m 490 1218 l 578 993 l 438 993 l 315 1218 l 490 1218 z "},"Ủ":{"ha":986,"x_min":101,"x_max":885,"o":"m 885 917 l 885 361 q 785 80 885 174 q 493 -14 685 -14 q 201 80 301 -14 q 101 361 101 174 l 101 917 l 293 917 l 293 369 q 342 199 293 254 q 493 143 392 143 q 643 199 594 143 q 692 369 692 254 l 692 917 l 885 917 m 494 958 l 449 1019 q 503 1056 486 1038 q 519 1097 519 1074 q 507 1131 519 1118 q 471 1144 494 1144 q 437 1135 450 1144 q 413 1104 424 1125 l 321 1154 q 383 1229 339 1203 q 488 1256 426 1256 q 564 1240 529 1256 q 619 1194 599 1224 q 639 1122 639 1164 q 619 1047 639 1079 q 566 992 599 1014 q 494 958 533 971 z "},"Ư":{"ha":986,"x_min":101,"x_max":1038,"o":"m 885 917 l 885 361 q 785 80 885 174 q 493 -14 685 -14 q 201 80 301 -14 q 101 361 101 174 l 101 917 l 293 917 l 293 369 q 342 199 293 254 q 493 143 392 143 q 643 199 594 143 q 692 369 692 254 l 692 917 l 885 917 m 1038 1064 q 971 869 1038 939 q 776 800 904 800 l 760 917 q 864 953 833 917 q 894 1064 894 990 l 1038 1064 z "},"Ứ":{"ha":986,"x_min":101,"x_max":1038,"o":"m 885 917 l 885 361 q 785 80 885 174 q 493 -14 685 -14 q 201 80 301 -14 q 101 361 101 174 l 101 917 l 293 917 l 293 369 q 342 199 293 254 q 493 143 392 143 q 643 199 594 143 q 692 369 692 254 l 692 917 l 885 917 m 1038 1064 q 971 869 1038 939 q 776 800 904 800 l 760 917 q 864 953 833 917 q 894 1064 894 990 l 1038 1064 m 496 1218 l 671 1218 l 549 993 l 408 993 l 496 1218 z "},"Ự":{"ha":986,"x_min":101,"x_max":1038,"o":"m 885 917 l 885 361 q 785 80 885 174 q 493 -14 685 -14 q 201 80 301 -14 q 101 361 101 174 l 101 917 l 293 917 l 293 369 q 342 199 293 254 q 493 143 392 143 q 643 199 594 143 q 692 369 692 254 l 692 917 l 885 917 m 1038 1064 q 971 869 1038 939 q 776 800 904 800 l 760 917 q 864 953 833 917 q 894 1064 894 990 l 1038 1064 m 493 -306 q 411 -278 440 -306 q 382 -204 382 -251 q 411 -129 382 -156 q 493 -103 440 -103 q 576 -129 547 -103 q 606 -204 606 -156 q 576 -278 606 -251 q 493 -306 547 -306 z "},"Ừ":{"ha":986,"x_min":101,"x_max":1038,"o":"m 885 917 l 885 361 q 785 80 885 174 q 493 -14 685 -14 q 201 80 301 -14 q 101 361 101 174 l 101 917 l 293 917 l 293 369 q 342 199 293 254 q 493 143 392 143 q 643 199 594 143 q 692 369 692 254 l 692 917 l 885 917 m 1038 1064 q 971 869 1038 939 q 776 800 904 800 l 760 917 q 864 953 833 917 q 894 1064 894 990 l 1038 1064 m 490 1218 l 578 993 l 438 993 l 315 1218 l 490 1218 z "},"Ử":{"ha":986,"x_min":101,"x_max":1038,"o":"m 885 917 l 885 361 q 785 80 885 174 q 493 -14 685 -14 q 201 80 301 -14 q 101 361 101 174 l 101 917 l 293 917 l 293 369 q 342 199 293 254 q 493 143 392 143 q 643 199 594 143 q 692 369 692 254 l 692 917 l 885 917 m 1038 1064 q 971 869 1038 939 q 776 800 904 800 l 760 917 q 864 953 833 917 q 894 1064 894 990 l 1038 1064 m 494 958 l 449 1019 q 503 1056 486 1038 q 519 1097 519 1074 q 507 1131 519 1118 q 471 1144 494 1144 q 437 1135 450 1144 q 413 1104 424 1125 l 321 1154 q 383 1229 339 1203 q 488 1256 426 1256 q 564 1240 529 1256 q 619 1194 599 1224 q 639 1122 639 1164 q 619 1047 639 1079 q 566 992 599 1014 q 494 958 533 971 z "},"Ữ":{"ha":986,"x_min":101,"x_max":1038,"o":"m 885 917 l 885 361 q 785 80 885 174 q 493 -14 685 -14 q 201 80 301 -14 q 101 361 101 174 l 101 917 l 293 917 l 293 369 q 342 199 293 254 q 493 143 392 143 q 643 199 594 143 q 692 369 692 254 l 692 917 l 885 917 m 1038 1064 q 971 869 1038 939 q 776 800 904 800 l 760 917 q 864 953 833 917 q 894 1064 894 990 l 1038 1064 m 758 1199 q 734 1083 756 1129 q 676 1013 713 1036 q 593 990 640 990 q 526 1003 554 990 q 478 1033 499 1017 q 440 1062 458 1049 q 400 1075 421 1075 q 360 1053 374 1075 q 342 990 347 1032 l 225 990 q 276 1147 231 1094 q 397 1199 321 1199 q 462 1185 435 1199 q 508 1156 489 1172 q 545 1126 528 1139 q 583 1114 563 1114 q 624 1135 611 1114 q 642 1199 638 1157 l 758 1199 z "},"Ű":{"ha":986,"x_min":101,"x_max":885,"o":"m 885 917 l 885 361 q 785 80 885 174 q 493 -14 685 -14 q 201 80 301 -14 q 101 361 101 174 l 101 917 l 293 917 l 293 369 q 342 199 293 254 q 493 143 392 143 q 643 199 594 143 q 692 369 692 254 l 692 917 l 885 917 m 649 1218 l 824 1218 l 701 993 l 561 993 l 649 1218 m 363 1218 l 538 1218 l 415 993 l 275 993 l 363 1218 z "},"Ȗ":{"ha":986,"x_min":101,"x_max":885,"o":"m 885 917 l 885 361 q 785 80 885 174 q 493 -14 685 -14 q 201 80 301 -14 q 101 361 101 174 l 101 917 l 293 917 l 293 369 q 342 199 293 254 q 493 143 392 143 q 643 199 594 143 q 692 369 692 254 l 692 917 l 885 917 m 717 983 l 588 983 q 564 1058 588 1028 q 493 1088 540 1088 q 423 1058 447 1088 q 399 983 399 1028 l 269 983 q 331 1142 269 1083 q 493 1201 392 1201 q 656 1142 596 1201 q 717 983 717 1083 z "},"Ū":{"ha":986,"x_min":101,"x_max":885,"o":"m 885 917 l 885 361 q 785 80 885 174 q 493 -14 685 -14 q 201 80 301 -14 q 101 361 101 174 l 101 917 l 293 917 l 293 369 q 342 199 293 254 q 493 143 392 143 q 643 199 594 143 q 692 369 692 254 l 692 917 l 885 917 m 736 1132 l 736 1006 l 250 1006 l 250 1132 l 736 1132 z "},"Ṻ":{"ha":986,"x_min":101,"x_max":885,"o":"m 885 917 l 885 361 q 785 80 885 174 q 493 -14 685 -14 q 201 80 301 -14 q 101 361 101 174 l 101 917 l 293 917 l 293 369 q 342 199 293 254 q 493 143 392 143 q 643 199 594 143 q 692 369 692 254 l 692 917 l 885 917 m 736 1132 l 736 1006 l 250 1006 l 250 1132 l 736 1132 m 346 1413 q 423 1387 394 1413 q 451 1315 451 1361 q 423 1244 451 1271 q 346 1218 394 1218 q 271 1244 299 1218 q 243 1315 243 1271 q 271 1387 243 1361 q 346 1413 299 1413 m 638 1413 q 715 1387 688 1413 q 743 1315 743 1361 q 715 1244 743 1271 q 638 1218 688 1218 q 563 1244 590 1218 q 535 1315 535 1271 q 563 1387 535 1361 q 638 1413 590 1413 z "},"Ų":{"ha":986,"x_min":101,"x_max":885,"o":"m 885 917 l 885 361 q 785 80 885 174 q 493 -14 685 -14 q 201 80 301 -14 q 101 361 101 174 l 101 917 l 293 917 l 293 369 q 342 199 293 254 q 493 143 392 143 q 643 199 594 143 q 692 369 692 254 l 692 917 l 885 917 m 558 -304 q 426 -263 474 -304 q 379 -154 379 -222 q 434 -28 379 -74 q 592 43 489 18 l 672 14 q 573 -30 608 -8 q 524 -74 538 -51 q 510 -124 510 -96 q 531 -173 510 -156 q 589 -190 553 -190 q 625 -187 607 -190 q 657 -176 643 -183 l 679 -279 q 625 -298 656 -292 q 558 -304 594 -304 z "},"Ů":{"ha":986,"x_min":101,"x_max":885,"o":"m 885 917 l 885 361 q 785 80 885 174 q 493 -14 685 -14 q 201 80 301 -14 q 101 361 101 174 l 101 917 l 293 917 l 293 369 q 342 199 293 254 q 493 143 392 143 q 643 199 594 143 q 692 369 692 254 l 692 917 l 885 917 m 490 1293 q 626 1247 575 1293 q 676 1122 676 1200 q 626 998 676 1044 q 490 951 575 951 q 355 998 407 951 q 303 1122 303 1044 q 355 1247 303 1200 q 490 1293 407 1293 m 490 1204 q 431 1181 454 1204 q 407 1122 407 1158 q 431 1064 407 1086 q 490 1042 454 1042 q 551 1064 528 1042 q 574 1122 574 1086 q 551 1181 574 1158 q 490 1204 528 1204 z "},"Ũ":{"ha":986,"x_min":101,"x_max":885,"o":"m 885 917 l 885 361 q 785 80 885 174 q 493 -14 685 -14 q 201 80 301 -14 q 101 361 101 174 l 101 917 l 293 917 l 293 369 q 342 199 293 254 q 493 143 392 143 q 643 199 594 143 q 692 369 692 254 l 692 917 l 885 917 m 758 1199 q 734 1083 756 1129 q 676 1013 713 1036 q 593 990 640 990 q 526 1003 554 990 q 478 1033 499 1017 q 440 1062 458 1049 q 400 1075 421 1075 q 360 1053 374 1075 q 342 990 347 1032 l 225 990 q 276 1147 231 1094 q 397 1199 321 1199 q 462 1185 435 1199 q 508 1156 489 1172 q 545 1126 528 1139 q 583 1114 563 1114 q 624 1135 611 1114 q 642 1199 638 1157 l 758 1199 z "},"Ṹ":{"ha":986,"x_min":101,"x_max":885,"o":"m 885 917 l 885 361 q 785 80 885 174 q 493 -14 685 -14 q 201 80 301 -14 q 101 361 101 174 l 101 917 l 293 917 l 293 369 q 342 199 293 254 q 493 143 392 143 q 643 199 594 143 q 692 369 692 254 l 692 917 l 885 917 m 758 1199 q 734 1083 756 1129 q 676 1013 713 1036 q 593 990 640 990 q 526 1003 554 990 q 478 1033 499 1017 q 440 1062 458 1049 q 400 1075 421 1075 q 360 1053 374 1075 q 342 990 347 1032 l 225 990 q 276 1147 231 1094 q 397 1199 321 1199 q 462 1185 435 1199 q 508 1156 489 1172 q 545 1126 528 1139 q 583 1114 563 1114 q 624 1135 611 1114 q 642 1199 638 1157 l 758 1199 m 494 1499 l 669 1499 l 547 1274 l 407 1274 l 494 1499 z "},"V":{"ha":931,"x_min":19,"x_max":911,"o":"m 911 917 l 578 0 l 354 0 l 19 917 l 222 917 l 415 333 l 468 153 l 519 332 l 714 917 l 911 917 z "},"W":{"ha":1367,"x_min":26,"x_max":1339,"o":"m 293 0 l 26 917 l 231 917 l 411 160 l 594 917 l 778 917 l 964 160 l 1143 917 l 1339 917 l 1072 0 l 857 0 l 729 500 l 686 717 l 683 717 l 640 500 l 514 0 l 293 0 z "},"Ẃ":{"ha":1367,"x_min":26,"x_max":1339,"o":"m 293 0 l 26 917 l 231 917 l 411 160 l 594 917 l 778 917 l 964 160 l 1143 917 l 1339 917 l 1072 0 l 857 0 l 729 500 l 686 717 l 683 717 l 640 500 l 514 0 l 293 0 m 686 1239 l 861 1239 l 739 1014 l 599 1014 l 686 1239 z "},"Ŵ":{"ha":1367,"x_min":26,"x_max":1339,"o":"m 293 0 l 26 917 l 231 917 l 411 160 l 594 917 l 778 917 l 964 160 l 1143 917 l 1339 917 l 1072 0 l 857 0 l 729 500 l 686 717 l 683 717 l 640 500 l 514 0 l 293 0 m 924 1014 l 781 1014 l 683 1150 l 586 1014 l 443 1014 l 588 1239 l 779 1239 l 924 1014 z "},"Ẅ":{"ha":1367,"x_min":26,"x_max":1339,"o":"m 293 0 l 26 917 l 231 917 l 411 160 l 594 917 l 778 917 l 964 160 l 1143 917 l 1339 917 l 1072 0 l 857 0 l 729 500 l 686 717 l 683 717 l 640 500 l 514 0 l 293 0 m 536 1201 q 613 1176 585 1201 q 642 1104 642 1150 q 613 1033 642 1060 q 536 1007 585 1007 q 461 1033 489 1007 q 433 1104 433 1060 q 461 1176 433 1150 q 536 1201 489 1201 m 828 1201 q 906 1176 878 1201 q 933 1104 933 1150 q 906 1033 933 1060 q 828 1007 878 1007 q 753 1033 781 1007 q 725 1104 725 1060 q 753 1176 725 1150 q 828 1201 781 1201 z "},"Ẁ":{"ha":1367,"x_min":26,"x_max":1339,"o":"m 293 0 l 26 917 l 231 917 l 411 160 l 594 917 l 778 917 l 964 160 l 1143 917 l 1339 917 l 1072 0 l 857 0 l 729 500 l 686 717 l 683 717 l 640 500 l 514 0 l 293 0 m 681 1239 l 768 1014 l 628 1014 l 506 1239 l 681 1239 z "},"X":{"ha":889,"x_min":22,"x_max":867,"o":"m 867 0 l 639 0 l 439 325 l 242 0 l 22 0 l 338 463 l 44 917 l 269 917 l 454 608 l 642 917 l 850 917 l 556 469 l 867 0 z "},"Y":{"ha":869,"x_min":14,"x_max":856,"o":"m 856 917 l 531 343 l 531 0 l 339 0 l 339 343 l 14 917 l 218 917 l 365 643 l 435 499 l 506 643 l 653 917 l 856 917 z "},"Ý":{"ha":869,"x_min":14,"x_max":856,"o":"m 856 917 l 531 343 l 531 0 l 339 0 l 339 343 l 14 917 l 218 917 l 365 643 l 435 499 l 506 643 l 653 917 l 856 917 m 438 1222 l 613 1222 l 490 997 l 350 997 l 438 1222 z "},"Ŷ":{"ha":869,"x_min":14,"x_max":856,"o":"m 856 917 l 531 343 l 531 0 l 339 0 l 339 343 l 14 917 l 218 917 l 365 643 l 435 499 l 506 643 l 653 917 l 856 917 m 675 997 l 532 997 l 435 1133 l 338 997 l 194 997 l 339 1222 l 531 1222 l 675 997 z "},"Ÿ":{"ha":869,"x_min":14,"x_max":856,"o":"m 856 917 l 531 343 l 531 0 l 339 0 l 339 343 l 14 917 l 218 917 l 365 643 l 435 499 l 506 643 l 653 917 l 856 917 m 288 1185 q 365 1159 336 1185 q 393 1088 393 1133 q 365 1017 393 1043 q 288 990 336 990 q 213 1017 240 990 q 185 1088 185 1043 q 213 1159 185 1133 q 288 1185 240 1185 m 579 1185 q 657 1159 629 1185 q 685 1088 685 1133 q 657 1017 685 1043 q 579 990 629 990 q 504 1017 532 990 q 476 1088 476 1043 q 504 1159 476 1133 q 579 1185 532 1185 z "},"Ẏ":{"ha":869,"x_min":14,"x_max":856,"o":"m 856 917 l 531 343 l 531 0 l 339 0 l 339 343 l 14 917 l 218 917 l 365 643 l 435 499 l 506 643 l 653 917 l 856 917 m 435 1206 q 518 1178 489 1206 q 547 1104 547 1151 q 518 1029 547 1056 q 435 1003 489 1003 q 353 1029 382 1003 q 324 1104 324 1056 q 353 1178 324 1151 q 435 1206 382 1206 z "},"Ỵ":{"ha":869,"x_min":14,"x_max":856,"o":"m 856 917 l 531 343 l 531 0 l 339 0 l 339 343 l 14 917 l 218 917 l 365 643 l 435 499 l 506 643 l 653 917 l 856 917 m 435 -306 q 353 -278 382 -306 q 324 -204 324 -251 q 353 -129 324 -156 q 435 -103 382 -103 q 518 -129 489 -103 q 547 -204 547 -156 q 518 -278 547 -251 q 435 -306 489 -306 z "},"Ỳ":{"ha":869,"x_min":14,"x_max":856,"o":"m 856 917 l 531 343 l 531 0 l 339 0 l 339 343 l 14 917 l 218 917 l 365 643 l 435 499 l 506 643 l 653 917 l 856 917 m 432 1222 l 519 997 l 379 997 l 257 1222 l 432 1222 z "},"Ỷ":{"ha":869,"x_min":14,"x_max":856,"o":"m 856 917 l 531 343 l 531 0 l 339 0 l 339 343 l 14 917 l 218 917 l 365 643 l 435 499 l 506 643 l 653 917 l 856 917 m 435 963 l 389 1024 q 443 1060 426 1042 q 460 1101 460 1078 q 447 1135 460 1122 q 411 1149 435 1149 q 377 1139 390 1149 q 353 1108 364 1129 l 261 1158 q 323 1233 279 1207 q 428 1260 367 1260 q 504 1244 469 1260 q 559 1198 539 1228 q 579 1126 579 1168 q 559 1051 579 1083 q 506 997 539 1018 q 435 963 474 975 z "},"Ȳ":{"ha":869,"x_min":14,"x_max":856,"o":"m 856 917 l 531 343 l 531 0 l 339 0 l 339 343 l 14 917 l 218 917 l 365 643 l 435 499 l 506 643 l 653 917 l 856 917 m 678 1136 l 678 1010 l 192 1010 l 192 1136 l 678 1136 z "},"Ỹ":{"ha":869,"x_min":14,"x_max":856,"o":"m 856 917 l 531 343 l 531 0 l 339 0 l 339 343 l 14 917 l 218 917 l 365 643 l 435 499 l 506 643 l 653 917 l 856 917 m 700 1203 q 676 1087 697 1133 q 618 1017 654 1040 q 535 994 582 994 q 468 1008 496 994 q 420 1037 440 1021 q 381 1066 400 1053 q 342 1079 363 1079 q 302 1058 315 1079 q 283 994 289 1036 l 167 994 q 217 1151 172 1099 q 339 1203 263 1203 q 403 1190 376 1203 q 450 1160 431 1176 q 487 1131 469 1143 q 525 1118 504 1118 q 566 1140 553 1118 q 583 1203 579 1161 l 700 1203 z "},"Z":{"ha":879,"x_min":61,"x_max":824,"o":"m 217 86 l 182 153 l 824 153 l 824 0 l 61 0 l 61 144 l 653 831 l 686 764 l 72 764 l 72 917 l 807 917 l 807 772 l 217 86 z "},"Ź":{"ha":879,"x_min":61,"x_max":824,"o":"m 217 86 l 182 153 l 824 153 l 824 0 l 61 0 l 61 144 l 653 831 l 686 764 l 72 764 l 72 917 l 807 917 l 807 772 l 217 86 m 440 1239 l 615 1239 l 493 1014 l 353 1014 l 440 1239 z "},"Ž":{"ha":879,"x_min":61,"x_max":824,"o":"m 217 86 l 182 153 l 824 153 l 824 0 l 61 0 l 61 144 l 653 831 l 686 764 l 72 764 l 72 917 l 807 917 l 807 772 l 217 86 m 678 1239 l 533 1014 l 342 1014 l 197 1239 l 340 1239 l 438 1104 l 535 1239 l 678 1239 z "},"Ż":{"ha":879,"x_min":61,"x_max":824,"o":"m 217 86 l 182 153 l 824 153 l 824 0 l 61 0 l 61 144 l 653 831 l 686 764 l 72 764 l 72 917 l 807 917 l 807 772 l 217 86 m 438 1222 q 521 1195 492 1222 q 550 1121 550 1168 q 521 1046 550 1072 q 438 1019 492 1019 q 356 1046 385 1019 q 326 1121 326 1072 q 356 1195 326 1168 q 438 1222 385 1222 z "},"Ẓ":{"ha":879,"x_min":61,"x_max":824,"o":"m 217 86 l 182 153 l 824 153 l 824 0 l 61 0 l 61 144 l 653 831 l 686 764 l 72 764 l 72 917 l 807 917 l 807 772 l 217 86 m 425 -306 q 343 -278 372 -306 q 314 -204 314 -251 q 343 -129 314 -156 q 425 -103 372 -103 q 508 -129 479 -103 q 538 -204 538 -156 q 508 -278 538 -251 q 425 -306 479 -306 z "},"a":{"ha":797,"x_min":63,"x_max":779,"o":"m 496 443 q 462 536 496 503 q 372 569 428 569 q 282 543 321 569 q 225 456 243 517 l 63 506 q 166 653 86 597 q 381 708 246 708 q 540 680 472 708 q 647 594 608 651 q 685 451 685 538 l 685 169 q 735 117 685 117 q 779 124 758 117 l 768 6 q 678 -12 732 -12 q 590 4 629 -12 q 529 55 551 21 q 507 140 507 89 l 507 146 l 540 151 q 494 62 532 99 q 403 6 457 25 q 293 -14 350 -14 q 171 8 222 -14 q 92 71 119 29 q 64 174 64 113 q 114 301 64 251 q 257 368 164 350 l 518 421 l 517 303 l 350 269 q 278 244 303 260 q 254 192 254 228 q 280 139 254 157 q 342 121 306 121 q 399 128 371 121 q 449 150 426 135 q 483 192 471 165 q 496 256 496 218 l 496 443 z "},"á":{"ha":797,"x_min":63,"x_max":779,"o":"m 496 443 q 462 536 496 503 q 372 569 428 569 q 282 543 321 569 q 225 456 243 517 l 63 506 q 166 653 86 597 q 381 708 246 708 q 540 680 472 708 q 647 594 608 651 q 685 451 685 538 l 685 169 q 735 117 685 117 q 779 124 758 117 l 768 6 q 678 -12 732 -12 q 590 4 629 -12 q 529 55 551 21 q 507 140 507 89 l 507 146 l 540 151 q 494 62 532 99 q 403 6 457 25 q 293 -14 350 -14 q 171 8 222 -14 q 92 71 119 29 q 64 174 64 113 q 114 301 64 251 q 257 368 164 350 l 518 421 l 517 303 l 350 269 q 278 244 303 260 q 254 192 254 228 q 280 139 254 157 q 342 121 306 121 q 399 128 371 121 q 449 150 426 135 q 483 192 471 165 q 496 256 496 218 l 496 443 m 388 1031 l 571 1031 l 432 794 l 292 794 l 388 1031 z "},"ă":{"ha":797,"x_min":63,"x_max":779,"o":"m 496 443 q 462 536 496 503 q 372 569 428 569 q 282 543 321 569 q 225 456 243 517 l 63 506 q 166 653 86 597 q 381 708 246 708 q 540 680 472 708 q 647 594 608 651 q 685 451 685 538 l 685 169 q 735 117 685 117 q 779 124 758 117 l 768 6 q 678 -12 732 -12 q 590 4 629 -12 q 529 55 551 21 q 507 140 507 89 l 507 146 l 540 151 q 494 62 532 99 q 403 6 457 25 q 293 -14 350 -14 q 171 8 222 -14 q 92 71 119 29 q 64 174 64 113 q 114 301 64 251 q 257 368 164 350 l 518 421 l 517 303 l 350 269 q 278 244 303 260 q 254 192 254 228 q 280 139 254 157 q 342 121 306 121 q 399 128 371 121 q 449 150 426 135 q 483 192 471 165 q 496 256 496 218 l 496 443 m 607 1000 q 547 841 607 900 q 383 782 486 782 q 221 841 282 782 q 160 1000 160 900 l 289 1000 q 313 926 289 956 q 383 896 338 896 q 454 926 431 896 q 478 1000 478 956 l 607 1000 z "},"ắ":{"ha":797,"x_min":61,"x_max":779,"o":"m 599 992 q 540 839 599 896 q 383 782 482 782 q 228 839 286 782 q 169 992 169 896 l 292 992 q 315 919 292 949 q 383 889 339 889 q 452 919 429 889 q 476 992 475 949 l 599 992 m 297 1019 l 369 1211 l 533 1211 l 428 1019 l 297 1019 m 494 443 q 463 536 494 503 q 374 569 432 569 q 279 544 318 569 q 225 456 240 518 l 67 506 q 168 653 88 597 q 383 708 249 708 q 544 680 476 708 q 648 597 611 651 q 685 460 685 542 l 685 169 q 738 118 685 118 q 779 124 760 118 l 769 7 q 678 -11 733 -11 q 589 6 628 -11 q 528 56 550 22 q 506 142 506 90 l 506 156 l 535 153 q 486 63 524 100 q 397 6 449 25 q 290 -14 346 -14 q 172 8 224 -14 q 90 71 119 29 q 61 174 61 113 q 112 300 61 250 q 256 368 163 350 l 517 421 l 517 321 l 350 286 q 271 253 296 275 q 246 194 246 232 q 272 138 246 160 q 347 115 299 115 q 403 124 376 115 q 450 149 429 132 q 483 190 471 165 q 494 247 494 214 l 494 443 z "},"ặ":{"ha":797,"x_min":63,"x_max":779,"o":"m 496 443 q 462 536 496 503 q 372 569 428 569 q 282 543 321 569 q 225 456 243 517 l 63 506 q 166 653 86 597 q 381 708 246 708 q 540 680 472 708 q 647 594 608 651 q 685 451 685 538 l 685 169 q 735 117 685 117 q 779 124 758 117 l 768 6 q 678 -12 732 -12 q 590 4 629 -12 q 529 55 551 21 q 507 140 507 89 l 507 146 l 540 151 q 494 62 532 99 q 403 6 457 25 q 293 -14 350 -14 q 171 8 222 -14 q 92 71 119 29 q 64 174 64 113 q 114 301 64 251 q 257 368 164 350 l 518 421 l 517 303 l 350 269 q 278 244 303 260 q 254 192 254 228 q 280 139 254 157 q 342 121 306 121 q 399 128 371 121 q 449 150 426 135 q 483 192 471 165 q 496 256 496 218 l 496 443 m 388 -306 q 306 -278 335 -306 q 276 -204 276 -251 q 306 -129 276 -156 q 388 -103 335 -103 q 471 -129 442 -103 q 500 -204 500 -156 q 471 -278 500 -251 q 388 -306 442 -306 m 607 1000 q 547 841 607 900 q 383 782 486 782 q 221 841 282 782 q 160 1000 160 900 l 289 1000 q 313 926 289 956 q 383 896 338 896 q 454 926 431 896 q 478 1000 478 956 l 607 1000 z "},"ằ":{"ha":797,"x_min":61,"x_max":779,"o":"m 599 992 q 540 839 599 896 q 383 782 482 782 q 228 839 286 782 q 169 992 169 896 l 292 992 q 315 919 292 949 q 383 889 339 889 q 452 919 429 889 q 476 992 475 949 l 599 992 m 471 1019 l 340 1019 l 235 1211 l 399 1211 l 471 1019 m 494 443 q 463 536 494 503 q 374 569 432 569 q 279 544 318 569 q 225 456 240 518 l 67 506 q 168 653 88 597 q 383 708 249 708 q 544 680 476 708 q 648 597 611 651 q 685 460 685 542 l 685 169 q 738 118 685 118 q 779 124 760 118 l 769 7 q 678 -11 733 -11 q 589 6 628 -11 q 528 56 550 22 q 506 142 506 90 l 506 156 l 535 153 q 486 63 524 100 q 397 6 449 25 q 290 -14 346 -14 q 172 8 224 -14 q 90 71 119 29 q 61 174 61 113 q 112 300 61 250 q 256 368 163 350 l 517 421 l 517 321 l 350 286 q 271 253 296 275 q 246 194 246 232 q 272 138 246 160 q 347 115 299 115 q 403 124 376 115 q 450 149 429 132 q 483 190 471 165 q 494 247 494 214 l 494 443 z "},"ẳ":{"ha":797,"x_min":61,"x_max":779,"o":"m 599 992 q 540 839 599 896 q 383 782 482 782 q 228 839 286 782 q 169 992 169 896 l 292 992 q 315 919 292 949 q 383 889 339 889 q 452 919 429 889 q 476 992 475 949 l 599 992 m 385 997 l 340 1056 q 393 1090 376 1072 q 410 1132 410 1107 q 398 1163 410 1150 q 361 1176 386 1176 q 328 1167 342 1176 q 306 1138 315 1158 l 218 1186 q 278 1258 236 1232 q 378 1283 319 1283 q 452 1267 419 1283 q 504 1223 485 1251 q 524 1154 524 1194 q 504 1083 524 1114 q 453 1031 485 1051 q 385 997 422 1010 m 494 443 q 463 536 494 503 q 374 569 432 569 q 279 544 318 569 q 225 456 240 518 l 67 506 q 168 653 88 597 q 383 708 249 708 q 544 680 476 708 q 648 597 611 651 q 685 460 685 542 l 685 169 q 738 118 685 118 q 779 124 760 118 l 769 7 q 678 -11 733 -11 q 589 6 628 -11 q 528 56 550 22 q 506 142 506 90 l 506 156 l 535 153 q 486 63 524 100 q 397 6 449 25 q 290 -14 346 -14 q 172 8 224 -14 q 90 71 119 29 q 61 174 61 113 q 112 300 61 250 q 256 368 163 350 l 517 421 l 517 321 l 350 286 q 271 253 296 275 q 246 194 246 232 q 272 138 246 160 q 347 115 299 115 q 403 124 376 115 q 450 149 429 132 q 483 190 471 165 q 494 247 494 214 l 494 443 z "},"ẵ":{"ha":797,"x_min":61,"x_max":779,"o":"m 599 992 q 540 839 599 896 q 385 782 482 782 q 228 839 286 782 q 169 992 169 896 l 292 992 q 316 919 293 949 q 385 889 339 889 q 453 919 431 889 q 476 992 476 949 l 599 992 m 635 1225 q 586 1080 629 1126 q 478 1033 543 1033 q 415 1045 440 1033 q 370 1072 389 1057 q 335 1099 351 1088 q 299 1111 318 1111 q 261 1092 274 1111 q 243 1036 249 1074 l 133 1036 q 183 1181 139 1135 q 296 1228 226 1228 q 357 1216 332 1228 q 400 1189 382 1204 q 434 1162 418 1174 q 469 1150 450 1150 q 506 1168 493 1150 q 524 1225 518 1186 l 635 1225 m 494 443 q 463 536 494 503 q 374 569 432 569 q 279 544 318 569 q 225 456 240 518 l 67 506 q 168 653 88 597 q 383 708 249 708 q 544 680 476 708 q 648 597 611 651 q 685 460 685 542 l 685 169 q 738 118 685 118 q 779 124 760 118 l 769 7 q 678 -11 733 -11 q 589 6 628 -11 q 528 56 550 22 q 506 142 506 90 l 506 156 l 535 153 q 486 63 524 100 q 397 6 449 25 q 290 -14 346 -14 q 172 8 224 -14 q 90 71 119 29 q 61 174 61 113 q 112 300 61 250 q 256 368 163 350 l 517 421 l 517 321 l 350 286 q 271 253 296 275 q 246 194 246 232 q 272 138 246 160 q 347 115 299 115 q 403 124 376 115 q 450 149 429 132 q 483 190 471 165 q 494 247 494 214 l 494 443 z "},"â":{"ha":797,"x_min":63,"x_max":779,"o":"m 496 443 q 462 536 496 503 q 372 569 428 569 q 282 543 321 569 q 225 456 243 517 l 63 506 q 166 653 86 597 q 381 708 246 708 q 540 680 472 708 q 647 594 608 651 q 685 451 685 538 l 685 169 q 735 117 685 117 q 779 124 758 117 l 768 6 q 678 -12 732 -12 q 590 4 629 -12 q 529 55 551 21 q 507 140 507 89 l 507 146 l 540 151 q 494 62 532 99 q 403 6 457 25 q 293 -14 350 -14 q 171 8 222 -14 q 92 71 119 29 q 64 174 64 113 q 114 301 64 251 q 257 368 164 350 l 518 421 l 517 303 l 350 269 q 278 244 303 260 q 254 192 254 228 q 280 139 254 157 q 342 121 306 121 q 399 128 371 121 q 449 150 426 135 q 483 192 471 165 q 496 256 496 218 l 496 443 m 633 785 l 488 785 l 383 921 l 279 785 l 133 785 l 288 1022 l 479 1022 l 633 785 z "},"ấ":{"ha":797,"x_min":61,"x_max":813,"o":"m 622 785 l 485 785 l 383 918 l 283 785 l 146 785 l 294 1013 l 474 1013 l 622 785 m 656 1138 l 813 1138 l 704 936 l 576 936 l 656 1138 m 494 443 q 463 536 494 503 q 374 569 432 569 q 279 544 318 569 q 225 456 240 518 l 67 506 q 168 653 88 597 q 383 708 249 708 q 544 680 476 708 q 648 597 611 651 q 685 460 685 542 l 685 169 q 738 118 685 118 q 779 124 760 118 l 769 7 q 678 -11 733 -11 q 589 6 628 -11 q 528 56 550 22 q 506 142 506 90 l 506 156 l 535 153 q 486 63 524 100 q 397 6 449 25 q 290 -14 346 -14 q 172 8 224 -14 q 90 71 119 29 q 61 174 61 113 q 112 300 61 250 q 256 368 163 350 l 517 421 l 517 321 l 350 286 q 271 253 296 275 q 246 194 246 232 q 272 138 246 160 q 347 115 299 115 q 403 124 376 115 q 450 149 429 132 q 483 190 471 165 q 494 247 494 214 l 494 443 z "},"ậ":{"ha":797,"x_min":63,"x_max":779,"o":"m 496 443 q 462 536 496 503 q 372 569 428 569 q 282 543 321 569 q 225 456 243 517 l 63 506 q 166 653 86 597 q 381 708 246 708 q 540 680 472 708 q 647 594 608 651 q 685 451 685 538 l 685 169 q 735 117 685 117 q 779 124 758 117 l 768 6 q 678 -12 732 -12 q 590 4 629 -12 q 529 55 551 21 q 507 140 507 89 l 507 146 l 540 151 q 494 62 532 99 q 403 6 457 25 q 293 -14 350 -14 q 171 8 222 -14 q 92 71 119 29 q 64 174 64 113 q 114 301 64 251 q 257 368 164 350 l 518 421 l 517 303 l 350 269 q 278 244 303 260 q 254 192 254 228 q 280 139 254 157 q 342 121 306 121 q 399 128 371 121 q 449 150 426 135 q 483 192 471 165 q 496 256 496 218 l 496 443 m 388 -306 q 306 -278 335 -306 q 276 -204 276 -251 q 306 -129 276 -156 q 388 -103 335 -103 q 471 -129 442 -103 q 500 -204 500 -156 q 471 -278 500 -251 q 388 -306 442 -306 m 633 785 l 488 785 l 383 921 l 279 785 l 133 785 l 288 1022 l 479 1022 l 633 785 z "},"ầ":{"ha":797,"x_min":61,"x_max":779,"o":"m 622 785 l 485 785 l 383 918 l 283 785 l 146 785 l 294 1013 l 474 1013 l 622 785 m 650 1138 l 729 936 l 603 936 l 493 1138 l 650 1138 m 494 443 q 463 536 494 503 q 374 569 432 569 q 279 544 318 569 q 225 456 240 518 l 67 506 q 168 653 88 597 q 383 708 249 708 q 544 680 476 708 q 648 597 611 651 q 685 460 685 542 l 685 169 q 738 118 685 118 q 779 124 760 118 l 769 7 q 678 -11 733 -11 q 589 6 628 -11 q 528 56 550 22 q 506 142 506 90 l 506 156 l 535 153 q 486 63 524 100 q 397 6 449 25 q 290 -14 346 -14 q 172 8 224 -14 q 90 71 119 29 q 61 174 61 113 q 112 300 61 250 q 256 368 163 350 l 517 421 l 517 321 l 350 286 q 271 253 296 275 q 246 194 246 232 q 272 138 246 160 q 347 115 299 115 q 403 124 376 115 q 450 149 429 132 q 483 190 471 165 q 494 247 494 214 l 494 443 z "},"ẩ":{"ha":797,"x_min":61,"x_max":779,"o":"m 622 785 l 485 785 l 383 918 l 283 785 l 146 785 l 294 1013 l 474 1013 l 622 785 m 622 911 l 575 971 q 630 1007 613 989 q 647 1050 647 1025 q 635 1083 647 1069 q 597 1096 622 1096 q 564 1086 578 1096 q 540 1057 550 1076 l 447 1106 q 510 1181 467 1154 q 615 1208 553 1208 q 691 1192 657 1208 q 746 1145 725 1175 q 767 1074 767 1115 q 747 999 767 1032 q 693 945 726 967 q 622 911 660 924 m 494 443 q 463 536 494 503 q 374 569 432 569 q 279 544 318 569 q 225 456 240 518 l 67 506 q 168 653 88 597 q 383 708 249 708 q 544 680 476 708 q 648 597 611 651 q 685 460 685 542 l 685 169 q 738 118 685 118 q 779 124 760 118 l 769 7 q 678 -11 733 -11 q 589 6 628 -11 q 528 56 550 22 q 506 142 506 90 l 506 156 l 535 153 q 486 63 524 100 q 397 6 449 25 q 290 -14 346 -14 q 172 8 224 -14 q 90 71 119 29 q 61 174 61 113 q 112 300 61 250 q 256 368 163 350 l 517 421 l 517 321 l 350 286 q 271 253 296 275 q 246 194 246 232 q 272 138 246 160 q 347 115 299 115 q 403 124 376 115 q 450 149 429 132 q 483 190 471 165 q 494 247 494 214 l 494 443 z "},"ẫ":{"ha":797,"x_min":61,"x_max":779,"o":"m 622 785 l 485 785 l 383 918 l 283 785 l 146 785 l 294 1013 l 474 1013 l 622 785 m 633 1239 q 585 1094 629 1140 q 478 1047 542 1047 q 415 1059 440 1047 q 370 1086 389 1071 q 335 1113 351 1101 q 297 1125 318 1125 q 261 1106 274 1125 q 243 1050 249 1088 l 133 1050 q 183 1195 139 1149 q 296 1242 226 1242 q 356 1230 332 1242 q 399 1203 381 1218 q 433 1176 418 1188 q 469 1164 449 1164 q 506 1183 493 1164 q 524 1239 518 1201 l 633 1239 m 494 443 q 463 536 494 503 q 374 569 432 569 q 279 544 318 569 q 225 456 240 518 l 67 506 q 168 653 88 597 q 383 708 249 708 q 544 680 476 708 q 648 597 611 651 q 685 460 685 542 l 685 169 q 738 118 685 118 q 779 124 760 118 l 769 7 q 678 -11 733 -11 q 589 6 628 -11 q 528 56 550 22 q 506 142 506 90 l 506 156 l 535 153 q 486 63 524 100 q 397 6 449 25 q 290 -14 346 -14 q 172 8 224 -14 q 90 71 119 29 q 61 174 61 113 q 112 300 61 250 q 256 368 163 350 l 517 421 l 517 321 l 350 286 q 271 253 296 275 q 246 194 246 232 q 272 138 246 160 q 347 115 299 115 q 403 124 376 115 q 450 149 429 132 q 483 190 471 165 q 494 247 494 214 l 494 443 z "},"ȁ":{"ha":797,"x_min":57,"x_max":779,"o":"m 496 443 q 462 536 496 503 q 372 569 428 569 q 282 543 321 569 q 225 456 243 517 l 63 506 q 166 653 86 597 q 381 708 246 708 q 540 680 472 708 q 647 594 608 651 q 685 451 685 538 l 685 169 q 735 117 685 117 q 779 124 758 117 l 768 6 q 678 -12 732 -12 q 590 4 629 -12 q 529 55 551 21 q 507 140 507 89 l 507 146 l 540 151 q 494 62 532 99 q 403 6 457 25 q 293 -14 350 -14 q 171 8 222 -14 q 92 71 119 29 q 64 174 64 113 q 114 301 64 251 q 257 368 164 350 l 518 421 l 517 303 l 350 269 q 278 244 303 260 q 254 192 254 228 q 280 139 254 157 q 342 121 306 121 q 399 128 371 121 q 449 150 426 135 q 483 192 471 165 q 496 256 496 218 l 496 443 m 328 794 l 190 794 l 57 1031 l 228 1031 l 328 794 m 603 794 l 467 794 l 333 1031 l 504 1031 l 603 794 z "},"ä":{"ha":797,"x_min":63,"x_max":779,"o":"m 496 443 q 462 536 496 503 q 372 569 428 569 q 282 543 321 569 q 225 456 243 517 l 63 506 q 166 653 86 597 q 381 708 246 708 q 540 680 472 708 q 647 594 608 651 q 685 451 685 538 l 685 169 q 735 117 685 117 q 779 124 758 117 l 768 6 q 678 -12 732 -12 q 590 4 629 -12 q 529 55 551 21 q 507 140 507 89 l 507 146 l 540 151 q 494 62 532 99 q 403 6 457 25 q 293 -14 350 -14 q 171 8 222 -14 q 92 71 119 29 q 64 174 64 113 q 114 301 64 251 q 257 368 164 350 l 518 421 l 517 303 l 350 269 q 278 244 303 260 q 254 192 254 228 q 280 139 254 157 q 342 121 306 121 q 399 128 371 121 q 449 150 426 135 q 483 192 471 165 q 496 256 496 218 l 496 443 m 236 979 q 313 953 285 979 q 342 882 342 928 q 313 811 342 838 q 236 785 285 785 q 161 811 189 785 q 133 882 133 838 q 161 953 133 928 q 236 979 189 979 m 528 979 q 606 953 578 979 q 633 882 633 928 q 606 811 633 838 q 528 785 578 785 q 453 811 481 785 q 425 882 425 838 q 453 953 425 928 q 528 979 481 979 z "},"ạ":{"ha":797,"x_min":63,"x_max":779,"o":"m 496 443 q 462 536 496 503 q 372 569 428 569 q 282 543 321 569 q 225 456 243 517 l 63 506 q 166 653 86 597 q 381 708 246 708 q 540 680 472 708 q 647 594 608 651 q 685 451 685 538 l 685 169 q 735 117 685 117 q 779 124 758 117 l 768 6 q 678 -12 732 -12 q 590 4 629 -12 q 529 55 551 21 q 507 140 507 89 l 507 146 l 540 151 q 494 62 532 99 q 403 6 457 25 q 293 -14 350 -14 q 171 8 222 -14 q 92 71 119 29 q 64 174 64 113 q 114 301 64 251 q 257 368 164 350 l 518 421 l 517 303 l 350 269 q 278 244 303 260 q 254 192 254 228 q 280 139 254 157 q 342 121 306 121 q 399 128 371 121 q 449 150 426 135 q 483 192 471 165 q 496 256 496 218 l 496 443 m 388 -306 q 306 -278 335 -306 q 276 -204 276 -251 q 306 -129 276 -156 q 388 -103 335 -103 q 471 -129 442 -103 q 500 -204 500 -156 q 471 -278 500 -251 q 388 -306 442 -306 z "},"à":{"ha":797,"x_min":63,"x_max":779,"o":"m 496 443 q 462 536 496 503 q 372 569 428 569 q 282 543 321 569 q 225 456 243 517 l 63 506 q 166 653 86 597 q 381 708 246 708 q 540 680 472 708 q 647 594 608 651 q 685 451 685 538 l 685 169 q 735 117 685 117 q 779 124 758 117 l 768 6 q 678 -12 732 -12 q 590 4 629 -12 q 529 55 551 21 q 507 140 507 89 l 507 146 l 540 151 q 494 62 532 99 q 403 6 457 25 q 293 -14 350 -14 q 171 8 222 -14 q 92 71 119 29 q 64 174 64 113 q 114 301 64 251 q 257 368 164 350 l 518 421 l 517 303 l 350 269 q 278 244 303 260 q 254 192 254 228 q 280 139 254 157 q 342 121 306 121 q 399 128 371 121 q 449 150 426 135 q 483 192 471 165 q 496 256 496 218 l 496 443 m 367 1031 l 464 794 l 322 794 l 183 1031 l 367 1031 z "},"ả":{"ha":797,"x_min":63,"x_max":779,"o":"m 496 443 q 462 536 496 503 q 372 569 428 569 q 282 543 321 569 q 225 456 243 517 l 63 506 q 166 653 86 597 q 381 708 246 708 q 540 680 472 708 q 647 594 608 651 q 685 451 685 538 l 685 169 q 735 117 685 117 q 779 124 758 117 l 768 6 q 678 -12 732 -12 q 590 4 629 -12 q 529 55 551 21 q 507 140 507 89 l 507 146 l 540 151 q 494 62 532 99 q 403 6 457 25 q 293 -14 350 -14 q 171 8 222 -14 q 92 71 119 29 q 64 174 64 113 q 114 301 64 251 q 257 368 164 350 l 518 421 l 517 303 l 350 269 q 278 244 303 260 q 254 192 254 228 q 280 139 254 157 q 342 121 306 121 q 399 128 371 121 q 449 150 426 135 q 483 192 471 165 q 496 256 496 218 l 496 443 m 375 758 l 328 824 q 388 860 369 842 q 406 903 406 879 q 392 939 406 925 q 354 953 379 953 q 321 942 335 953 q 294 910 307 932 l 203 960 q 265 1038 221 1011 q 371 1065 310 1065 q 449 1049 414 1065 q 505 1001 485 1032 q 525 928 525 969 q 505 851 525 885 q 450 795 485 818 q 375 758 415 772 z "},"ȃ":{"ha":797,"x_min":63,"x_max":779,"o":"m 496 443 q 462 536 496 503 q 372 569 428 569 q 282 543 321 569 q 225 456 243 517 l 63 506 q 166 653 86 597 q 381 708 246 708 q 540 680 472 708 q 647 594 608 651 q 685 451 685 538 l 685 169 q 735 117 685 117 q 779 124 758 117 l 768 6 q 678 -12 732 -12 q 590 4 629 -12 q 529 55 551 21 q 507 140 507 89 l 507 146 l 540 151 q 494 62 532 99 q 403 6 457 25 q 293 -14 350 -14 q 171 8 222 -14 q 92 71 119 29 q 64 174 64 113 q 114 301 64 251 q 257 368 164 350 l 518 421 l 517 303 l 350 269 q 278 244 303 260 q 254 192 254 228 q 280 139 254 157 q 342 121 306 121 q 399 128 371 121 q 449 150 426 135 q 483 192 471 165 q 496 256 496 218 l 496 443 m 607 782 l 478 782 q 454 856 478 826 q 383 886 431 886 q 313 856 338 886 q 289 782 289 826 l 160 782 q 221 941 160 882 q 383 1000 282 1000 q 547 941 486 1000 q 607 782 607 882 z "},"ā":{"ha":797,"x_min":63,"x_max":779,"o":"m 496 443 q 462 536 496 503 q 372 569 428 569 q 282 543 321 569 q 225 456 243 517 l 63 506 q 166 653 86 597 q 381 708 246 708 q 540 680 472 708 q 647 594 608 651 q 685 451 685 538 l 685 169 q 735 117 685 117 q 779 124 758 117 l 768 6 q 678 -12 732 -12 q 590 4 629 -12 q 529 55 551 21 q 507 140 507 89 l 507 146 l 540 151 q 494 62 532 99 q 403 6 457 25 q 293 -14 350 -14 q 171 8 222 -14 q 92 71 119 29 q 64 174 64 113 q 114 301 64 251 q 257 368 164 350 l 518 421 l 517 303 l 350 269 q 278 244 303 260 q 254 192 254 228 q 280 139 254 157 q 342 121 306 121 q 399 128 371 121 q 449 150 426 135 q 483 192 471 165 q 496 256 496 218 l 496 443 m 626 931 l 626 804 l 140 804 l 140 931 l 626 931 z "},"ą":{"ha":797,"x_min":61,"x_max":779,"o":"m 649 -311 q 560 -294 600 -311 q 496 -243 519 -276 q 472 -162 472 -210 q 531 -36 472 -83 q 693 40 589 11 l 769 7 q 669 -43 706 -19 q 619 -89 633 -67 q 604 -135 604 -111 q 626 -181 604 -164 q 681 -197 647 -197 q 716 -194 697 -197 q 749 -183 735 -192 l 772 -285 q 717 -304 750 -297 q 649 -311 685 -311 m 494 443 q 463 536 494 503 q 374 569 432 569 q 279 544 318 569 q 225 456 240 518 l 67 506 q 168 653 88 597 q 383 708 249 708 q 544 680 476 708 q 648 597 611 651 q 685 460 685 542 l 685 169 q 738 118 685 118 q 779 124 760 118 l 769 7 q 678 -11 733 -11 q 589 6 628 -11 q 528 56 550 22 q 506 142 506 90 l 506 156 l 535 153 q 486 63 524 100 q 397 6 449 25 q 290 -14 346 -14 q 172 8 224 -14 q 90 71 119 29 q 61 174 61 113 q 112 300 61 250 q 256 368 163 350 l 517 421 l 517 321 l 350 286 q 271 253 296 275 q 246 194 246 232 q 272 138 246 160 q 347 115 299 115 q 403 124 376 115 q 450 149 429 132 q 483 190 471 165 q 494 247 494 214 l 494 443 z "},"å":{"ha":797,"x_min":63,"x_max":779,"o":"m 496 443 q 462 536 496 503 q 372 569 428 569 q 282 543 321 569 q 225 456 243 517 l 63 506 q 166 653 86 597 q 381 708 246 708 q 540 680 472 708 q 647 594 608 651 q 685 451 685 538 l 685 169 q 735 117 685 117 q 779 124 758 117 l 768 6 q 678 -12 732 -12 q 590 4 629 -12 q 529 55 551 21 q 507 140 507 89 l 507 146 l 540 151 q 494 62 532 99 q 403 6 457 25 q 293 -14 350 -14 q 171 8 222 -14 q 92 71 119 29 q 64 174 64 113 q 114 301 64 251 q 257 368 164 350 l 518 421 l 517 303 l 350 269 q 278 244 303 260 q 254 192 254 228 q 280 139 254 157 q 342 121 306 121 q 399 128 371 121 q 449 150 426 135 q 483 192 471 165 q 496 256 496 218 l 496 443 m 381 1119 q 516 1073 465 1119 q 567 949 567 1026 q 516 824 567 871 q 381 778 465 778 q 245 824 297 778 q 193 949 193 871 q 245 1073 193 1026 q 381 1119 297 1119 m 381 1031 q 321 1008 344 1031 q 297 949 297 985 q 321 890 297 913 q 381 868 344 868 q 441 890 418 868 q 464 949 464 913 q 441 1008 464 985 q 381 1031 418 1031 z "},"ǻ":{"ha":797,"x_min":63,"x_max":779,"o":"m 496 443 q 462 536 496 503 q 372 569 428 569 q 282 543 321 569 q 225 456 243 517 l 63 506 q 166 653 86 597 q 381 708 246 708 q 540 680 472 708 q 647 594 608 651 q 685 451 685 538 l 685 169 q 735 117 685 117 q 779 124 758 117 l 768 6 q 678 -12 732 -12 q 590 4 629 -12 q 529 55 551 21 q 507 140 507 89 l 507 146 l 540 151 q 494 62 532 99 q 403 6 457 25 q 293 -14 350 -14 q 171 8 222 -14 q 92 71 119 29 q 64 174 64 113 q 114 301 64 251 q 257 368 164 350 l 518 421 l 517 303 l 350 269 q 278 244 303 260 q 254 192 254 228 q 280 139 254 157 q 342 121 306 121 q 399 128 371 121 q 449 150 426 135 q 483 192 471 165 q 496 256 496 218 l 496 443 m 381 1119 q 516 1073 465 1119 q 567 949 567 1026 q 516 824 567 871 q 381 778 465 778 q 245 824 297 778 q 193 949 193 871 q 245 1073 193 1026 q 381 1119 297 1119 m 381 1031 q 321 1008 344 1031 q 297 949 297 985 q 321 890 297 913 q 381 868 344 868 q 441 890 418 868 q 464 949 464 913 q 441 1008 464 985 q 381 1031 418 1031 m 315 1169 l 390 1371 l 565 1371 l 454 1169 l 315 1169 z "},"ã":{"ha":797,"x_min":63,"x_max":779,"o":"m 496 443 q 462 536 496 503 q 372 569 428 569 q 282 543 321 569 q 225 456 243 517 l 63 506 q 166 653 86 597 q 381 708 246 708 q 540 680 472 708 q 647 594 608 651 q 685 451 685 538 l 685 169 q 735 117 685 117 q 779 124 758 117 l 768 6 q 678 -12 732 -12 q 590 4 629 -12 q 529 55 551 21 q 507 140 507 89 l 507 146 l 540 151 q 494 62 532 99 q 403 6 457 25 q 293 -14 350 -14 q 171 8 222 -14 q 92 71 119 29 q 64 174 64 113 q 114 301 64 251 q 257 368 164 350 l 518 421 l 517 303 l 350 269 q 278 244 303 260 q 254 192 254 228 q 280 139 254 157 q 342 121 306 121 q 399 128 371 121 q 449 150 426 135 q 483 192 471 165 q 496 256 496 218 l 496 443 m 649 997 q 624 881 646 928 q 567 812 603 835 q 483 789 531 789 q 417 802 444 789 q 369 831 389 815 q 330 860 349 847 q 290 874 311 874 q 251 852 264 874 q 232 789 238 831 l 115 789 q 166 945 121 893 q 288 997 211 997 q 352 984 325 997 q 399 954 379 971 q 435 925 418 938 q 474 913 453 913 q 515 934 501 913 q 532 997 528 956 l 649 997 z "},"æ":{"ha":1232,"x_min":63,"x_max":1171,"o":"m 303 -14 q 176 8 231 -14 q 92 72 122 29 q 63 176 63 114 q 113 301 63 254 q 253 367 164 349 l 497 415 l 497 442 q 463 536 497 503 q 372 569 429 569 q 284 543 322 569 q 226 456 246 517 l 68 506 q 118 610 76 564 q 226 682 160 656 q 372 708 292 708 q 542 669 471 708 q 640 551 613 631 l 581 551 q 649 636 608 601 q 743 690 690 671 q 857 708 796 708 q 1027 666 957 708 q 1134 551 1097 624 q 1171 385 1171 478 q 1169 338 1171 361 q 1165 288 1168 315 l 683 288 l 683 288 q 736 166 683 204 q 861 128 789 128 q 951 151 918 128 q 1006 217 985 175 l 1158 158 q 1093 65 1136 104 q 991 6 1050 26 q 864 -14 932 -14 q 670 40 750 -14 q 558 196 590 93 l 603 194 q 571 111 596 149 q 506 45 546 74 q 415 1 467 17 q 303 -14 364 -14 m 347 121 q 403 128 376 121 q 451 151 431 136 q 485 192 472 167 q 497 250 497 217 l 497 300 l 351 269 q 278 243 300 260 q 257 192 257 226 q 278 142 257 163 q 347 121 300 121 m 685 419 l 989 419 q 969 499 988 465 q 919 550 950 532 q 846 568 888 568 q 738 529 781 568 q 685 419 696 490 z "},"ǽ":{"ha":1229,"x_min":63,"x_max":1171,"o":"m 303 -14 q 176 8 231 -14 q 92 72 122 29 q 63 176 63 114 q 113 301 63 254 q 253 367 164 349 l 497 415 l 497 442 q 463 536 497 503 q 372 569 429 569 q 284 543 322 569 q 226 456 246 517 l 68 506 q 118 610 76 564 q 226 682 160 656 q 372 708 292 708 q 542 669 471 708 q 640 551 613 631 l 581 551 q 649 636 608 601 q 743 690 690 671 q 857 708 796 708 q 1027 666 957 708 q 1134 551 1097 624 q 1171 385 1171 478 q 1169 338 1171 361 q 1165 288 1168 315 l 683 288 l 683 288 q 736 166 683 204 q 861 128 789 128 q 951 151 918 128 q 1006 217 985 175 l 1158 158 q 1093 65 1136 104 q 991 6 1050 26 q 864 -14 932 -14 q 670 40 750 -14 q 558 196 590 93 l 603 194 q 571 111 596 149 q 506 45 546 74 q 415 1 467 17 q 303 -14 364 -14 m 347 121 q 403 128 376 121 q 451 151 431 136 q 485 192 472 167 q 497 250 497 217 l 497 300 l 351 269 q 278 243 300 260 q 257 192 257 226 q 278 142 257 163 q 347 121 300 121 m 685 419 l 989 419 q 969 499 988 465 q 919 550 950 532 q 846 568 888 568 q 738 529 781 568 q 685 419 696 490 m 611 1031 l 794 1031 l 656 794 l 515 794 l 611 1031 z "},"b":{"ha":871,"x_min":100,"x_max":806,"o":"m 508 -14 q 392 13 444 -14 q 306 88 340 40 q 260 196 272 136 l 279 221 l 268 0 l 100 0 l 100 999 l 290 999 l 290 499 l 272 528 q 357 657 294 606 q 514 708 419 708 q 663 665 597 708 q 767 542 729 622 q 806 346 806 461 q 767 153 806 233 q 662 29 729 72 q 508 -14 594 -14 m 451 132 q 572 187 528 132 q 615 347 615 242 q 572 508 615 453 q 453 563 529 563 q 367 536 403 563 q 310 461 331 510 q 290 346 290 413 q 310 231 290 279 q 367 157 331 182 q 451 132 404 132 z "},"c":{"ha":783,"x_min":61,"x_max":736,"o":"m 415 708 q 573 681 508 708 q 677 608 638 654 q 733 504 717 561 l 556 440 q 508 535 542 503 q 418 567 475 567 q 328 542 365 567 q 271 469 290 518 q 251 346 251 419 q 272 224 251 272 q 330 151 292 175 q 419 128 368 128 q 490 142 461 128 q 538 185 519 157 q 564 251 557 213 l 736 196 q 679 86 721 133 q 572 13 638 39 q 421 -14 507 -14 q 232 29 314 -14 q 106 153 150 72 q 61 347 61 233 q 106 542 61 461 q 231 665 150 622 q 415 708 311 708 z "},"ć":{"ha":783,"x_min":61,"x_max":736,"o":"m 415 708 q 573 681 508 708 q 677 608 638 654 q 733 504 717 561 l 556 440 q 508 535 542 503 q 418 567 475 567 q 328 542 365 567 q 271 469 290 518 q 251 346 251 419 q 272 224 251 272 q 330 151 292 175 q 419 128 368 128 q 490 142 461 128 q 538 185 519 157 q 564 251 557 213 l 736 196 q 679 86 721 133 q 572 13 638 39 q 421 -14 507 -14 q 232 29 314 -14 q 106 153 150 72 q 61 347 61 233 q 106 542 61 461 q 231 665 150 622 q 415 708 311 708 m 413 1031 l 596 1031 l 457 794 l 317 794 l 413 1031 z "},"č":{"ha":783,"x_min":61,"x_max":736,"o":"m 415 708 q 573 681 508 708 q 677 608 638 654 q 733 504 717 561 l 556 440 q 508 535 542 503 q 418 567 475 567 q 328 542 365 567 q 271 469 290 518 q 251 346 251 419 q 272 224 251 272 q 330 151 292 175 q 419 128 368 128 q 490 142 461 128 q 538 185 519 157 q 564 251 557 213 l 736 196 q 679 86 721 133 q 572 13 638 39 q 421 -14 507 -14 q 232 29 314 -14 q 106 153 150 72 q 61 347 61 233 q 106 542 61 461 q 231 665 150 622 q 415 708 311 708 m 654 1031 l 500 794 l 310 794 l 156 1031 l 301 1031 l 406 894 l 510 1031 l 654 1031 z "},"ç":{"ha":783,"x_min":61,"x_max":736,"o":"m 415 708 q 573 681 508 708 q 677 608 638 654 q 733 504 717 561 l 556 440 q 508 535 542 503 q 418 567 475 567 q 328 542 365 567 q 271 469 290 518 q 251 346 251 419 q 272 224 251 272 q 330 151 292 175 q 419 128 368 128 q 490 142 461 128 q 538 185 519 157 q 564 251 557 213 l 736 196 q 679 86 721 133 q 572 13 638 39 q 421 -14 507 -14 q 232 29 314 -14 q 106 153 150 72 q 61 347 61 233 q 106 542 61 461 q 231 665 150 622 q 415 708 311 708 m 319 11 l 376 47 q 522 -17 476 28 q 567 -129 567 -61 q 516 -251 567 -204 q 381 -299 465 -299 q 299 -287 332 -299 q 243 -258 267 -275 l 276 -157 q 315 -176 294 -168 q 364 -185 335 -185 q 424 -162 400 -185 q 447 -99 447 -140 q 419 -40 447 -65 q 319 11 390 -15 z "},"ḉ":{"ha":783,"x_min":61,"x_max":736,"o":"m 415 708 q 573 681 508 708 q 677 608 638 654 q 733 504 717 561 l 556 440 q 508 535 542 503 q 418 567 475 567 q 328 542 365 567 q 271 469 290 518 q 251 346 251 419 q 272 224 251 272 q 330 151 292 175 q 419 128 368 128 q 490 142 461 128 q 538 185 519 157 q 564 251 557 213 l 736 196 q 679 86 721 133 q 572 13 638 39 q 421 -14 507 -14 q 232 29 314 -14 q 106 153 150 72 q 61 347 61 233 q 106 542 61 461 q 231 665 150 622 q 415 708 311 708 m 319 11 l 376 47 q 522 -17 476 28 q 567 -129 567 -61 q 516 -251 567 -204 q 381 -299 465 -299 q 299 -287 332 -299 q 243 -258 267 -275 l 276 -157 q 315 -176 294 -168 q 364 -185 335 -185 q 424 -162 400 -185 q 447 -99 447 -140 q 419 -40 447 -65 q 319 11 390 -15 m 413 1031 l 596 1031 l 457 794 l 317 794 l 413 1031 z "},"ĉ":{"ha":783,"x_min":61,"x_max":736,"o":"m 415 708 q 573 681 508 708 q 677 608 638 654 q 733 504 717 561 l 556 440 q 508 535 542 503 q 418 567 475 567 q 328 542 365 567 q 271 469 290 518 q 251 346 251 419 q 272 224 251 272 q 330 151 292 175 q 419 128 368 128 q 490 142 461 128 q 538 185 519 157 q 564 251 557 213 l 736 196 q 679 86 721 133 q 572 13 638 39 q 421 -14 507 -14 q 232 29 314 -14 q 106 153 150 72 q 61 347 61 233 q 106 542 61 461 q 231 665 150 622 q 415 708 311 708 m 658 785 l 513 785 l 408 921 l 304 785 l 158 785 l 313 1022 l 504 1022 l 658 785 z "},"ċ":{"ha":783,"x_min":61,"x_max":736,"o":"m 415 708 q 573 681 508 708 q 677 608 638 654 q 733 504 717 561 l 556 440 q 508 535 542 503 q 418 567 475 567 q 328 542 365 567 q 271 469 290 518 q 251 346 251 419 q 272 224 251 272 q 330 151 292 175 q 419 128 368 128 q 490 142 461 128 q 538 185 519 157 q 564 251 557 213 l 736 196 q 679 86 721 133 q 572 13 638 39 q 421 -14 507 -14 q 232 29 314 -14 q 106 153 150 72 q 61 347 61 233 q 106 542 61 461 q 231 665 150 622 q 415 708 311 708 m 408 1000 q 492 973 463 1000 q 521 899 521 946 q 492 824 521 850 q 408 797 463 797 q 326 824 356 797 q 297 899 297 850 q 326 973 297 946 q 408 1000 356 1000 z "},"d":{"ha":871,"x_min":65,"x_max":771,"o":"m 363 -14 q 209 29 276 -14 q 103 153 142 72 q 65 346 65 233 q 106 542 65 461 q 215 666 146 624 q 369 708 283 708 q 521 656 461 708 q 599 519 581 603 l 581 497 l 581 999 l 771 999 l 771 0 l 600 0 l 588 211 l 610 200 q 567 87 601 135 q 479 13 532 39 q 363 -14 426 -14 m 418 132 q 504 158 468 132 q 560 233 540 183 q 581 353 581 283 q 561 466 581 419 q 506 538 542 513 q 421 563 469 563 q 299 508 343 563 q 256 347 256 453 q 299 187 256 242 q 418 132 342 132 z "},"ð":{"ha":847,"x_min":68,"x_max":781,"o":"m 414 -14 q 229 27 307 -14 q 110 147 151 68 q 68 335 68 226 q 110 522 68 444 q 227 641 153 600 q 396 682 301 682 q 545 644 489 682 q 629 543 601 607 l 618 535 q 578 681 606 615 q 506 801 550 746 q 401 907 463 857 q 258 1007 339 957 l 453 1007 q 579 913 521 969 q 681 783 638 857 q 748 616 724 708 q 772 414 772 524 q 729 185 772 281 q 607 38 686 89 q 414 -14 528 -14 m 422 128 q 515 154 478 128 q 572 227 553 181 q 592 335 592 274 q 572 453 592 406 q 516 524 553 500 q 426 549 479 549 q 337 524 374 549 q 281 453 300 500 q 261 335 261 406 q 303 181 261 233 q 422 128 344 128 m 274 746 l 256 831 l 514 882 l 556 811 l 274 746 m 586 817 l 547 888 l 760 938 l 781 856 l 586 817 z "},"ď":{"ha":949,"x_min":65,"x_max":1018,"o":"m 1018 999 l 950 688 l 836 688 l 865 999 l 1018 999 m 363 -14 q 209 29 276 -14 q 103 153 142 72 q 65 346 65 233 q 106 542 65 461 q 215 666 146 624 q 369 708 283 708 q 521 656 461 708 q 599 519 581 603 l 581 497 l 581 999 l 771 999 l 771 0 l 600 0 l 588 211 l 610 200 q 567 87 601 135 q 479 13 532 39 q 363 -14 426 -14 m 418 132 q 504 158 468 132 q 560 233 540 183 q 581 353 581 283 q 561 466 581 419 q 506 538 542 513 q 421 563 469 563 q 299 508 343 563 q 256 347 256 453 q 299 187 256 242 q 418 132 342 132 z "},"đ":{"ha":872,"x_min":65,"x_max":879,"o":"m 388 761 l 388 878 l 879 878 l 879 761 l 388 761 m 363 -14 q 209 29 276 -14 q 103 153 142 72 q 65 346 65 233 q 106 542 65 461 q 215 666 146 624 q 369 708 283 708 q 521 656 461 708 q 599 519 581 603 l 581 497 l 581 999 l 771 999 l 771 0 l 600 0 l 588 211 l 610 200 q 567 87 601 135 q 479 13 532 39 q 363 -14 426 -14 m 418 132 q 504 158 468 132 q 560 233 540 183 q 581 353 581 283 q 561 466 581 419 q 506 538 542 513 q 421 563 469 563 q 299 508 343 563 q 256 347 256 453 q 299 187 256 242 q 418 132 342 132 z "},"ḍ":{"ha":871,"x_min":65,"x_max":771,"o":"m 363 -14 q 209 29 276 -14 q 103 153 142 72 q 65 346 65 233 q 106 542 65 461 q 215 666 146 624 q 369 708 283 708 q 521 656 461 708 q 599 519 581 603 l 581 497 l 581 999 l 771 999 l 771 0 l 600 0 l 588 211 l 610 200 q 567 87 601 135 q 479 13 532 39 q 363 -14 426 -14 m 418 132 q 504 158 468 132 q 560 233 540 183 q 581 353 581 283 q 561 466 581 419 q 506 538 542 513 q 421 563 469 563 q 299 508 343 563 q 256 347 256 453 q 299 187 256 242 q 418 132 342 132 m 426 -306 q 344 -278 374 -306 q 315 -204 315 -251 q 344 -129 315 -156 q 426 -103 374 -103 q 510 -129 481 -103 q 539 -204 539 -156 q 510 -278 539 -251 q 426 -306 481 -306 z "},"ḏ":{"ha":871,"x_min":65,"x_max":771,"o":"m 363 -14 q 209 29 276 -14 q 103 153 142 72 q 65 346 65 233 q 106 542 65 461 q 215 666 146 624 q 369 708 283 708 q 521 656 461 708 q 599 519 581 603 l 581 497 l 581 999 l 771 999 l 771 0 l 600 0 l 588 211 l 610 200 q 567 87 601 135 q 479 13 532 39 q 363 -14 426 -14 m 418 132 q 504 158 468 132 q 560 233 540 183 q 581 353 581 283 q 561 466 581 419 q 506 538 542 513 q 421 563 469 563 q 299 508 343 563 q 256 347 256 453 q 299 187 256 242 q 418 132 342 132 m 669 -110 l 669 -236 l 183 -236 l 183 -110 l 669 -110 z "},"ǳ":{"ha":1597,"x_min":65,"x_max":1540,"o":"m 363 -14 q 209 29 276 -14 q 103 153 142 72 q 65 346 65 233 q 106 542 65 461 q 215 666 146 624 q 369 708 283 708 q 521 656 461 708 q 599 519 581 603 l 581 497 l 581 999 l 771 999 l 771 0 l 600 0 l 588 211 l 610 200 q 567 87 601 135 q 479 13 532 39 q 363 -14 426 -14 m 418 132 q 504 158 468 132 q 560 233 540 183 q 581 353 581 283 q 561 466 581 419 q 506 538 542 513 q 421 563 469 563 q 299 508 343 563 q 256 347 256 453 q 299 187 256 242 q 418 132 342 132 m 931 0 l 931 122 l 1239 478 l 1318 557 l 1203 554 l 933 554 l 933 694 l 1529 694 l 1529 572 l 1222 218 l 1143 138 l 1269 140 l 1540 140 l 1540 0 l 931 0 z "},"ǆ":{"ha":1597,"x_min":65,"x_max":1540,"o":"m 363 -14 q 209 29 276 -14 q 103 153 142 72 q 65 346 65 233 q 106 542 65 461 q 215 666 146 624 q 369 708 283 708 q 521 656 461 708 q 599 519 581 603 l 581 497 l 581 999 l 771 999 l 771 0 l 600 0 l 588 211 l 610 200 q 567 87 601 135 q 479 13 532 39 q 363 -14 426 -14 m 418 132 q 504 158 468 132 q 560 233 540 183 q 581 353 581 283 q 561 466 581 419 q 506 538 542 513 q 421 563 469 563 q 299 508 343 563 q 256 347 256 453 q 299 187 256 242 q 418 132 342 132 m 931 0 l 931 122 l 1239 478 l 1318 557 l 1203 554 l 933 554 l 933 694 l 1529 694 l 1529 572 l 1222 218 l 1143 138 l 1269 140 l 1540 140 l 1540 0 l 931 0 m 1467 1031 l 1313 794 l 1122 794 l 968 1031 l 1114 1031 l 1218 894 l 1322 1031 l 1467 1031 z "},"e":{"ha":804,"x_min":61,"x_max":743,"o":"m 422 -14 q 231 29 313 -14 q 106 153 150 72 q 61 347 61 233 q 106 542 61 461 q 230 665 150 622 q 413 708 310 708 q 592 666 518 708 q 704 551 665 624 q 743 385 743 478 q 742 332 743 357 q 738 288 740 307 l 183 288 l 183 419 l 654 419 l 563 386 q 523 521 563 474 q 411 568 483 568 q 320 543 358 568 q 263 469 282 518 q 243 344 243 419 q 265 223 243 271 q 326 151 286 175 q 421 128 365 128 q 519 151 482 128 q 578 217 557 175 l 729 158 q 662 65 707 104 q 555 6 617 26 q 422 -14 493 -14 z "},"é":{"ha":803,"x_min":61,"x_max":743,"o":"m 422 -14 q 231 29 313 -14 q 106 153 150 72 q 61 347 61 233 q 106 542 61 461 q 230 665 150 622 q 413 708 310 708 q 592 666 518 708 q 704 551 665 624 q 743 385 743 478 q 742 332 743 357 q 738 288 740 307 l 183 288 l 183 419 l 654 419 l 563 386 q 523 521 563 474 q 411 568 483 568 q 320 543 358 568 q 263 469 282 518 q 243 344 243 419 q 265 223 243 271 q 326 151 286 175 q 421 128 365 128 q 519 151 482 128 q 578 217 557 175 l 729 158 q 662 65 707 104 q 555 6 617 26 q 422 -14 493 -14 m 411 1031 l 594 1031 l 456 794 l 315 794 l 411 1031 z "},"ĕ":{"ha":803,"x_min":61,"x_max":743,"o":"m 422 -14 q 231 29 313 -14 q 106 153 150 72 q 61 347 61 233 q 106 542 61 461 q 230 665 150 622 q 413 708 310 708 q 592 666 518 708 q 704 551 665 624 q 743 385 743 478 q 742 332 743 357 q 738 288 740 307 l 183 288 l 183 419 l 654 419 l 563 386 q 523 521 563 474 q 411 568 483 568 q 320 543 358 568 q 263 469 282 518 q 243 344 243 419 q 265 223 243 271 q 326 151 286 175 q 421 128 365 128 q 519 151 482 128 q 578 217 557 175 l 729 158 q 662 65 707 104 q 555 6 617 26 q 422 -14 493 -14 m 631 1000 q 570 841 631 900 q 407 782 510 782 q 244 841 306 782 q 183 1000 183 900 l 313 1000 q 337 926 313 956 q 407 896 361 896 q 478 926 454 896 q 501 1000 501 956 l 631 1000 z "},"ě":{"ha":803,"x_min":61,"x_max":743,"o":"m 422 -14 q 231 29 313 -14 q 106 153 150 72 q 61 347 61 233 q 106 542 61 461 q 230 665 150 622 q 413 708 310 708 q 592 666 518 708 q 704 551 665 624 q 743 385 743 478 q 742 332 743 357 q 738 288 740 307 l 183 288 l 183 419 l 654 419 l 563 386 q 523 521 563 474 q 411 568 483 568 q 320 543 358 568 q 263 469 282 518 q 243 344 243 419 q 265 223 243 271 q 326 151 286 175 q 421 128 365 128 q 519 151 482 128 q 578 217 557 175 l 729 158 q 662 65 707 104 q 555 6 617 26 q 422 -14 493 -14 m 653 1031 l 499 794 l 308 794 l 154 1031 l 300 1031 l 404 894 l 508 1031 l 653 1031 z "},"ḝ":{"ha":803,"x_min":61,"x_max":743,"o":"m 422 -14 q 231 29 313 -14 q 106 153 150 72 q 61 347 61 233 q 106 542 61 461 q 230 665 150 622 q 413 708 310 708 q 592 666 518 708 q 704 551 665 624 q 743 385 743 478 q 742 332 743 357 q 738 288 740 307 l 183 288 l 183 419 l 654 419 l 563 386 q 523 521 563 474 q 411 568 483 568 q 320 543 358 568 q 263 469 282 518 q 243 344 243 419 q 265 223 243 271 q 326 151 286 175 q 421 128 365 128 q 519 151 482 128 q 578 217 557 175 l 729 158 q 662 65 707 104 q 555 6 617 26 q 422 -14 493 -14 m 321 11 l 378 47 q 523 -17 478 28 q 568 -129 568 -61 q 517 -251 568 -204 q 382 -299 467 -299 q 301 -287 333 -299 q 244 -258 268 -275 l 278 -157 q 316 -176 296 -168 q 365 -185 336 -185 q 425 -162 401 -185 q 449 -99 449 -140 q 420 -40 449 -65 q 321 11 392 -15 m 631 1000 q 570 841 631 900 q 407 782 510 782 q 244 841 306 782 q 183 1000 183 900 l 313 1000 q 337 926 313 956 q 407 896 361 896 q 478 926 454 896 q 501 1000 501 956 l 631 1000 z "},"ê":{"ha":803,"x_min":61,"x_max":743,"o":"m 422 -14 q 231 29 313 -14 q 106 153 150 72 q 61 347 61 233 q 106 542 61 461 q 230 665 150 622 q 413 708 310 708 q 592 666 518 708 q 704 551 665 624 q 743 385 743 478 q 742 332 743 357 q 738 288 740 307 l 183 288 l 183 419 l 654 419 l 563 386 q 523 521 563 474 q 411 568 483 568 q 320 543 358 568 q 263 469 282 518 q 243 344 243 419 q 265 223 243 271 q 326 151 286 175 q 421 128 365 128 q 519 151 482 128 q 578 217 557 175 l 729 158 q 662 65 707 104 q 555 6 617 26 q 422 -14 493 -14 m 657 785 l 511 785 l 407 921 l 303 785 l 157 785 l 311 1022 l 503 1022 l 657 785 z "},"ế":{"ha":803,"x_min":61,"x_max":836,"o":"m 678 1138 l 836 1138 l 726 936 l 599 936 l 678 1138 m 644 785 l 508 785 l 407 918 l 306 785 l 168 785 l 318 1013 l 496 1013 l 644 785 m 422 -14 q 231 29 313 -14 q 106 153 150 72 q 61 347 61 233 q 106 542 61 461 q 230 665 150 622 q 413 708 310 708 q 592 667 518 708 q 704 551 665 625 q 743 385 743 478 q 742 340 743 361 q 738 304 740 319 l 183 304 l 183 410 l 654 410 l 561 381 q 522 519 561 471 q 411 568 483 568 q 321 543 358 568 q 263 469 283 518 q 243 344 243 419 q 265 223 243 272 q 326 151 286 174 q 421 128 365 128 q 519 151 482 128 q 578 217 557 175 l 729 158 q 663 65 708 104 q 555 6 617 26 q 422 -14 493 -14 z "},"ệ":{"ha":803,"x_min":61,"x_max":743,"o":"m 422 -14 q 231 29 313 -14 q 106 153 150 72 q 61 347 61 233 q 106 542 61 461 q 230 665 150 622 q 413 708 310 708 q 592 666 518 708 q 704 551 665 624 q 743 385 743 478 q 742 332 743 357 q 738 288 740 307 l 183 288 l 183 419 l 654 419 l 563 386 q 523 521 563 474 q 411 568 483 568 q 320 543 358 568 q 263 469 282 518 q 243 344 243 419 q 265 223 243 271 q 326 151 286 175 q 421 128 365 128 q 519 151 482 128 q 578 217 557 175 l 729 158 q 662 65 707 104 q 555 6 617 26 q 422 -14 493 -14 m 414 -306 q 332 -278 361 -306 q 303 -204 303 -251 q 332 -129 303 -156 q 414 -103 361 -103 q 497 -129 468 -103 q 526 -204 526 -156 q 497 -278 526 -251 q 414 -306 468 -306 m 657 785 l 511 785 l 407 921 l 303 785 l 157 785 l 311 1022 l 503 1022 l 657 785 z "},"ề":{"ha":803,"x_min":61,"x_max":753,"o":"m 674 1138 l 753 936 l 625 936 l 515 1138 l 674 1138 m 644 785 l 508 785 l 407 918 l 306 785 l 168 785 l 318 1013 l 496 1013 l 644 785 m 422 -14 q 231 29 313 -14 q 106 153 150 72 q 61 347 61 233 q 106 542 61 461 q 230 665 150 622 q 413 708 310 708 q 592 667 518 708 q 704 551 665 625 q 743 385 743 478 q 742 340 743 361 q 738 304 740 319 l 183 304 l 183 410 l 654 410 l 561 381 q 522 519 561 471 q 411 568 483 568 q 321 543 358 568 q 263 469 283 518 q 243 344 243 419 q 265 223 243 272 q 326 151 286 174 q 421 128 365 128 q 519 151 482 128 q 578 217 557 175 l 729 158 q 663 65 708 104 q 555 6 617 26 q 422 -14 493 -14 z "},"ể":{"ha":803,"x_min":61,"x_max":789,"o":"m 644 911 l 599 971 q 653 1007 636 989 q 669 1050 669 1025 q 657 1083 669 1069 q 621 1096 644 1096 q 587 1086 600 1096 q 563 1057 574 1076 l 471 1106 q 533 1181 489 1154 q 638 1208 576 1208 q 714 1192 679 1208 q 769 1145 749 1175 q 789 1074 789 1115 q 769 999 789 1032 q 716 945 749 967 q 644 911 683 924 m 644 785 l 508 785 l 407 918 l 306 785 l 168 785 l 318 1013 l 496 1013 l 644 785 m 422 -14 q 231 29 313 -14 q 106 153 150 72 q 61 347 61 233 q 106 542 61 461 q 230 665 150 622 q 413 708 310 708 q 592 667 518 708 q 704 551 665 625 q 743 385 743 478 q 742 340 743 361 q 738 304 740 319 l 183 304 l 183 410 l 654 410 l 561 381 q 522 519 561 471 q 411 568 483 568 q 321 543 358 568 q 263 469 283 518 q 243 344 243 419 q 265 223 243 272 q 326 151 286 174 q 421 128 365 128 q 519 151 482 128 q 578 217 557 175 l 729 158 q 663 65 708 104 q 555 6 617 26 q 422 -14 493 -14 z "},"ễ":{"ha":803,"x_min":61,"x_max":743,"o":"m 644 785 l 508 785 l 407 918 l 306 785 l 168 785 l 318 1013 l 496 1013 l 644 785 m 657 1239 q 608 1094 651 1140 q 501 1047 565 1047 q 438 1059 464 1047 q 394 1086 413 1071 q 358 1113 375 1101 q 321 1125 340 1125 q 285 1106 297 1125 q 267 1050 272 1088 l 156 1050 q 205 1195 161 1149 q 318 1242 249 1242 q 379 1230 354 1242 q 422 1203 404 1218 q 456 1176 440 1188 q 492 1164 472 1164 q 528 1183 515 1164 q 547 1239 542 1201 l 657 1239 m 422 -14 q 231 29 313 -14 q 106 153 150 72 q 61 347 61 233 q 106 542 61 461 q 230 665 150 622 q 413 708 310 708 q 592 667 518 708 q 704 551 665 625 q 743 385 743 478 q 742 340 743 361 q 738 304 740 319 l 183 304 l 183 410 l 654 410 l 561 381 q 522 519 561 471 q 411 568 483 568 q 321 543 358 568 q 263 469 283 518 q 243 344 243 419 q 265 223 243 272 q 326 151 286 174 q 421 128 365 128 q 519 151 482 128 q 578 217 557 175 l 729 158 q 663 65 708 104 q 555 6 617 26 q 422 -14 493 -14 z "},"ȅ":{"ha":803,"x_min":61,"x_max":743,"o":"m 422 -14 q 231 29 313 -14 q 106 153 150 72 q 61 347 61 233 q 106 542 61 461 q 230 665 150 622 q 413 708 310 708 q 592 666 518 708 q 704 551 665 624 q 743 385 743 478 q 742 332 743 357 q 738 288 740 307 l 183 288 l 183 419 l 654 419 l 563 386 q 523 521 563 474 q 411 568 483 568 q 320 543 358 568 q 263 469 282 518 q 243 344 243 419 q 265 223 243 271 q 326 151 286 175 q 421 128 365 128 q 519 151 482 128 q 578 217 557 175 l 729 158 q 662 65 707 104 q 555 6 617 26 q 422 -14 493 -14 m 351 794 l 214 794 l 81 1031 l 251 1031 l 351 794 m 626 794 l 490 794 l 357 1031 l 528 1031 l 626 794 z "},"ë":{"ha":803,"x_min":61,"x_max":743,"o":"m 422 -14 q 231 29 313 -14 q 106 153 150 72 q 61 347 61 233 q 106 542 61 461 q 230 665 150 622 q 413 708 310 708 q 592 666 518 708 q 704 551 665 624 q 743 385 743 478 q 742 332 743 357 q 738 288 740 307 l 183 288 l 183 419 l 654 419 l 563 386 q 523 521 563 474 q 411 568 483 568 q 320 543 358 568 q 263 469 282 518 q 243 344 243 419 q 265 223 243 271 q 326 151 286 175 q 421 128 365 128 q 519 151 482 128 q 578 217 557 175 l 729 158 q 662 65 707 104 q 555 6 617 26 q 422 -14 493 -14 m 260 979 q 337 953 308 979 q 365 882 365 928 q 337 811 365 838 q 260 785 308 785 q 185 811 213 785 q 157 882 157 838 q 185 953 157 928 q 260 979 213 979 m 551 979 q 629 953 601 979 q 657 882 657 928 q 629 811 657 838 q 551 785 601 785 q 476 811 504 785 q 449 882 449 838 q 476 953 449 928 q 551 979 504 979 z "},"ė":{"ha":803,"x_min":61,"x_max":743,"o":"m 422 -14 q 231 29 313 -14 q 106 153 150 72 q 61 347 61 233 q 106 542 61 461 q 230 665 150 622 q 413 708 310 708 q 592 666 518 708 q 704 551 665 624 q 743 385 743 478 q 742 332 743 357 q 738 288 740 307 l 183 288 l 183 419 l 654 419 l 563 386 q 523 521 563 474 q 411 568 483 568 q 320 543 358 568 q 263 469 282 518 q 243 344 243 419 q 265 223 243 271 q 326 151 286 175 q 421 128 365 128 q 519 151 482 128 q 578 217 557 175 l 729 158 q 662 65 707 104 q 555 6 617 26 q 422 -14 493 -14 m 407 1000 q 490 973 461 1000 q 519 899 519 946 q 490 824 519 850 q 407 797 461 797 q 325 824 354 797 q 296 899 296 850 q 325 973 296 946 q 407 1000 354 1000 z "},"ẹ":{"ha":803,"x_min":61,"x_max":743,"o":"m 422 -14 q 231 29 313 -14 q 106 153 150 72 q 61 347 61 233 q 106 542 61 461 q 230 665 150 622 q 413 708 310 708 q 592 666 518 708 q 704 551 665 624 q 743 385 743 478 q 742 332 743 357 q 738 288 740 307 l 183 288 l 183 419 l 654 419 l 563 386 q 523 521 563 474 q 411 568 483 568 q 320 543 358 568 q 263 469 282 518 q 243 344 243 419 q 265 223 243 271 q 326 151 286 175 q 421 128 365 128 q 519 151 482 128 q 578 217 557 175 l 729 158 q 662 65 707 104 q 555 6 617 26 q 422 -14 493 -14 m 414 -306 q 332 -278 361 -306 q 303 -204 303 -251 q 332 -129 303 -156 q 414 -103 361 -103 q 497 -129 468 -103 q 526 -204 526 -156 q 497 -278 526 -251 q 414 -306 468 -306 z "},"è":{"ha":803,"x_min":61,"x_max":743,"o":"m 422 -14 q 231 29 313 -14 q 106 153 150 72 q 61 347 61 233 q 106 542 61 461 q 230 665 150 622 q 413 708 310 708 q 592 666 518 708 q 704 551 665 624 q 743 385 743 478 q 742 332 743 357 q 738 288 740 307 l 183 288 l 183 419 l 654 419 l 563 386 q 523 521 563 474 q 411 568 483 568 q 320 543 358 568 q 263 469 282 518 q 243 344 243 419 q 265 223 243 271 q 326 151 286 175 q 421 128 365 128 q 519 151 482 128 q 578 217 557 175 l 729 158 q 662 65 707 104 q 555 6 617 26 q 422 -14 493 -14 m 390 1031 l 488 794 l 346 794 l 207 1031 l 390 1031 z "},"ẻ":{"ha":803,"x_min":61,"x_max":743,"o":"m 422 -14 q 231 29 313 -14 q 106 153 150 72 q 61 347 61 233 q 106 542 61 461 q 230 665 150 622 q 413 708 310 708 q 592 666 518 708 q 704 551 665 624 q 743 385 743 478 q 742 332 743 357 q 738 288 740 307 l 183 288 l 183 419 l 654 419 l 563 386 q 523 521 563 474 q 411 568 483 568 q 320 543 358 568 q 263 469 282 518 q 243 344 243 419 q 265 223 243 271 q 326 151 286 175 q 421 128 365 128 q 519 151 482 128 q 578 217 557 175 l 729 158 q 662 65 707 104 q 555 6 617 26 q 422 -14 493 -14 m 399 758 l 351 824 q 411 860 393 842 q 429 903 429 879 q 416 939 429 925 q 378 953 403 953 q 344 942 358 953 q 318 910 331 932 l 226 960 q 289 1038 244 1011 q 394 1065 333 1065 q 473 1049 438 1065 q 528 1001 508 1032 q 549 928 549 969 q 528 851 549 885 q 474 795 508 818 q 399 758 439 772 z "},"ȇ":{"ha":803,"x_min":61,"x_max":743,"o":"m 422 -14 q 231 29 313 -14 q 106 153 150 72 q 61 347 61 233 q 106 542 61 461 q 230 665 150 622 q 413 708 310 708 q 592 666 518 708 q 704 551 665 624 q 743 385 743 478 q 742 332 743 357 q 738 288 740 307 l 183 288 l 183 419 l 654 419 l 563 386 q 523 521 563 474 q 411 568 483 568 q 320 543 358 568 q 263 469 282 518 q 243 344 243 419 q 265 223 243 271 q 326 151 286 175 q 421 128 365 128 q 519 151 482 128 q 578 217 557 175 l 729 158 q 662 65 707 104 q 555 6 617 26 q 422 -14 493 -14 m 631 782 l 501 782 q 478 856 501 826 q 407 886 454 886 q 337 856 361 886 q 313 782 313 826 l 183 782 q 244 941 183 882 q 407 1000 306 1000 q 570 941 510 1000 q 631 782 631 882 z "},"ē":{"ha":803,"x_min":61,"x_max":743,"o":"m 422 -14 q 231 29 313 -14 q 106 153 150 72 q 61 347 61 233 q 106 542 61 461 q 230 665 150 622 q 413 708 310 708 q 592 666 518 708 q 704 551 665 624 q 743 385 743 478 q 742 332 743 357 q 738 288 740 307 l 183 288 l 183 419 l 654 419 l 563 386 q 523 521 563 474 q 411 568 483 568 q 320 543 358 568 q 263 469 282 518 q 243 344 243 419 q 265 223 243 271 q 326 151 286 175 q 421 128 365 128 q 519 151 482 128 q 578 217 557 175 l 729 158 q 662 65 707 104 q 555 6 617 26 q 422 -14 493 -14 m 650 931 l 650 804 l 164 804 l 164 931 l 650 931 z "},"ḗ":{"ha":803,"x_min":61,"x_max":743,"o":"m 422 -14 q 231 29 313 -14 q 106 153 150 72 q 61 347 61 233 q 106 542 61 461 q 230 665 150 622 q 413 708 310 708 q 592 666 518 708 q 704 551 665 624 q 743 385 743 478 q 742 332 743 357 q 738 288 740 307 l 183 288 l 183 419 l 654 419 l 563 386 q 523 521 563 474 q 411 568 483 568 q 320 543 358 568 q 263 469 282 518 q 243 344 243 419 q 265 223 243 271 q 326 151 286 175 q 421 128 365 128 q 519 151 482 128 q 578 217 557 175 l 729 158 q 662 65 707 104 q 555 6 617 26 q 422 -14 493 -14 m 650 931 l 650 804 l 164 804 l 164 931 l 650 931 m 410 1250 l 585 1250 l 463 1025 l 322 1025 l 410 1250 z "},"ḕ":{"ha":803,"x_min":61,"x_max":743,"o":"m 422 -14 q 231 29 313 -14 q 106 153 150 72 q 61 347 61 233 q 106 542 61 461 q 230 665 150 622 q 413 708 310 708 q 592 666 518 708 q 704 551 665 624 q 743 385 743 478 q 742 332 743 357 q 738 288 740 307 l 183 288 l 183 419 l 654 419 l 563 386 q 523 521 563 474 q 411 568 483 568 q 320 543 358 568 q 263 469 282 518 q 243 344 243 419 q 265 223 243 271 q 326 151 286 175 q 421 128 365 128 q 519 151 482 128 q 578 217 557 175 l 729 158 q 662 65 707 104 q 555 6 617 26 q 422 -14 493 -14 m 650 931 l 650 804 l 164 804 l 164 931 l 650 931 m 404 1250 l 492 1025 l 351 1025 l 229 1250 l 404 1250 z "},"ę":{"ha":803,"x_min":61,"x_max":743,"o":"m 422 -14 q 231 29 313 -14 q 106 153 150 72 q 61 347 61 233 q 106 542 61 461 q 230 665 150 622 q 413 708 310 708 q 592 666 518 708 q 704 551 665 624 q 743 385 743 478 q 742 332 743 357 q 738 288 740 307 l 183 288 l 183 419 l 654 419 l 563 386 q 523 521 563 474 q 411 568 483 568 q 320 543 358 568 q 263 469 282 518 q 243 344 243 419 q 265 223 243 271 q 326 151 286 175 q 421 128 365 128 q 519 151 482 128 q 578 217 557 175 l 729 158 q 662 65 707 104 q 555 6 617 26 q 422 -14 493 -14 m 450 -308 q 318 -267 365 -308 q 271 -158 271 -226 q 326 -32 271 -78 q 483 39 381 14 l 564 10 q 465 -34 500 -12 q 415 -78 429 -56 q 401 -128 401 -100 q 423 -177 401 -160 q 481 -194 444 -194 q 517 -191 499 -194 q 549 -181 535 -187 l 571 -283 q 517 -302 547 -296 q 450 -308 486 -308 z "},"ẽ":{"ha":803,"x_min":61,"x_max":743,"o":"m 422 -14 q 231 29 313 -14 q 106 153 150 72 q 61 347 61 233 q 106 542 61 461 q 230 665 150 622 q 413 708 310 708 q 592 666 518 708 q 704 551 665 624 q 743 385 743 478 q 742 332 743 357 q 738 288 740 307 l 183 288 l 183 419 l 654 419 l 563 386 q 523 521 563 474 q 411 568 483 568 q 320 543 358 568 q 263 469 282 518 q 243 344 243 419 q 265 223 243 271 q 326 151 286 175 q 421 128 365 128 q 519 151 482 128 q 578 217 557 175 l 729 158 q 662 65 707 104 q 555 6 617 26 q 422 -14 493 -14 m 672 997 q 648 881 669 928 q 590 812 626 835 q 507 789 554 789 q 440 802 468 789 q 392 831 413 815 q 353 860 372 847 q 314 874 335 874 q 274 852 288 874 q 256 789 261 831 l 139 789 q 190 945 144 893 q 311 997 235 997 q 376 984 349 997 q 422 954 403 971 q 459 925 442 938 q 497 913 476 913 q 538 934 525 913 q 556 997 551 956 l 672 997 z "},"ǝ":{"ha":803,"x_min":60,"x_max":743,"o":"m 386 708 q 576 665 497 708 q 699 542 656 622 q 743 347 743 461 q 699 153 743 233 q 576 29 654 72 q 393 -14 497 -14 q 214 31 289 -14 q 99 149 139 75 q 60 310 60 222 q 62 355 60 333 q 65 390 64 376 l 619 390 l 619 285 l 149 285 l 242 314 q 260 215 242 257 q 313 149 279 172 q 394 126 347 126 q 485 151 449 126 q 541 226 522 176 q 560 350 560 276 q 540 472 560 424 q 483 544 521 521 q 386 567 444 567 q 285 540 324 567 q 224 471 246 513 l 71 529 q 142 622 96 582 q 251 685 189 663 q 386 708 313 708 z "},"ə":{"ha":803,"x_min":61,"x_max":742,"o":"m 393 -14 q 215 28 289 -14 q 101 142 140 69 q 61 310 61 215 q 63 349 61 329 q 68 389 65 369 l 619 389 l 619 282 l 151 282 l 246 340 q 244 317 244 328 q 243 297 243 307 q 284 172 243 217 q 394 126 325 126 q 517 180 474 126 q 560 342 560 233 q 541 469 560 419 q 485 543 522 519 q 392 567 449 567 q 298 539 338 567 q 239 464 258 511 l 79 518 q 147 619 103 576 q 255 685 192 663 q 396 708 318 708 q 585 665 508 708 q 702 542 663 622 q 742 347 742 461 q 651 82 742 178 q 393 -14 560 -14 z "},"f":{"ha":565,"x_min":29,"x_max":557,"o":"m 410 1013 q 498 1002 458 1013 q 557 976 538 992 l 531 850 q 496 865 515 860 q 450 871 476 871 q 364 847 396 871 q 332 764 332 822 l 332 668 l 340 631 l 340 0 l 150 0 l 150 778 q 169 881 150 836 q 224 954 189 925 q 306 998 258 983 q 410 1013 354 1013 m 551 694 l 551 553 l 29 553 l 29 694 l 551 694 z "},"g":{"ha":763,"x_min":38,"x_max":763,"o":"m 740 860 l 763 724 q 751 724 757 724 q 738 725 744 725 q 642 697 675 725 q 610 618 610 668 l 532 650 q 554 753 532 706 q 620 831 576 801 q 725 860 664 860 q 732 860 728 860 q 740 860 736 860 m 513 131 q 686 82 625 131 q 747 -54 747 33 q 701 -188 747 -133 q 573 -271 656 -243 q 382 -299 490 -299 q 120 -249 203 -299 q 38 -118 38 -199 q 81 -22 38 -61 q 226 21 125 17 l 219 -1 q 109 47 147 11 q 71 144 71 82 q 120 249 71 208 q 254 297 169 290 l 338 258 l 318 258 q 234 234 258 254 q 210 189 210 214 q 233 145 210 160 q 299 131 256 131 l 513 131 m 383 -168 q 502 -156 456 -168 q 572 -124 549 -143 q 594 -81 594 -104 q 574 -38 594 -54 q 499 -22 553 -22 l 264 -22 q 209 -39 231 -22 q 188 -85 188 -56 q 240 -146 188 -124 q 383 -168 292 -168 m 385 708 q 553 680 482 708 q 663 599 625 651 q 701 472 701 546 q 663 347 701 400 q 553 266 625 294 q 385 238 482 238 q 149 301 231 238 q 67 472 67 364 q 106 599 67 546 q 215 680 144 651 q 385 708 286 708 m 385 589 q 293 558 329 589 q 257 474 257 528 q 293 388 257 419 q 385 357 329 357 q 476 388 440 357 q 511 474 511 419 q 476 558 511 528 q 385 589 440 589 z "},"ğ":{"ha":763,"x_min":38,"x_max":774,"o":"m 747 860 l 774 724 q 768 725 771 725 q 761 725 765 725 q 663 696 699 725 q 626 607 626 667 l 549 647 q 576 758 550 711 q 645 833 601 806 q 743 860 689 860 q 746 860 746 860 q 747 860 746 860 m 513 131 q 686 82 625 131 q 747 -54 747 33 q 701 -188 747 -133 q 573 -271 656 -243 q 382 -299 490 -299 q 120 -249 203 -299 q 38 -118 38 -199 q 81 -22 38 -61 q 226 21 125 17 l 219 -1 q 109 47 147 11 q 71 144 71 82 q 120 249 71 208 q 254 297 169 290 l 338 258 l 318 258 q 234 234 258 254 q 210 189 210 214 q 233 145 210 160 q 299 131 256 131 l 513 131 m 383 -168 q 502 -156 456 -168 q 572 -124 549 -143 q 594 -81 594 -104 q 574 -38 594 -54 q 499 -22 553 -22 l 264 -22 q 209 -39 231 -22 q 188 -85 188 -56 q 240 -146 188 -124 q 383 -168 292 -168 m 385 708 q 553 680 482 708 q 663 599 625 651 q 701 472 701 546 q 663 347 701 400 q 553 266 625 294 q 385 238 482 238 q 149 301 231 238 q 67 472 67 364 q 106 599 67 546 q 215 680 144 651 q 385 708 286 708 m 385 589 q 293 558 329 589 q 257 474 257 528 q 293 388 257 419 q 385 357 329 357 q 476 388 440 357 q 511 474 511 419 q 476 558 511 528 q 385 589 440 589 m 615 1000 q 554 841 615 900 q 392 782 493 782 q 228 841 289 782 q 167 1000 167 900 l 296 1000 q 321 926 297 956 q 392 896 344 896 q 462 926 439 896 q 486 1000 485 956 l 615 1000 z "},"ǧ":{"ha":763,"x_min":38,"x_max":763,"o":"m 740 860 l 763 724 q 751 724 757 724 q 738 725 744 725 q 642 697 675 725 q 610 618 610 668 l 532 650 q 554 753 532 706 q 620 831 576 801 q 725 860 664 860 q 732 860 728 860 q 740 860 736 860 m 513 131 q 686 82 625 131 q 747 -54 747 33 q 701 -188 747 -133 q 573 -271 656 -243 q 382 -299 490 -299 q 120 -249 203 -299 q 38 -118 38 -199 q 81 -22 38 -61 q 226 21 125 17 l 219 -1 q 109 47 147 11 q 71 144 71 82 q 120 249 71 208 q 254 297 169 290 l 338 258 l 318 258 q 234 234 258 254 q 210 189 210 214 q 233 145 210 160 q 299 131 256 131 l 513 131 m 383 -168 q 502 -156 456 -168 q 572 -124 549 -143 q 594 -81 594 -104 q 574 -38 594 -54 q 499 -22 553 -22 l 264 -22 q 209 -39 231 -22 q 188 -85 188 -56 q 240 -146 188 -124 q 383 -168 292 -168 m 385 708 q 553 680 482 708 q 663 599 625 651 q 701 472 701 546 q 663 347 701 400 q 553 266 625 294 q 385 238 482 238 q 149 301 231 238 q 67 472 67 364 q 106 599 67 546 q 215 680 144 651 q 385 708 286 708 m 385 589 q 293 558 329 589 q 257 474 257 528 q 293 388 257 419 q 385 357 329 357 q 476 388 440 357 q 511 474 511 419 q 476 558 511 528 q 385 589 440 589 m 610 1031 l 456 794 l 265 794 l 111 1031 l 257 1031 l 361 894 l 465 1031 l 610 1031 z "},"ĝ":{"ha":763,"x_min":38,"x_max":774,"o":"m 142 785 l 272 1022 l 447 1022 l 576 785 l 453 785 l 360 928 l 265 785 l 142 785 m 747 860 l 774 724 q 768 725 771 725 q 761 725 765 725 q 663 696 699 725 q 626 607 626 667 l 549 647 q 576 758 550 711 q 645 833 601 806 q 743 860 689 860 q 746 860 746 860 q 747 860 746 860 m 513 131 q 686 82 625 131 q 747 -54 747 33 q 701 -188 747 -133 q 573 -271 656 -243 q 382 -299 490 -299 q 120 -249 203 -299 q 38 -118 38 -199 q 81 -22 38 -61 q 226 21 125 17 l 219 -1 q 109 47 147 11 q 71 144 71 82 q 120 249 71 208 q 254 297 169 290 l 338 258 l 318 258 q 234 234 258 254 q 210 189 210 214 q 233 145 210 160 q 299 131 256 131 l 513 131 m 383 -168 q 502 -156 456 -168 q 572 -124 549 -143 q 594 -81 594 -104 q 574 -38 594 -54 q 499 -22 553 -22 l 264 -22 q 209 -39 231 -22 q 188 -85 188 -56 q 240 -146 188 -124 q 383 -168 292 -168 m 385 708 q 553 680 482 708 q 663 599 625 651 q 701 472 701 546 q 663 347 701 400 q 553 266 625 294 q 385 238 482 238 q 149 301 231 238 q 67 472 67 364 q 106 599 67 546 q 215 680 144 651 q 385 708 286 708 m 385 589 q 293 558 329 589 q 257 474 257 528 q 293 388 257 419 q 385 357 329 357 q 476 388 440 357 q 511 474 511 419 q 476 558 511 528 q 385 589 440 589 z "},"ģ":{"ha":763,"x_min":38,"x_max":763,"o":"m 740 860 l 763 724 q 751 724 757 724 q 738 725 744 725 q 642 697 675 725 q 610 618 610 668 l 532 650 q 554 753 532 706 q 620 831 576 801 q 725 860 664 860 q 732 860 728 860 q 740 860 736 860 m 513 131 q 686 82 625 131 q 747 -54 747 33 q 701 -188 747 -133 q 573 -271 656 -243 q 382 -299 490 -299 q 120 -249 203 -299 q 38 -118 38 -199 q 81 -22 38 -61 q 226 21 125 17 l 219 -1 q 109 47 147 11 q 71 144 71 82 q 120 249 71 208 q 254 297 169 290 l 338 258 l 318 258 q 234 234 258 254 q 210 189 210 214 q 233 145 210 160 q 299 131 256 131 l 513 131 m 383 -168 q 502 -156 456 -168 q 572 -124 549 -143 q 594 -81 594 -104 q 574 -38 594 -54 q 499 -22 553 -22 l 264 -22 q 209 -39 231 -22 q 188 -85 188 -56 q 240 -146 188 -124 q 383 -168 292 -168 m 385 708 q 553 680 482 708 q 663 599 625 651 q 701 472 701 546 q 663 347 701 400 q 553 266 625 294 q 385 238 482 238 q 149 301 231 238 q 67 472 67 364 q 106 599 67 546 q 215 680 144 651 q 385 708 286 708 m 385 589 q 293 558 329 589 q 257 474 257 528 q 293 388 257 419 q 385 357 329 357 q 476 388 440 357 q 511 474 511 419 q 476 558 511 528 q 385 589 440 589 m 519 1075 l 467 794 l 296 794 l 394 1075 l 519 1075 z "},"ġ":{"ha":763,"x_min":38,"x_max":763,"o":"m 740 860 l 763 724 q 751 724 757 724 q 738 725 744 725 q 642 697 675 725 q 610 618 610 668 l 532 650 q 554 753 532 706 q 620 831 576 801 q 725 860 664 860 q 732 860 728 860 q 740 860 736 860 m 513 131 q 686 82 625 131 q 747 -54 747 33 q 701 -188 747 -133 q 573 -271 656 -243 q 382 -299 490 -299 q 120 -249 203 -299 q 38 -118 38 -199 q 81 -22 38 -61 q 226 21 125 17 l 219 -1 q 109 47 147 11 q 71 144 71 82 q 120 249 71 208 q 254 297 169 290 l 338 258 l 318 258 q 234 234 258 254 q 210 189 210 214 q 233 145 210 160 q 299 131 256 131 l 513 131 m 383 -168 q 502 -156 456 -168 q 572 -124 549 -143 q 594 -81 594 -104 q 574 -38 594 -54 q 499 -22 553 -22 l 264 -22 q 209 -39 231 -22 q 188 -85 188 -56 q 240 -146 188 -124 q 383 -168 292 -168 m 385 708 q 553 680 482 708 q 663 599 625 651 q 701 472 701 546 q 663 347 701 400 q 553 266 625 294 q 385 238 482 238 q 149 301 231 238 q 67 472 67 364 q 106 599 67 546 q 215 680 144 651 q 385 708 286 708 m 385 589 q 293 558 329 589 q 257 474 257 528 q 293 388 257 419 q 385 357 329 357 q 476 388 440 357 q 511 474 511 419 q 476 558 511 528 q 385 589 440 589 m 364 1000 q 447 973 418 1000 q 476 899 476 946 q 447 824 476 850 q 364 797 418 797 q 282 824 311 797 q 253 899 253 850 q 282 973 253 946 q 364 1000 311 1000 z "},"ɂ":{"ha":735,"x_min":11,"x_max":711,"o":"m 372 710 q 548 681 472 710 q 667 595 624 651 q 711 457 711 539 q 675 317 711 372 q 580 232 639 263 q 449 189 521 201 l 449 0 l 258 0 l 258 279 q 409 311 356 292 q 485 360 463 331 q 507 431 507 389 q 470 519 507 489 q 360 550 433 550 q 248 509 288 550 q 194 401 208 468 l 11 463 q 72 590 28 535 q 192 678 117 646 q 372 710 267 710 z "},"ḡ":{"ha":763,"x_min":38,"x_max":763,"o":"m 531 931 l 531 804 l 199 804 l 199 931 l 531 931 m 740 860 l 763 724 q 751 724 757 724 q 738 725 744 725 q 642 697 675 725 q 610 618 610 668 l 532 650 q 554 753 532 706 q 620 831 576 801 q 725 860 664 860 q 732 860 728 860 q 740 860 736 860 m 513 131 q 686 82 625 131 q 747 -54 747 33 q 701 -188 747 -133 q 573 -271 656 -243 q 382 -299 490 -299 q 120 -249 203 -299 q 38 -118 38 -199 q 81 -22 38 -61 q 226 21 125 17 l 219 -1 q 109 47 147 11 q 71 144 71 82 q 120 249 71 208 q 254 297 169 290 l 338 258 l 318 258 q 234 234 258 254 q 210 189 210 214 q 233 145 210 160 q 299 131 256 131 l 513 131 m 383 -168 q 502 -156 456 -168 q 572 -124 549 -143 q 594 -81 594 -104 q 574 -38 594 -54 q 499 -22 553 -22 l 264 -22 q 209 -39 231 -22 q 188 -85 188 -56 q 240 -146 188 -124 q 383 -168 292 -168 m 385 708 q 553 680 482 708 q 663 599 625 651 q 701 472 701 546 q 663 347 701 400 q 553 266 625 294 q 385 238 482 238 q 149 301 231 238 q 67 472 67 364 q 106 599 67 546 q 215 680 144 651 q 385 708 286 708 m 385 589 q 293 558 329 589 q 257 474 257 528 q 293 388 257 419 q 385 357 329 357 q 476 388 440 357 q 511 474 511 419 q 476 558 511 528 q 385 589 440 589 z "},"h":{"ha":860,"x_min":100,"x_max":764,"o":"m 100 0 l 100 999 l 290 999 l 290 576 q 382 676 324 643 q 514 708 440 708 q 642 681 586 708 q 731 597 699 653 q 764 456 764 540 l 764 0 l 574 0 l 574 400 q 539 524 574 490 q 450 558 504 558 q 373 540 410 558 q 313 478 336 521 q 290 367 290 436 l 290 0 l 100 0 z "},"ħ":{"ha":860,"x_min":-6,"x_max":764,"o":"m -6 878 l 485 878 l 485 761 l -6 761 l -6 878 m 100 0 l 100 999 l 290 999 l 290 576 q 382 676 324 643 q 514 708 440 708 q 642 681 586 708 q 731 597 699 653 q 764 456 764 540 l 764 0 l 574 0 l 574 400 q 539 524 574 490 q 450 558 504 558 q 373 540 410 558 q 313 478 336 521 q 290 367 290 436 l 290 0 l 100 0 z "},"ḫ":{"ha":860,"x_min":100,"x_max":764,"o":"m 100 0 l 100 999 l 290 999 l 290 576 q 382 676 324 643 q 514 708 440 708 q 642 681 586 708 q 731 597 699 653 q 764 456 764 540 l 764 0 l 574 0 l 574 400 q 539 524 574 490 q 450 558 504 558 q 373 540 410 558 q 313 478 336 521 q 290 367 290 436 l 290 0 l 100 0 m 678 -87 q 617 -247 678 -187 q 454 -306 557 -306 q 292 -247 353 -306 q 231 -87 231 -187 l 360 -87 q 384 -162 360 -132 q 454 -192 408 -192 q 525 -162 501 -192 q 549 -87 549 -132 l 678 -87 z "},"ĥ":{"ha":860,"x_min":-44,"x_max":764,"o":"m 100 0 l 100 999 l 290 999 l 290 576 q 382 676 324 643 q 514 708 440 708 q 642 681 586 708 q 731 597 699 653 q 764 456 764 540 l 764 0 l 574 0 l 574 400 q 539 524 574 490 q 450 558 504 558 q 373 540 410 558 q 313 478 336 521 q 290 367 290 436 l 290 0 l 100 0 m 436 1078 l 293 1078 l 196 1214 l 99 1078 l -44 1078 l 100 1303 l 292 1303 l 436 1078 z "},"ḥ":{"ha":860,"x_min":100,"x_max":764,"o":"m 100 0 l 100 999 l 290 999 l 290 576 q 382 676 324 643 q 514 708 440 708 q 642 681 586 708 q 731 597 699 653 q 764 456 764 540 l 764 0 l 574 0 l 574 400 q 539 524 574 490 q 450 558 504 558 q 373 540 410 558 q 313 478 336 521 q 290 367 290 436 l 290 0 l 100 0 m 454 -306 q 372 -278 401 -306 q 343 -204 343 -251 q 372 -129 343 -156 q 454 -103 401 -103 q 538 -129 508 -103 q 567 -204 567 -156 q 538 -278 567 -251 q 454 -306 508 -306 z "},"i":{"ha":392,"x_min":78,"x_max":314,"o":"m 196 794 q 107 820 136 794 q 78 896 78 846 q 107 973 78 947 q 196 999 136 999 q 285 973 256 999 q 314 896 314 947 q 285 820 314 846 q 196 794 256 794 m 290 694 l 290 0 l 100 0 l 100 694 l 290 694 z "},"ı":{"ha":392,"x_min":100,"x_max":290,"o":"m 290 694 l 290 0 l 100 0 l 100 694 l 290 694 z "},"í":{"ha":392,"x_min":100,"x_max":383,"o":"m 290 694 l 290 0 l 100 0 l 100 694 l 290 694 m 200 1031 l 383 1031 l 244 794 l 104 794 l 200 1031 z "},"ĭ":{"ha":392,"x_min":-28,"x_max":419,"o":"m 290 694 l 290 0 l 100 0 l 100 694 l 290 694 m 419 1000 q 359 841 419 900 q 196 782 299 782 q 33 841 94 782 q -28 1000 -28 900 l 101 1000 q 126 926 101 956 q 196 896 150 896 q 267 926 243 896 q 290 1000 290 956 l 419 1000 z "},"î":{"ha":392,"x_min":-54,"x_max":446,"o":"m 290 694 l 290 0 l 100 0 l 100 694 l 290 694 m 446 785 l 300 785 l 196 921 l 92 785 l -54 785 l 100 1022 l 292 1022 l 446 785 z "},"ȉ":{"ha":392,"x_min":-131,"x_max":415,"o":"m 290 694 l 290 0 l 100 0 l 100 694 l 290 694 m 140 794 l 3 794 l -131 1031 l 40 1031 l 140 794 m 415 794 l 279 794 l 146 1031 l 317 1031 l 415 794 z "},"ï":{"ha":392,"x_min":-29,"x_max":421,"o":"m 321 783 q 247 810 274 783 q 221 882 221 836 q 247 955 221 929 q 321 981 274 981 q 395 955 369 981 q 421 882 421 929 q 395 810 421 836 q 321 783 369 783 m 71 783 q -3 810 24 783 q -29 882 -29 836 q -3 955 -29 929 q 71 981 24 981 q 144 955 118 981 q 171 882 171 929 q 144 810 171 836 q 71 783 118 783 m 290 694 l 290 0 l 100 0 l 100 694 l 290 694 z "},"ḯ":{"ha":392,"x_min":-54,"x_max":446,"o":"m 290 694 l 290 0 l 100 0 l 100 694 l 290 694 m 49 979 q 126 953 97 979 q 154 882 154 928 q 126 811 154 838 q 49 785 97 785 q -26 811 1 785 q -54 882 -54 838 q -26 953 -54 928 q 49 979 1 979 m 340 979 q 418 953 390 979 q 446 882 446 928 q 418 811 446 838 q 340 785 390 785 q 265 811 293 785 q 238 882 238 838 q 265 953 238 928 q 340 979 293 979 m 199 1269 l 374 1269 l 251 1044 l 111 1044 l 199 1269 z "},"ị":{"ha":392,"x_min":78,"x_max":314,"o":"m 196 794 q 107 820 136 794 q 78 896 78 846 q 107 973 78 947 q 196 999 136 999 q 285 973 256 999 q 314 896 314 947 q 285 820 314 846 q 196 794 256 794 m 290 694 l 290 0 l 100 0 l 100 694 l 290 694 m 196 -306 q 114 -278 143 -306 q 85 -204 85 -251 q 114 -129 85 -156 q 196 -103 143 -103 q 279 -129 250 -103 q 308 -204 308 -156 q 279 -278 308 -251 q 196 -306 250 -306 z "},"ì":{"ha":392,"x_min":-4,"x_max":290,"o":"m 290 694 l 290 0 l 100 0 l 100 694 l 290 694 m 179 1031 l 276 794 l 135 794 l -4 1031 l 179 1031 z "},"ỉ":{"ha":392,"x_min":15,"x_max":338,"o":"m 290 694 l 290 0 l 100 0 l 100 694 l 290 694 m 188 758 l 140 824 q 200 860 182 842 q 218 903 218 879 q 205 939 218 925 q 167 953 192 953 q 133 942 147 953 q 107 910 119 932 l 15 960 q 78 1038 33 1011 q 183 1065 122 1065 q 262 1049 226 1065 q 317 1001 297 1032 q 338 928 338 969 q 317 851 338 885 q 263 795 297 818 q 188 758 228 772 z "},"ȋ":{"ha":392,"x_min":-28,"x_max":419,"o":"m 290 694 l 290 0 l 100 0 l 100 694 l 290 694 m 419 782 l 290 782 q 267 856 290 826 q 196 886 243 886 q 126 856 150 886 q 101 782 101 826 l -28 782 q 33 941 -28 882 q 196 1000 94 1000 q 359 941 299 1000 q 419 782 419 882 z "},"ĳ":{"ha":783,"x_min":78,"x_max":706,"o":"m 196 794 q 107 820 136 794 q 78 896 78 846 q 107 973 78 947 q 196 999 136 999 q 285 973 256 999 q 314 896 314 947 q 285 820 314 846 q 196 794 256 794 m 290 694 l 290 0 l 100 0 l 100 694 l 290 694 m 588 794 q 499 820 528 794 q 469 896 469 846 q 499 973 469 947 q 588 999 528 999 q 676 973 647 999 q 706 896 706 947 q 676 820 706 846 q 588 794 647 794 m 682 694 l 682 -51 q 649 -196 682 -142 q 561 -274 617 -250 q 435 -299 506 -299 q 342 -287 383 -299 q 268 -254 300 -275 l 299 -118 q 340 -141 315 -132 q 396 -150 365 -150 q 465 -124 439 -150 q 492 -33 492 -99 l 492 694 l 682 694 z "},"ī":{"ha":392,"x_min":24,"x_max":368,"o":"m 368 931 l 368 804 l 24 804 l 24 931 l 368 931 m 290 694 l 290 0 l 100 0 l 100 694 l 290 694 z "},"į":{"ha":392,"x_min":1,"x_max":314,"o":"m 183 -318 q 94 -301 136 -318 q 26 -251 51 -285 q 1 -164 1 -217 q 28 -65 1 -104 q 103 1 56 -26 q 211 47 150 28 l 290 0 q 179 -69 214 -36 q 144 -139 144 -101 q 164 -187 144 -169 q 219 -204 183 -204 q 253 -201 236 -204 q 283 -192 271 -197 l 311 -289 q 256 -310 288 -303 q 183 -318 224 -318 m 196 794 q 107 820 136 794 q 78 896 78 846 q 107 973 78 947 q 196 999 136 999 q 285 973 256 999 q 314 896 314 947 q 285 820 314 846 q 196 794 256 794 m 290 694 l 290 0 l 100 0 l 100 694 l 290 694 z "},"ĩ":{"ha":392,"x_min":-72,"x_max":461,"o":"m 290 694 l 290 0 l 100 0 l 100 694 l 290 694 m 461 997 q 437 881 458 928 q 379 812 415 835 q 296 789 343 789 q 229 802 257 789 q 181 831 201 815 q 142 860 161 847 q 103 874 124 874 q 63 852 76 874 q 44 789 50 831 l -72 789 q -22 945 -67 893 q 100 997 24 997 q 165 984 138 997 q 211 954 192 971 q 248 925 231 938 q 286 913 265 913 q 327 934 314 913 q 344 997 340 956 l 461 997 z "},"j":{"ha":392,"x_min":-124,"x_max":314,"o":"m 196 794 q 107 820 136 794 q 78 896 78 846 q 107 973 78 947 q 196 999 136 999 q 285 973 256 999 q 314 896 314 947 q 285 820 314 846 q 196 794 256 794 m 290 694 l 290 -51 q 258 -196 290 -142 q 169 -274 225 -250 q 43 -299 114 -299 q -50 -287 -8 -299 q -124 -254 -92 -275 l -93 -118 q -51 -141 -76 -132 q 4 -150 -26 -150 q 74 -124 47 -150 q 100 -33 100 -99 l 100 694 l 290 694 z "},"ȷ":{"ha":392,"x_min":-124,"x_max":290,"o":"m 290 694 l 290 -51 q 258 -196 290 -142 q 169 -274 225 -250 q 43 -299 114 -299 q -50 -287 -8 -299 q -124 -254 -92 -275 l -93 -118 q -51 -141 -76 -132 q 4 -150 -26 -150 q 74 -124 47 -150 q 100 -33 100 -99 l 100 694 l 290 694 z "},"ĵ":{"ha":392,"x_min":-124,"x_max":446,"o":"m 290 694 l 290 -51 q 258 -196 290 -142 q 169 -274 225 -250 q 43 -299 114 -299 q -50 -287 -8 -299 q -124 -254 -92 -275 l -93 -118 q -51 -141 -76 -132 q 4 -150 -26 -150 q 74 -124 47 -150 q 100 -33 100 -99 l 100 694 l 290 694 m 446 785 l 300 785 l 196 921 l 92 785 l -54 785 l 100 1022 l 292 1022 l 446 785 z "},"k":{"ha":836,"x_min":100,"x_max":824,"o":"m 807 694 l 486 360 l 449 342 l 240 118 l 238 321 l 590 694 l 807 694 m 290 999 l 290 0 l 100 0 l 100 999 l 290 999 m 513 474 l 824 0 l 608 0 l 382 363 l 513 474 z "},"ķ":{"ha":836,"x_min":100,"x_max":824,"o":"m 807 694 l 486 360 l 449 342 l 240 118 l 238 321 l 590 694 l 807 694 m 290 999 l 290 0 l 100 0 l 100 999 l 290 999 m 513 474 l 824 0 l 608 0 l 382 363 l 513 474 m 543 -92 l 447 -332 l 318 -332 l 369 -92 l 543 -92 z "},"ĸ":{"ha":836,"x_min":100,"x_max":824,"o":"m 807 694 l 486 360 l 449 342 l 240 118 l 238 321 l 592 694 l 807 694 m 290 694 l 290 0 l 100 0 l 100 694 l 290 694 m 513 474 l 824 0 l 608 0 l 382 363 l 513 474 z "},"l":{"ha":443,"x_min":97,"x_max":438,"o":"m 288 999 l 288 214 q 304 146 288 165 q 360 126 321 126 q 399 130 383 126 q 438 140 414 133 l 421 15 q 362 -6 397 1 q 292 -14 326 -14 q 144 35 190 -14 q 97 193 97 85 l 97 999 l 288 999 z "},"ĺ":{"ha":443,"x_min":94,"x_max":438,"o":"m 288 999 l 288 214 q 304 146 288 165 q 360 126 321 126 q 399 130 383 126 q 438 140 414 133 l 421 15 q 362 -6 397 1 q 292 -14 326 -14 q 144 35 190 -14 q 97 193 97 85 l 97 999 l 288 999 m 96 1082 l 171 1283 l 346 1283 l 235 1082 l 96 1082 z "},"ľ":{"ha":504,"x_min":97,"x_max":532,"o":"m 532 999 l 464 688 l 350 688 l 379 999 l 532 999 m 288 999 l 288 214 q 304 146 288 165 q 360 126 321 126 q 399 130 383 126 q 438 140 414 133 l 421 15 q 362 -6 397 1 q 292 -14 326 -14 q 144 35 190 -14 q 97 193 97 85 l 97 999 l 288 999 z "},"ļ":{"ha":443,"x_min":97,"x_max":438,"o":"m 288 999 l 288 214 q 304 146 288 165 q 360 126 321 126 q 399 130 383 126 q 438 140 414 133 l 421 15 q 362 -6 397 1 q 292 -14 326 -14 q 144 35 190 -14 q 97 193 97 85 l 97 999 l 288 999 m 367 -92 l 271 -332 l 142 -332 l 193 -92 l 367 -92 z "},"ŀ":{"ha":644,"x_min":97,"x_max":638,"o":"m 288 999 l 288 214 q 304 146 288 165 q 360 126 321 126 q 399 130 383 126 q 438 140 414 133 l 421 15 q 362 -6 397 1 q 292 -14 326 -14 q 144 35 190 -14 q 97 193 97 85 l 97 999 l 288 999 m 517 614 q 605 583 572 614 q 638 501 638 553 q 605 419 638 449 q 517 389 572 389 q 428 419 461 389 q 396 501 396 449 q 428 583 396 553 q 517 614 461 614 z "},"ḷ":{"ha":443,"x_min":97,"x_max":438,"o":"m 288 999 l 288 214 q 304 146 288 165 q 360 126 321 126 q 399 130 383 126 q 438 140 414 133 l 421 15 q 362 -6 397 1 q 292 -14 326 -14 q 144 35 190 -14 q 97 193 97 85 l 97 999 l 288 999 m 272 -306 q 190 -278 219 -306 q 161 -204 161 -251 q 190 -129 161 -156 q 272 -103 219 -103 q 356 -129 326 -103 q 385 -204 385 -156 q 356 -278 385 -251 q 272 -306 326 -306 z "},"ǉ":{"ha":835,"x_min":97,"x_max":757,"o":"m 288 999 l 288 214 q 304 146 288 165 q 360 126 321 126 q 399 130 383 126 q 438 140 414 133 l 421 15 q 362 -6 397 1 q 292 -14 326 -14 q 144 35 190 -14 q 97 193 97 85 l 97 999 l 288 999 m 639 794 q 550 820 579 794 q 521 896 521 846 q 550 973 521 947 q 639 999 579 999 q 728 973 699 999 q 757 896 757 947 q 728 820 757 846 q 639 794 699 794 m 733 694 l 733 -51 q 701 -196 733 -142 q 613 -274 668 -250 q 486 -299 557 -299 q 393 -287 435 -299 q 319 -254 351 -275 l 350 -118 q 392 -141 367 -132 q 447 -150 417 -150 q 517 -124 490 -150 q 543 -33 543 -99 l 543 694 l 733 694 z "},"ḻ":{"ha":443,"x_min":93,"x_max":453,"o":"m 453 -110 l 453 -236 l 93 -236 l 93 -110 l 453 -110 m 288 999 l 288 214 q 304 146 288 165 q 360 126 321 126 q 399 130 383 126 q 438 140 414 133 l 421 15 q 362 -6 397 1 q 292 -14 326 -14 q 144 35 190 -14 q 97 193 97 85 l 97 999 l 288 999 z "},"ł":{"ha":547,"x_min":39,"x_max":507,"o":"m 507 703 l 507 556 l 315 436 l 263 414 l 39 278 l 39 425 l 232 542 l 286 561 l 507 703 m 354 999 l 354 214 q 371 146 354 165 q 426 126 388 126 q 465 130 450 126 q 504 140 481 133 l 488 15 q 428 -6 464 1 q 358 -14 393 -14 q 210 35 257 -14 q 164 193 164 85 l 164 999 l 354 999 z "},"m":{"ha":1313,"x_min":100,"x_max":1217,"o":"m 100 0 l 100 694 l 271 694 l 278 569 q 373 674 313 639 q 507 708 433 708 q 642 674 582 708 q 733 571 703 639 q 793 647 756 617 q 876 693 831 678 q 969 708 922 708 q 1094 681 1038 708 q 1183 597 1150 653 q 1217 456 1217 542 l 1217 0 l 1026 0 l 1026 418 q 993 526 1026 494 q 907 558 960 558 q 830 538 865 558 q 774 476 794 517 q 754 374 754 435 l 754 0 l 564 0 l 564 418 q 530 526 564 494 q 443 558 496 558 q 372 539 407 558 q 313 478 336 519 q 290 368 290 436 l 290 0 l 100 0 z "},"ṃ":{"ha":1313,"x_min":100,"x_max":1217,"o":"m 100 0 l 100 694 l 271 694 l 278 569 q 373 674 313 639 q 507 708 433 708 q 642 674 582 708 q 733 571 703 639 q 793 647 756 617 q 876 693 831 678 q 969 708 922 708 q 1094 681 1038 708 q 1183 597 1150 653 q 1217 456 1217 542 l 1217 0 l 1026 0 l 1026 418 q 993 526 1026 494 q 907 558 960 558 q 830 538 865 558 q 774 476 794 517 q 754 374 754 435 l 754 0 l 564 0 l 564 418 q 530 526 564 494 q 443 558 496 558 q 372 539 407 558 q 313 478 336 519 q 290 368 290 436 l 290 0 l 100 0 m 658 -306 q 576 -278 606 -306 q 547 -204 547 -251 q 576 -129 547 -156 q 658 -103 606 -103 q 742 -129 713 -103 q 771 -204 771 -156 q 742 -278 771 -251 q 658 -306 713 -306 z "},"n":{"ha":860,"x_min":100,"x_max":764,"o":"m 100 0 l 100 694 l 271 694 l 282 486 l 258 508 q 311 620 275 576 q 399 686 347 664 q 514 708 451 708 q 642 681 586 708 q 731 597 699 653 q 764 456 764 540 l 764 0 l 574 0 l 574 401 q 539 524 574 490 q 449 558 504 558 q 373 540 410 558 q 313 479 336 521 q 290 368 290 438 l 290 0 l 100 0 z "},"ń":{"ha":860,"x_min":100,"x_max":764,"o":"m 100 0 l 100 694 l 271 694 l 282 486 l 258 508 q 311 620 275 576 q 399 686 347 664 q 514 708 451 708 q 642 681 586 708 q 731 597 699 653 q 764 456 764 540 l 764 0 l 574 0 l 574 401 q 539 524 574 490 q 449 558 504 558 q 373 540 410 558 q 313 479 336 521 q 290 368 290 438 l 290 0 l 100 0 m 442 1031 l 625 1031 l 486 794 l 346 794 l 442 1031 z "},"ň":{"ha":860,"x_min":100,"x_max":764,"o":"m 100 0 l 100 694 l 271 694 l 282 486 l 258 508 q 311 620 275 576 q 399 686 347 664 q 514 708 451 708 q 642 681 586 708 q 731 597 699 653 q 764 456 764 540 l 764 0 l 574 0 l 574 401 q 539 524 574 490 q 449 558 504 558 q 373 540 410 558 q 313 479 336 521 q 290 368 290 438 l 290 0 l 100 0 m 683 1031 l 529 794 l 339 794 l 185 1031 l 331 1031 l 435 894 l 539 1031 l 683 1031 z "},"ņ":{"ha":860,"x_min":100,"x_max":764,"o":"m 100 0 l 100 694 l 271 694 l 282 486 l 258 508 q 311 620 275 576 q 399 686 347 664 q 514 708 451 708 q 642 681 586 708 q 731 597 699 653 q 764 456 764 540 l 764 0 l 574 0 l 574 401 q 539 524 574 490 q 449 558 504 558 q 373 540 410 558 q 313 479 336 521 q 290 368 290 438 l 290 0 l 100 0 m 549 -92 l 453 -332 l 324 -332 l 375 -92 l 549 -92 z "},"ṅ":{"ha":860,"x_min":100,"x_max":764,"o":"m 100 0 l 100 694 l 271 694 l 282 486 l 258 508 q 311 620 275 576 q 399 686 347 664 q 514 708 451 708 q 642 681 586 708 q 731 597 699 653 q 764 456 764 540 l 764 0 l 574 0 l 574 401 q 539 524 574 490 q 449 558 504 558 q 373 540 410 558 q 313 479 336 521 q 290 368 290 438 l 290 0 l 100 0 m 438 1000 q 521 973 492 1000 q 550 899 550 946 q 521 824 550 850 q 438 797 492 797 q 356 824 385 797 q 326 899 326 850 q 356 973 326 946 q 438 1000 385 1000 z "},"ṇ":{"ha":860,"x_min":100,"x_max":764,"o":"m 100 0 l 100 694 l 271 694 l 282 486 l 258 508 q 311 620 275 576 q 399 686 347 664 q 514 708 451 708 q 642 681 586 708 q 731 597 699 653 q 764 456 764 540 l 764 0 l 574 0 l 574 401 q 539 524 574 490 q 449 558 504 558 q 373 540 410 558 q 313 479 336 521 q 290 368 290 438 l 290 0 l 100 0 m 454 -306 q 372 -278 401 -306 q 343 -204 343 -251 q 372 -129 343 -156 q 454 -103 401 -103 q 538 -129 508 -103 q 567 -204 567 -156 q 538 -278 567 -251 q 454 -306 508 -306 z "},"ŋ":{"ha":860,"x_min":100,"x_max":764,"o":"m 764 254 l 764 -40 q 731 -193 764 -136 q 644 -274 699 -250 q 521 -299 589 -299 q 424 -287 465 -299 q 350 -254 382 -275 l 381 -118 q 422 -141 397 -132 q 478 -150 447 -150 q 547 -124 521 -150 q 574 -33 574 -99 l 574 254 l 764 254 m 100 0 l 100 694 l 271 694 l 282 486 l 258 508 q 311 620 275 576 q 399 686 347 664 q 514 708 451 708 q 642 681 586 708 q 731 597 699 653 q 764 456 764 540 l 764 0 l 574 0 l 574 401 q 539 524 574 490 q 449 558 504 558 q 373 540 410 558 q 313 479 336 521 q 290 368 290 438 l 290 0 l 100 0 z "},"ǌ":{"ha":1251,"x_min":100,"x_max":1174,"o":"m 100 0 l 100 694 l 271 694 l 282 486 l 258 508 q 311 620 275 576 q 399 686 347 664 q 514 708 451 708 q 642 681 586 708 q 731 597 699 653 q 764 456 764 540 l 764 0 l 574 0 l 574 401 q 539 524 574 490 q 449 558 504 558 q 373 540 410 558 q 313 479 336 521 q 290 368 290 438 l 290 0 l 100 0 m 1056 794 q 967 820 996 794 q 938 896 938 846 q 967 973 938 947 q 1056 999 996 999 q 1144 973 1115 999 q 1174 896 1174 947 q 1144 820 1174 846 q 1056 794 1115 794 m 1150 694 l 1150 -51 q 1117 -196 1150 -142 q 1029 -274 1085 -250 q 903 -299 974 -299 q 810 -287 851 -299 q 736 -254 768 -275 l 767 -118 q 808 -141 783 -132 q 864 -150 833 -150 q 933 -124 907 -150 q 960 -33 960 -99 l 960 694 l 1150 694 z "},"ṉ":{"ha":860,"x_min":100,"x_max":764,"o":"m 100 0 l 100 694 l 271 694 l 282 486 l 258 508 q 311 620 275 576 q 399 686 347 664 q 514 708 451 708 q 642 681 586 708 q 731 597 699 653 q 764 456 764 540 l 764 0 l 574 0 l 574 401 q 539 524 574 490 q 449 558 504 558 q 373 540 410 558 q 313 479 336 521 q 290 368 290 438 l 290 0 l 100 0 m 697 -110 l 697 -236 l 211 -236 l 211 -110 l 697 -110 z "},"ñ":{"ha":860,"x_min":100,"x_max":764,"o":"m 100 0 l 100 694 l 271 694 l 282 486 l 258 508 q 311 620 275 576 q 399 686 347 664 q 514 708 451 708 q 642 681 586 708 q 731 597 699 653 q 764 456 764 540 l 764 0 l 574 0 l 574 401 q 539 524 574 490 q 449 558 504 558 q 373 540 410 558 q 313 479 336 521 q 290 368 290 438 l 290 0 l 100 0 m 703 997 q 678 881 700 928 q 621 812 657 835 q 538 789 585 789 q 471 802 499 789 q 423 831 443 815 q 384 860 403 847 q 344 874 365 874 q 305 852 318 874 q 286 789 292 831 l 169 789 q 220 945 175 893 q 342 997 265 997 q 406 984 379 997 q 453 954 433 971 q 490 925 472 938 q 528 913 507 913 q 569 934 556 913 q 586 997 582 956 l 703 997 z "},"o":{"ha":832,"x_min":61,"x_max":772,"o":"m 417 708 q 602 665 522 708 q 727 542 682 622 q 772 347 772 461 q 727 153 772 235 q 602 29 682 72 q 417 -14 522 -14 q 232 29 313 -14 q 106 153 151 72 q 61 347 61 235 q 106 542 61 461 q 232 665 151 622 q 417 708 313 708 m 417 567 q 327 542 364 567 q 271 469 290 518 q 251 347 251 421 q 271 225 251 274 q 327 152 290 176 q 417 128 364 128 q 505 152 468 128 q 561 225 542 176 q 581 347 581 274 q 561 469 581 421 q 505 542 542 518 q 417 567 468 567 z "},"ó":{"ha":832,"x_min":61,"x_max":772,"o":"m 417 708 q 602 665 522 708 q 727 542 682 622 q 772 347 772 461 q 727 153 772 235 q 602 29 682 72 q 417 -14 522 -14 q 232 29 313 -14 q 106 153 151 72 q 61 347 61 235 q 106 542 61 461 q 232 665 151 622 q 417 708 313 708 m 417 567 q 327 542 364 567 q 271 469 290 518 q 251 347 251 421 q 271 225 251 274 q 327 152 290 176 q 417 128 364 128 q 505 152 468 128 q 561 225 542 176 q 581 347 581 274 q 561 469 581 421 q 505 542 542 518 q 417 567 468 567 m 421 1031 l 604 1031 l 465 794 l 325 794 l 421 1031 z "},"ŏ":{"ha":832,"x_min":61,"x_max":772,"o":"m 417 708 q 602 665 522 708 q 727 542 682 622 q 772 347 772 461 q 727 153 772 235 q 602 29 682 72 q 417 -14 522 -14 q 232 29 313 -14 q 106 153 151 72 q 61 347 61 235 q 106 542 61 461 q 232 665 151 622 q 417 708 313 708 m 417 567 q 327 542 364 567 q 271 469 290 518 q 251 347 251 421 q 271 225 251 274 q 327 152 290 176 q 417 128 364 128 q 505 152 468 128 q 561 225 542 176 q 581 347 581 274 q 561 469 581 421 q 505 542 542 518 q 417 567 468 567 m 640 1000 q 580 841 640 900 q 417 782 519 782 q 254 841 315 782 q 193 1000 193 900 l 322 1000 q 347 926 322 956 q 417 896 371 896 q 488 926 464 896 q 511 1000 511 956 l 640 1000 z "},"ô":{"ha":832,"x_min":61,"x_max":772,"o":"m 417 708 q 602 665 522 708 q 727 542 682 622 q 772 347 772 461 q 727 153 772 235 q 602 29 682 72 q 417 -14 522 -14 q 232 29 313 -14 q 106 153 151 72 q 61 347 61 235 q 106 542 61 461 q 232 665 151 622 q 417 708 313 708 m 417 567 q 327 542 364 567 q 271 469 290 518 q 251 347 251 421 q 271 225 251 274 q 327 152 290 176 q 417 128 364 128 q 505 152 468 128 q 561 225 542 176 q 581 347 581 274 q 561 469 581 421 q 505 542 542 518 q 417 567 468 567 m 667 785 l 521 785 l 417 921 l 313 785 l 167 785 l 321 1022 l 513 1022 l 667 785 z "},"ố":{"ha":832,"x_min":61,"x_max":846,"o":"m 688 1138 l 846 1138 l 736 936 l 608 936 l 688 1138 m 654 785 l 517 785 l 417 918 l 315 785 l 178 785 l 326 1013 l 506 1013 l 654 785 m 417 708 q 602 665 522 708 q 727 542 682 622 q 772 347 772 461 q 727 153 772 235 q 602 29 682 72 q 417 -14 522 -14 q 232 29 313 -14 q 106 153 151 72 q 61 347 61 235 q 106 542 61 461 q 232 665 151 622 q 417 708 313 708 m 417 567 q 327 542 364 567 q 271 469 290 518 q 251 347 251 421 q 271 225 251 274 q 327 152 290 176 q 417 128 364 128 q 505 152 468 128 q 561 225 542 176 q 581 347 581 274 q 561 469 581 421 q 505 542 542 518 q 417 567 468 567 z "},"ộ":{"ha":832,"x_min":61,"x_max":772,"o":"m 417 708 q 602 665 522 708 q 727 542 682 622 q 772 347 772 461 q 727 153 772 235 q 602 29 682 72 q 417 -14 522 -14 q 232 29 313 -14 q 106 153 151 72 q 61 347 61 235 q 106 542 61 461 q 232 665 151 622 q 417 708 313 708 m 417 567 q 327 542 364 567 q 271 469 290 518 q 251 347 251 421 q 271 225 251 274 q 327 152 290 176 q 417 128 364 128 q 505 152 468 128 q 561 225 542 176 q 581 347 581 274 q 561 469 581 421 q 505 542 542 518 q 417 567 468 567 m 417 -306 q 335 -278 364 -306 q 306 -204 306 -251 q 335 -129 306 -156 q 417 -103 364 -103 q 500 -129 471 -103 q 529 -204 529 -156 q 500 -278 529 -251 q 417 -306 471 -306 m 667 785 l 521 785 l 417 921 l 313 785 l 167 785 l 321 1022 l 513 1022 l 667 785 z "},"ồ":{"ha":832,"x_min":61,"x_max":772,"o":"m 683 1138 l 763 936 l 635 936 l 525 1138 l 683 1138 m 654 785 l 517 785 l 417 918 l 315 785 l 178 785 l 326 1013 l 506 1013 l 654 785 m 417 708 q 602 665 522 708 q 727 542 682 622 q 772 347 772 461 q 727 153 772 235 q 602 29 682 72 q 417 -14 522 -14 q 232 29 313 -14 q 106 153 151 72 q 61 347 61 235 q 106 542 61 461 q 232 665 151 622 q 417 708 313 708 m 417 567 q 327 542 364 567 q 271 469 290 518 q 251 347 251 421 q 271 225 251 274 q 327 152 290 176 q 417 128 364 128 q 505 152 468 128 q 561 225 542 176 q 581 347 581 274 q 561 469 581 421 q 505 542 542 518 q 417 567 468 567 z "},"ổ":{"ha":832,"x_min":61,"x_max":799,"o":"m 654 911 l 607 971 q 663 1007 646 989 q 679 1050 679 1025 q 667 1083 679 1069 q 629 1096 654 1096 q 597 1086 610 1096 q 572 1057 583 1076 l 481 1106 q 542 1181 499 1154 q 647 1208 586 1208 q 723 1192 689 1208 q 778 1145 757 1175 q 799 1074 799 1115 q 778 999 799 1032 q 726 945 758 967 q 654 911 693 924 m 654 785 l 517 785 l 417 918 l 315 785 l 178 785 l 326 1013 l 506 1013 l 654 785 m 417 708 q 602 665 522 708 q 727 542 682 622 q 772 347 772 461 q 727 153 772 235 q 602 29 682 72 q 417 -14 522 -14 q 232 29 313 -14 q 106 153 151 72 q 61 347 61 235 q 106 542 61 461 q 232 665 151 622 q 417 708 313 708 m 417 567 q 327 542 364 567 q 271 469 290 518 q 251 347 251 421 q 271 225 251 274 q 327 152 290 176 q 417 128 364 128 q 505 152 468 128 q 561 225 542 176 q 581 347 581 274 q 561 469 581 421 q 505 542 542 518 q 417 567 468 567 z "},"ỗ":{"ha":832,"x_min":61,"x_max":772,"o":"m 654 785 l 517 785 l 417 918 l 315 785 l 178 785 l 326 1013 l 506 1013 l 654 785 m 667 1239 q 618 1094 661 1140 q 510 1047 575 1047 q 447 1059 472 1047 q 402 1086 421 1071 q 367 1113 383 1101 q 331 1125 350 1125 q 293 1106 306 1125 q 275 1050 281 1088 l 165 1050 q 215 1195 171 1149 q 328 1242 258 1242 q 389 1230 364 1242 q 432 1203 414 1218 q 466 1176 450 1188 q 501 1164 482 1164 q 538 1183 525 1164 q 556 1239 550 1201 l 667 1239 m 417 708 q 602 665 522 708 q 727 542 682 622 q 772 347 772 461 q 727 153 772 235 q 602 29 682 72 q 417 -14 522 -14 q 232 29 313 -14 q 106 153 151 72 q 61 347 61 235 q 106 542 61 461 q 232 665 151 622 q 417 708 313 708 m 417 567 q 327 542 364 567 q 271 469 290 518 q 251 347 251 421 q 271 225 251 274 q 327 152 290 176 q 417 128 364 128 q 505 152 468 128 q 561 225 542 176 q 581 347 581 274 q 561 469 581 421 q 505 542 542 518 q 417 567 468 567 z "},"ȍ":{"ha":832,"x_min":61,"x_max":772,"o":"m 417 708 q 602 665 522 708 q 727 542 682 622 q 772 347 772 461 q 727 153 772 235 q 602 29 682 72 q 417 -14 522 -14 q 232 29 313 -14 q 106 153 151 72 q 61 347 61 235 q 106 542 61 461 q 232 665 151 622 q 417 708 313 708 m 417 567 q 327 542 364 567 q 271 469 290 518 q 251 347 251 421 q 271 225 251 274 q 327 152 290 176 q 417 128 364 128 q 505 152 468 128 q 561 225 542 176 q 581 347 581 274 q 561 469 581 421 q 505 542 542 518 q 417 567 468 567 m 361 794 l 224 794 l 90 1031 l 261 1031 l 361 794 m 636 794 l 500 794 l 367 1031 l 538 1031 l 636 794 z "},"ö":{"ha":832,"x_min":61,"x_max":772,"o":"m 417 708 q 602 665 522 708 q 727 542 682 622 q 772 347 772 461 q 727 153 772 235 q 602 29 682 72 q 417 -14 522 -14 q 232 29 313 -14 q 106 153 151 72 q 61 347 61 235 q 106 542 61 461 q 232 665 151 622 q 417 708 313 708 m 417 567 q 327 542 364 567 q 271 469 290 518 q 251 347 251 421 q 271 225 251 274 q 327 152 290 176 q 417 128 364 128 q 505 152 468 128 q 561 225 542 176 q 581 347 581 274 q 561 469 581 421 q 505 542 542 518 q 417 567 468 567 m 269 979 q 347 953 318 979 q 375 882 375 928 q 347 811 375 838 q 269 785 318 785 q 194 811 222 785 q 167 882 167 838 q 194 953 167 928 q 269 979 222 979 m 561 979 q 639 953 611 979 q 667 882 667 928 q 639 811 667 838 q 561 785 611 785 q 486 811 514 785 q 458 882 458 838 q 486 953 458 928 q 561 979 514 979 z "}}}
